<?xml version="1.0" encoding="utf-8"?>
<!-- Generator: Adobe Illustrator 25.0.0, SVG Export Plug-In . SVG Version: 6.00 Build 0)  -->
<svg version="1.1" id="Layer_1" xmlns="http://www.w3.org/2000/svg" xmlns:xlink="http://www.w3.org/1999/xlink" x="0px" y="0px"
	 viewBox="0 0 1000.29 688.1" style="enable-background:new 0 0 1000.29 688.1;" xml:space="preserve">
<style type="text/css">
	.st0{fill-rule:evenodd;clip-rule:evenodd;fill:#FFFFFF;}
</style>
<g id="arrow-straight_1_">
	<path class="st0" d="M991.13,321.73L681.79,9.26c-12.01-12.2-31.64-12.36-43.84-0.35c-0.12,0.12-0.23,0.23-0.35,0.35
		c-12.22,12.35-12.24,32.24-0.04,44.61l256,258.6h-862C14.13,312.47,0,326.6,0,344.03s14.13,31.56,31.56,31.56h862l-256,258.6
		c-12.24,12.38-12.24,32.3,0,44.68c12.05,12.2,31.71,12.33,43.91,0.28c0.09-0.09,0.19-0.19,0.28-0.28l309.38-312.52
		C1003.34,353.98,1003.34,334.09,991.13,321.73z"/>
</g>
</svg>
