<?xml version="1.0" encoding="utf-8"?>
<!-- Generator: Adobe Illustrator 16.0.0, SVG Export Plug-In . SVG Version: 6.00 Build 0)  -->
<!DOCTYPE svg PUBLIC "-//W3C//DTD SVG 1.1//EN" "http://www.w3.org/Graphics/SVG/1.1/DTD/svg11.dtd">
<svg version="1.1" id="Capa_1" xmlns="http://www.w3.org/2000/svg" xmlns:xlink="http://www.w3.org/1999/xlink" x="0px" y="0px"
	 width="165.5px" height="82px" viewBox="0 213.5 165.5 82" enable-background="new 0 213.5 165.5 82" xml:space="preserve">
<g>
	<g>
		<path d="M150.59,249.5H26.5l20.556-20.456c2.294-2.282,2.303-5.993,0.02-8.286c-2.283-2.295-5.993-2.303-8.287-0.02L8.172,251.207
			c-0.002,0.001-0.004,0.003-0.005,0.005c-2.288,2.282-2.295,6.005,0,8.295c0.002,0.002,0.003,0.004,0.005,0.006l30.617,30.469
			c2.293,2.282,6.004,2.274,8.287-0.02c2.283-2.294,2.274-6.004-0.02-8.287L26.5,261.219h124.09c3.236,0,5.859-2.623,5.859-5.859
			S153.826,249.5,150.59,249.5z"/>
	</g>
</g>
</svg>
