<?xml version="1.0" encoding="utf-8"?>
<!-- Generator: Adobe Illustrator 25.0.0, SVG Export Plug-In . SVG Version: 6.00 Build 0)  -->
<svg version="1.1" id="Layer_1" xmlns="http://www.w3.org/2000/svg" xmlns:xlink="http://www.w3.org/1999/xlink" x="0px" y="0px"
	 viewBox="0 0 512 512" style="enable-background:new 0 0 512 512;" xml:space="preserve">
<style type="text/css">
	.st0{fill:#0A233F;}
</style>
<g id="_1">
	<path class="st0" d="M441.1,406h-372c-8.3,0-15-6.7-15-15V139c0-8.3,6.7-15,15-15l0,0h372c8.3,0,15,6.7,15,15l0,0v252
		C456.1,399.3,449.4,406,441.1,406z M84.1,376h342V154h-342V376z"/>
	<path class="st0" d="M255.1,336c-3.9,0-7.7-1.5-10.5-4.3l-186-182c-5.9-5.8-6-15.3-0.2-21.2c5.8-5.9,15.3-6,21.2-0.2l0,0L255.1,300
		l175.5-171.7c5.9-5.8,15.4-5.7,21.2,0.2c5.8,5.9,5.7,15.4-0.2,21.2l-186,182C262.8,334.5,259.1,336,255.1,336z"/>
	<path class="st0" d="M69.1,406c-8.3,0-15-6.8-14.9-15.1c0-4.2,1.8-8.2,4.9-11.1l133.9-121c6-5.7,15.5-5.4,21.2,0.6
		c5.7,6,5.4,15.5-0.6,21.2c-0.2,0.2-0.3,0.3-0.5,0.5l-133.9,121C76.4,404.6,72.8,406,69.1,406z"/>
	<path class="st0" d="M441.1,406c-3.7,0-7.3-1.4-10-3.9l-133.9-121c-6-5.7-6.3-15.2-0.6-21.2c5.5-5.8,14.6-6.3,20.7-1.1l133.9,121
		c6.1,5.6,6.6,15,1.1,21.2C449.4,404.2,445.4,406,441.1,406z"/>
</g>
</svg>
