<?xml version="1.0" encoding="utf-8"?>
<!-- Generator: Adobe Illustrator 16.0.0, SVG Export Plug-In . SVG Version: 6.00 Build 0)  -->
<!DOCTYPE svg PUBLIC "-//W3C//DTD SVG 1.1//EN" "http://www.w3.org/Graphics/SVG/1.1/DTD/svg11.dtd">
<svg version="1.1" id="Layer_1" xmlns="http://www.w3.org/2000/svg" xmlns:xlink="http://www.w3.org/1999/xlink" x="0px" y="0px"
	 width="149px" height="54px" viewBox="0 0 149 54" enable-background="new 0 0 149 54" xml:space="preserve">
<g>
	<defs>
		<rect id="SVGID_1_" x="2.43" y="3" width="144.208" height="48.694"/>
	</defs>
	<clipPath id="SVGID_2_">
		<use xlink:href="#SVGID_1_"  overflow="visible"/>
	</clipPath>
	<path clip-path="url(#SVGID_2_)" fill="#FFFFFF" d="M15.325,51.397h-1.864V22.219c-1.727,0.693-3.475,1.36-4.604,1.523
		c-0.363,0.052-1.469,0.21-1.988-1.109c-0.326-0.828-0.675-1.364-1.045-1.932c-0.379-0.581-0.771-1.183-1.163-2.099l-2.23-5.23
		l0.915-0.505c0.124-0.069,0.239-0.133,0.355-0.194l3.2-1.68c2.718-1.427,5.527-2.903,8.295-4.347
		c1.95-1.017,4.097-2.118,6.755-3.467c0.377-0.191,0.872-0.23,1.289-0.101c0.267,0.082,0.51,0.183,0.747,0.281
		c0.292,0.12,0.568,0.234,0.816,0.281c2.844,0.539,5.896,0.583,9.072,0.13c0.633-0.09,1.307-0.284,2.008-0.576
		c0.452-0.188,1.008-0.333,1.708,0.033c2.399,1.249,4.801,2.494,7.204,3.739c1.438,0.745,2.876,1.49,4.314,2.237
		c1.663,0.863,3.324,1.73,4.986,2.597l2.644,1.378v0.881l-0.094,0.192c-0.024,0.051-0.051,0.104-0.076,0.154
		c-0.043,0.087-0.087,0.174-0.125,0.262c-0.647,1.513-1.301,2.742-1.932,3.932c-0.682,1.283-1.326,2.495-1.964,4.041
		c-0.368,0.889-1.016,1.25-1.981,1.107c-0.971-0.145-2.726-0.831-4.134-1.383c-0.157-0.061-0.322-0.125-0.486-0.188v1.884h-1.863
		v-4.231l1.031,0.11c0.297,0.032,0.732,0.195,1.997,0.69c1.179,0.461,2.958,1.158,3.725,1.273c0.67-1.617,1.361-2.918,2.03-4.177
		c0.579-1.089,1.176-2.214,1.759-3.547l-1.392-0.725c-1.66-0.867-3.32-1.732-4.982-2.594c-1.437-0.746-2.875-1.492-4.313-2.237
		c-2.402-1.247-4.805-2.491-7.206-3.741c-0.006-0.003-0.011-0.006-0.015-0.007c-0.021,0.006-0.059,0.018-0.115,0.042
		c-0.845,0.353-1.674,0.588-2.461,0.701c-3.379,0.482-6.637,0.433-9.683-0.144c-0.436-0.083-0.831-0.245-1.179-0.389
		c-0.19-0.079-0.371-0.154-0.542-0.209c-2.625,1.33-4.748,2.419-6.676,3.426c-2.766,1.443-5.574,2.919-8.291,4.345l-2.959,1.554
		l1.568,3.675c0.327,0.766,0.658,1.274,1.009,1.813c0.398,0.609,0.808,1.24,1.197,2.214c0.003,0,0.006-0.001,0.009-0.001
		c1.058-0.151,3.24-1.031,4.413-1.502c0.94-0.378,1.103-0.441,1.318-0.459l1.003-0.078V51.397z M14.601,21.771L14.601,21.771
		L14.601,21.771z"/>
	<polygon clip-path="url(#SVGID_2_)" fill="#002857" points="28.373,43.844 31.163,25.354 36.854,25.354 36.854,51.397 
		32.985,51.397 32.985,32.723 30.158,51.397 26.29,51.397 23.238,32.981 23.238,51.397 19.667,51.397 19.667,25.354 25.358,25.354 	
		"/>
	<path clip-path="url(#SVGID_2_)" fill="#002857" d="M37.971,47.677c0.446,0.037,0.967,0.037,1.414,0.037
		c1.302,0,2.344-0.484,2.344-2.492V25.354h4.092v19.568c0,5.209-2.79,6.548-5.877,6.548c-0.744,0-1.302,0-1.972-0.073V47.677z"/>
	<polygon clip-path="url(#SVGID_2_)" fill="#FFFFFF" points="56.981,36.331 62.599,36.331 62.599,40.05 56.981,40.05 56.981,47.677 
		64.05,47.677 64.05,51.397 52.888,51.397 52.888,25.354 64.05,25.354 64.05,29.076 56.981,29.076 	"/>
	<polygon clip-path="url(#SVGID_2_)" fill="#FFFFFF" points="79.488,25.354 75.21,38.003 79.787,51.397 75.471,51.397 
		72.123,41.092 68.737,51.397 64.905,51.397 69.481,38.003 65.203,25.354 69.444,25.354 72.531,34.953 75.693,25.354 	"/>
	<path clip-path="url(#SVGID_2_)" fill="#FFFFFF" d="M93.216,31.79v3.387c0,4.166-2.009,6.436-6.102,6.436H85.18v9.785h-4.092
		V25.354h6.026C91.207,25.354,93.216,27.625,93.216,31.79 M85.18,29.076v8.815h1.935c1.302,0,2.008-0.594,2.008-2.455V31.53
		c0-1.858-0.706-2.454-2.008-2.454H85.18z"/>
	<path clip-path="url(#SVGID_2_)" fill="#FFFFFF" d="M94.034,31.605c0-4.167,2.196-6.548,6.213-6.548
		c4.019,0,6.214,2.381,6.214,6.548v13.541c0,4.166-2.195,6.548-6.214,6.548c-4.017,0-6.213-2.382-6.213-6.548V31.605z
		 M98.126,45.407c0,1.86,0.819,2.566,2.12,2.566c1.303,0,2.121-0.706,2.121-2.566V31.346c0-1.861-0.818-2.568-2.121-2.568
		c-1.301,0-2.12,0.707-2.12,2.568V45.407z"/>
	<path clip-path="url(#SVGID_2_)" fill="#FFFFFF" d="M116.914,51.397c-0.223-0.67-0.371-1.079-0.371-3.2v-4.092
		c0-2.417-0.819-3.312-2.679-3.312h-1.414v10.604h-4.093V25.354h6.175c4.242,0,6.064,1.973,6.064,5.991v2.045
		c0,2.679-0.855,4.428-2.679,5.283c2.047,0.855,2.715,2.827,2.715,5.543v4.018c0,1.265,0.039,2.195,0.447,3.163H116.914z
		 M112.45,29.076v7.998h1.599c1.526,0,2.455-0.67,2.455-2.753v-2.567c0-1.858-0.632-2.678-2.083-2.678H112.45z"/>
	<polygon clip-path="url(#SVGID_2_)" fill="#FFFFFF" points="121.378,25.354 134.027,25.354 134.027,29.076 129.748,29.076 
		129.748,51.397 125.657,51.397 125.657,29.076 121.378,29.076 	"/>
	<path clip-path="url(#SVGID_2_)" fill="#FFFFFF" d="M140.573,25.058c3.981,0,6.028,2.381,6.028,6.548v0.818h-3.869v-1.078
		c0-1.861-0.745-2.568-2.047-2.568c-1.301,0-2.046,0.707-2.046,2.568c0,5.357,7.998,6.36,7.998,13.801
		c0,4.166-2.083,6.548-6.101,6.548s-6.101-2.382-6.101-6.548v-1.6h3.869v1.86c0,1.86,0.817,2.529,2.12,2.529
		c1.302,0,2.121-0.669,2.121-2.529c0-5.357-7.999-6.361-7.999-13.802C134.548,27.438,136.595,25.058,140.573,25.058"/>
</g>
</svg>
