<?xml version="1.0" encoding="utf-8"?>
<!-- Generator: Adobe Illustrator 16.0.0, SVG Export Plug-In . SVG Version: 6.00 Build 0)  -->
<!DOCTYPE svg PUBLIC "-//W3C//DTD SVG 1.1//EN" "http://www.w3.org/Graphics/SVG/1.1/DTD/svg11.dtd">
<svg version="1.1" id="Capa_1" xmlns="http://www.w3.org/2000/svg" xmlns:xlink="http://www.w3.org/1999/xlink" x="0px" y="0px"
	 width="31.917px" height="21.166px" viewBox="0 60.834 31.917 21.166" enable-background="new 0 60.834 31.917 21.166"
	 xml:space="preserve">
<g>
	<g>
		<path d="M4.674,74.272h19.338l-3.204,3.188c-0.357,0.355-0.359,0.934-0.003,1.292c0.356,0.356,0.934,0.358,1.292,0.002
			l4.771-4.747c0-0.001,0-0.001,0-0.002c0.356-0.354,0.358-0.936,0-1.292c0,0,0-0.001,0-0.001l-4.771-4.748
			c-0.357-0.356-0.936-0.354-1.292,0.003s-0.354,0.936,0.003,1.291l3.204,3.188H4.674c-0.504,0-0.913,0.409-0.913,0.914
			C3.761,73.863,4.17,74.272,4.674,74.272z"/>
	</g>
</g>
<g>
	<g>
		<path d="M-147.602,103.232c-0.001-0.002-0.003-0.003-0.004-0.004l-25.297-25.175c-1.895-1.887-4.96-1.881-6.846,0.016
			c-1.886,1.896-1.879,4.961,0.016,6.848l16.984,16.901h-102.527c-2.674,0-4.841,2.167-4.841,4.841c0,2.676,2.167,4.842,4.841,4.842
			h102.527l-16.983,16.901c-1.895,1.886-1.902,4.951-0.016,6.847c1.886,1.896,4.952,1.902,6.847,0.017l25.296-25.174
			c0.001-0.003,0.003-0.003,0.004-0.005C-145.706,108.193-145.712,105.12-147.602,103.232z"/>
	</g>
</g>
</svg>
