<?xml version="1.0" encoding="utf-8"?>
<!-- Generator: Adobe Illustrator 16.0.0, SVG Export Plug-In . SVG Version: 6.00 Build 0)  -->
<!DOCTYPE svg PUBLIC "-//W3C//DTD SVG 1.1//EN" "http://www.w3.org/Graphics/SVG/1.1/DTD/svg11.dtd">
<svg version="1.1" id="Capa_1" xmlns="http://www.w3.org/2000/svg" xmlns:xlink="http://www.w3.org/1999/xlink" x="0px" y="0px"
	 width="165.5px" height="82px" viewBox="0 213.5 165.5 82" enable-background="new 0 213.5 165.5 82" xml:space="preserve">
<g>
	<g>
		<path d="M15.308,260.219h124.09l-20.556,20.456c-2.294,2.282-2.303,5.993-0.02,8.286c2.283,2.295,5.993,2.303,8.287,0.02
			l30.616-30.469c0.002-0.001,0.004-0.003,0.006-0.005c2.288-2.282,2.295-6.005,0-8.295c-0.002-0.002-0.003-0.004-0.004-0.006
			l-30.617-30.469c-2.293-2.282-6.004-2.274-8.287,0.02c-2.283,2.294-2.274,6.004,0.02,8.287l20.555,20.456H15.308
			c-3.236,0-5.859,2.623-5.859,5.859S12.071,260.219,15.308,260.219z"/>
	</g>
</g>
<g>
	<g>
		<path d="M-144.484,225.714c-0.001-0.002-0.003-0.003-0.004-0.004l-25.297-25.175c-1.895-1.887-4.96-1.88-6.846,0.016
			s-1.879,4.961,0.016,6.847l16.984,16.902h-102.527c-2.674,0-4.841,2.167-4.841,4.841c0,2.675,2.167,4.842,4.841,4.842h102.527
			l-16.983,16.901c-1.895,1.886-1.902,4.951-0.016,6.847c1.886,1.896,4.952,1.902,6.847,0.016l25.296-25.174
			c0.001-0.002,0.003-0.003,0.004-0.004C-142.588,230.675-142.594,227.601-144.484,225.714z"/>
	</g>
</g>
</svg>
