<?xml version="1.0" encoding="utf-8"?>
<!-- Generator: Adobe Illustrator 16.0.0, SVG Export Plug-In . SVG Version: 6.00 Build 0)  -->
<!DOCTYPE svg PUBLIC "-//W3C//DTD SVG 1.1//EN" "http://www.w3.org/Graphics/SVG/1.1/DTD/svg11.dtd">
<svg version="1.1" id="Layer_1" xmlns="http://www.w3.org/2000/svg" xmlns:xlink="http://www.w3.org/1999/xlink" x="0px" y="0px"
	 width="69px" height="68px" viewBox="0 0 69 68" enable-background="new 0 0 69 68" xml:space="preserve">
<g>
	<g>
		<defs>
			<rect id="SVGID_1_" x="5.149" y="4.5" width="59.829" height="58.004"/>
		</defs>
		<clipPath id="SVGID_2_">
			<use xlink:href="#SVGID_1_"  overflow="visible"/>
		</clipPath>
		
			<linearGradient id="SVGID_3_" gradientUnits="userSpaceOnUse" x1="161.1465" y1="-210.501" x2="220.9766" y2="-210.501" gradientTransform="matrix(1 0 0 -1 -156 -177)">
			<stop  offset="0.2063" style="stop-color:#F26B59"/>
			<stop  offset="1" style="stop-color:#E74C6D"/>
		</linearGradient>
		<path clip-path="url(#SVGID_2_)" fill="url(#SVGID_3_)" d="M14.302,40.564c-0.832,3.687-1.641,7.287-2.455,10.888
			c-0.692,3.07-1.377,6.143-2.083,9.21c-0.379,1.65-0.972,2.062-2.4,1.739c-1.554-0.351-1.915-0.969-1.527-2.698
			C7.182,53.71,8.536,47.72,9.882,41.728c0.11-0.49,0.19-0.987,0.315-1.639c-1.701-0.258-3.322-0.503-5.05-0.766
			c0.144-1.101,0.274-2.085,0.426-3.239c1.219,0.132,2.354,0.253,3.751,0.401c-1.383-3.322-2.697-6.478-4.08-9.802
			c0.979-0.429,1.881-0.826,2.876-1.263c0.288,0.388,0.542,0.733,0.849,1.147c0.332-0.202,0.682-0.393,1.005-0.62
			c8.44-5.933,16.903-11.837,25.313-17.813c11.067-7.867,25.975-2.374,29.19,10.796c2.371,9.716-3.962,19.945-13.739,22.192
			c-0.594,0.136-1.19,0.256-1.805,0.387c-0.152,1.127-0.306,2.261-0.473,3.49c-1.411-0.161-2.703-0.308-4.205-0.479
			c0.757,3.418,1.484,6.706,2.216,9.994c0.407,1.834,0.832,3.663,1.229,5.499c0.312,1.438-0.104,2.043-1.563,2.388
			c-1.264,0.299-2.061-0.088-2.357-1.425c-1.165-5.253-2.378-10.495-3.515-15.755c-0.198-0.917-0.519-1.339-1.52-1.464
			C30.642,42.737,22.542,41.649,14.302,40.564 M53.798,30.7c-1.872-1.916-3.744-3.833-5.597-5.727
			c-0.634,0.303-1.078,0.517-1.465,0.7v13.693c4.174-0.095,7.677-1.571,10.681-4.289c0.145-0.131,0.121-0.447,0.176-0.676
			c0.39-0.084,0.935-0.032,1.146-0.272c2.552-2.927,3.911-6.32,3.943-10.385c-4.469,0-8.828-0.01-13.189,0.022
			c-0.263,0.002-0.677,0.283-0.743,0.515c-0.089,0.307,0.016,0.739,0.184,1.034c0.193,0.342,0.559,0.583,0.831,0.884
			C51.111,27.696,52.455,29.199,53.798,30.7 M36.836,32.768c-0.682,0.578-1.365,1.154-2.133,1.807
			c3.409,3.121,6.969,4.709,11.336,4.79c0-4.476,0.027-8.775-0.016-13.074c-0.015-1.197-0.876-1.264-1.811-1.033
			c-0.138-0.508-0.275-1.016-0.38-1.399h-13.77c0.053,4.229,1.604,7.678,4.358,10.625C35.3,33.86,36.07,33.313,36.836,32.768
			 M10.207,27.167c7.971,3.327,15.64,6.526,23.308,9.727c-6.509-7.291-7.517-15.156-2.819-24.138
			C23.662,17.703,17.07,22.339,10.207,27.167 M9.942,28.238c-0.102,0.08-0.203,0.159-0.304,0.238
			c1.133,2.687,2.245,5.384,3.433,8.047c0.138,0.31,0.684,0.565,1.071,0.619c7.643,1.033,15.29,2.033,22.938,3.031
			c0.285,0.038,0.581,0.005,0.873,0.005c0.008-0.077,0.017-0.153,0.025-0.229C28.633,36.046,19.288,32.142,9.942,28.238
			 M62.686,23.077c-0.196-4.317-1.692-7.91-4.868-11.294c-2.888,3.002-5.661,5.961-8.536,8.818c-0.848,0.84-0.987,1.527-0.28,2.476
			H62.686z M34.908,11.76c-3.138,3.456-4.708,7.009-4.825,11.288h14.049c-0.075-0.697,0.094-1.533-0.245-1.898
			C40.995,18.022,38.015,14.982,34.908,11.76 M35.118,11.208c3.162,3.178,6.176,6.247,9.258,9.246
			c0.318,0.308,1.041,0.201,1.552,0.283V6.73C41.763,6.919,38.234,8.314,35.118,11.208 M46.652,6.734
			c0,4.342-0.019,8.503,0.026,12.664c0.005,0.44,0.296,1.129,0.62,1.246c0.354,0.128,1.02-0.152,1.344-0.466
			c2.586-2.517,5.124-5.084,7.675-7.638c0.415-0.415,0.809-0.852,1.271-1.341C54.445,8.327,50.921,6.897,46.652,6.734"/>
	</g>
</g>
<linearGradient id="SVGID_4_" gradientUnits="userSpaceOnUse" x1="-92.8384" y1="-54.2627" x2="-90.7213" y2="-54.2627" gradientTransform="matrix(1 0 0 -1 -156 -177)">
	<stop  offset="0" style="stop-color:#F05351"/>
	<stop  offset="1" style="stop-color:#E74C6D"/>
</linearGradient>
<path fill="url(#SVGID_4_)" d="M-369.588,98.412c-0.212-0.11-0.42-0.229-0.636-0.332c-3.402-1.605-6.801-3.219-10.213-4.803
	c-0.293-0.135-0.71-0.182-1.015-0.088c-1.652,0.498-3.327-0.289-3.935-1.903c-0.557-1.478,0.243-3.204,1.785-3.854
	c1.467-0.617,3.243,0.088,3.899,1.633c0.226,0.535,0.563,0.801,1.044,1.025c3.297,1.543,6.586,3.102,9.878,4.653
	c0.262,0.122,0.529,0.235,0.635,0.282c1.65-1.854,3.234-3.633,4.895-5.496c-0.696-1.125-1.489-2.412-2.285-3.696
	c-1.444-2.327-2.878-4.66-4.35-6.97c-0.187-0.293-0.543-0.551-0.876-0.666c-1.396-0.486-2.423-1.817-2.339-3.131
	c0.09-1.414,1.283-2.694,2.75-2.946c1.807-0.313,3.77,1.663,3.387,3.475c-0.128,0.606-0.016,1.052,0.3,1.556
	c2.081,3.312,4.146,6.634,6.183,9.976c0.328,0.536,0.584,0.601,1.15,0.341c7.531-3.438,16.398-1.839,22.031,4.229
	c5.015,5.399,6.56,11.803,4.563,18.956c-0.215,0.768-0.133,1.093,0.619,1.416c1.793,0.771-0.459,4.668,1.312,5.496
	c1.343,0.629,2.428,1.543,3.18,2.832c0.394,0.678,0.271,0.944-0.511,1.099c-1.475,0.288-2.865-0.003-4.201-0.632
	c-2.033-0.955-0.062-4.935-2.1-5.896c-0.727,0.958-1.381,1.935-2.153,2.802c-0.793,0.894-1.678,1.709-2.577,2.496
	c-0.38,0.333-0.415,0.549-0.15,0.959c0.986,1.547,1.935,3.114,2.908,4.67c0.76,1.215,1.142,2.532,1.115,3.963
	c-0.015,0.847-0.352,1.062-1.104,0.72c-1.283-0.581-2.293-1.48-3.039-2.675c-0.957-1.535-1.928-3.062-2.85-4.619
	c-0.314-0.529-0.56-0.662-1.189-0.398c-6.574,2.743-12.882,2.188-18.813-1.768c-2.905-1.937-5.065-4.576-6.562-7.744
	c-0.134-0.284-0.268-0.568-0.441-0.936c-0.524,0.252-1.023,0.484-1.515,0.729c-0.874,0.436-1.757,0.859-2.616,1.322
	c-2.88,1.559-4.284,5.021-3.326,8.158c0.951,3.107,4.109,5.283,7.321,4.905c1.497-0.177,2.973-0.565,4.44-0.933
	c4.682-1.17,9.104,1.564,10.079,6.292c0.286,1.389,0.223,2.774-0.246,4.124c-0.132,0.381-0.229,0.912-0.803,0.716
	c-0.554-0.188-0.355-0.649-0.222-1.054c1.574-4.758-1.95-9.562-6.896-9.258c-1.591,0.099-3.171,0.551-4.729,0.948
	c-5.342,1.364-10.448-2.594-10.265-8.091c0.103-3.094,1.583-5.436,4.366-6.884c1.17-0.608,2.351-1.195,3.536-1.777
	c0.323-0.159,0.497-0.299,0.366-0.722c-1.264-4.072-1.191-8.132,0.171-12.169C-369.604,98.656-369.607,98.556-369.588,98.412
	 M-355.29,123.022c-1.395-13.528,2.83-24.778,12.777-33.991c-0.877-0.389-1.677-0.729-2.462-1.094
	c-0.502-0.235-0.869-0.158-1.297,0.232c-3.916,3.579-6.956,7.781-9.083,12.646c-2.905,6.643-3.747,13.553-2.647,20.706
	c0.039,0.252,0.127,0.631,0.295,0.7C-356.957,122.526-356.17,122.741-355.29,123.022 M-359.124,121.726
	c-1.68-13.594,2.3-24.981,12.188-34.479c-1.333-0.146-2.487-0.304-3.646-0.373c-0.312-0.019-0.723,0.157-0.949,0.383
	c-3.273,3.259-5.85,7-7.723,11.228c-1.882,4.246-2.998,8.689-3.116,13.323c-0.065,2.525,0.256,5.065,0.433,7.596
	c0.02,0.287,0.148,0.675,0.361,0.822C-360.846,120.737-360.056,121.167-359.124,121.726 M-334.266,98.027
	c-0.375,0.237-0.562,0.349-0.739,0.471c-2.596,1.808-5.37,3.279-8.334,4.39c-2.612,0.979-5.285,1.71-8.055,2.077
	c-0.315,0.042-0.812,0.146-0.886,0.346c-0.469,1.263-0.84,2.559-1.274,3.938c0.427,0,0.668,0.009,0.907-0.001
	c3.01-0.134,5.959-0.622,8.846-1.483c3.678-1.098,7.104-2.721,10.262-4.901c0.158-0.107,0.358-0.363,0.327-0.504
	C-333.529,100.943-333.891,99.541-334.266,98.027 M-351.751,103.79c0.052,0.073,0.104,0.149,0.155,0.226
	c1.908-0.463,3.838-0.854,5.72-1.404c3.779-1.108,7.259-2.861,10.455-5.164c0.2-0.143,0.44-0.549,0.372-0.695
	c-0.67-1.41-1.535-2.696-2.639-3.848c-0.235,0.16-0.418,0.277-0.596,0.404c-2.644,1.877-5.437,3.531-8.524,4.482
	c-1.946,0.602-3.128,1.675-3.806,3.507C-350.928,102.152-351.367,102.961-351.751,103.79 M-340.111,119.776
	c-0.035-0.094-0.068-0.188-0.103-0.279c-0.166-0.1-0.328-0.204-0.497-0.299c-3.693-2.035-7.012-4.564-9.793-7.734
	c-0.781-0.893-1.541-1.281-2.688-1.124c-0.418,0.058-0.614,0.177-0.67,0.578c-0.157,1.11-0.352,2.22-0.467,3.336
	c-0.028,0.269,0.113,0.632,0.301,0.835c2.55,2.742,5.465,5.027,8.734,6.855c0.229,0.127,0.605,0.231,0.807,0.131
	C-343.012,121.341-341.566,120.551-340.111,119.776 M-350.093,110.185c0.051,0.131,0.06,0.209,0.103,0.258
	c2.992,3.393,6.51,6.106,10.524,8.182c0.124,0.064,0.367,0.082,0.452,0.006c1.354-1.204,2.521-2.561,3.4-4.177
	c-0.131-0.093-0.205-0.159-0.289-0.202c-2.773-1.364-5.349-3.034-7.738-4.997c-0.203-0.165-0.592-0.213-0.866-0.163
	c-0.862,0.153-1.707,0.4-2.565,0.571C-348.064,109.858-349.066,110.01-350.093,110.185 M-333.037,104.138
	c-3.156,1.536-6.297,3.065-9.476,4.612c2.229,1.835,4.731,3.43,7.511,4.713C-333.462,110.433-332.807,107.319-333.037,104.138
	 M-361.937,102.236c0.102-0.144,0.157-0.193,0.183-0.258c0.779-1.893,1.565-3.781,2.316-5.687c0.082-0.203,0.037-0.528-0.076-0.728
	c-0.445-0.783-0.94-1.541-1.418-2.309c-0.525-0.842-1.052-1.684-1.575-2.518c-1.386,0.783-1.543,1.062-1.426,2.498
	c0.043,0.535,0.096,1.069,0.171,1.603C-363.409,97.333-362.83,99.77-361.937,102.236 M-354.464,116.541
	c-0.012,0.155-0.053,0.392-0.042,0.623c0.087,1.731,0.213,3.464,0.263,5.196c0.021,0.705,0.338,0.965,0.974,0.967
	c1.319,0.005,2.644,0.068,3.956-0.021c0.984-0.066,1.955-0.339,2.855-0.505C-349.17,120.679-351.812,118.612-354.464,116.541
	 M-338.393,92.049c-0.952-0.749-1.797-1.404-2.629-2.072c-0.354-0.285-0.633-0.238-0.938,0.084
	c-1.428,1.502-2.896,2.971-4.293,4.502c-0.68,0.746-1.233,1.607-1.844,2.418C-344.583,95.941-341.445,94.279-338.393,92.049
	 M-380.063,92.246c5.391,2.538,10.733,5.057,16.153,7.609c-0.101-1.134-0.385-1.863-1.475-2.354
	c-4.449-2.005-8.839-4.137-13.252-6.218c-0.253-0.119-0.517-0.216-0.784-0.325C-379.639,91.396-379.822,91.765-380.063,92.246
	 M-369.016,78.181c2.983,4.804,5.955,9.591,8.928,14.378c0.021-0.94-0.088-1.812-0.23-2.676c-0.05-0.302-0.126-0.626-0.284-0.882
	c-2.249-3.663-4.514-7.315-6.777-10.972c-0.125-0.202-0.266-0.395-0.419-0.62C-368.208,77.668-368.573,77.898-369.016,78.181
	 M-362.588,105.018c-2.317-0.578-4.588-1.145-7.029-1.752c0,0.855-0.033,1.678,0.025,2.493c0.013,0.182,0.316,0.418,0.533,0.499
	c1.501,0.565,3.012,1.11,4.528,1.636c0.423,0.148,0.875,0.215,1.35,0.324C-362.975,107.11-362.785,106.085-362.588,105.018
	 M-363.517,113.153c0.037-0.789,0.066-1.344,0.086-1.9c0.022-0.626,0.277-1.432-0.016-1.83c-0.299-0.406-1.144-0.404-1.743-0.605
	c-1.406-0.472-2.807-0.957-4.419-1.508c0.347,1.327,0.657,2.541,0.988,3.75c0.032,0.116,0.181,0.239,0.303,0.287
	C-366.776,111.937-365.23,112.512-363.517,113.153 M-362.576,103.838c-0.399-1.518-0.743-2.834-2.424-3.338
	c-1.213-0.362-2.331-1.041-3.584-1.621c-0.254,0.986-0.514,1.872-0.69,2.775c-0.032,0.162,0.233,0.508,0.426,0.572
	c1.132,0.37,2.277,0.711,3.431,1.01C-364.508,103.471-363.579,103.629-362.576,103.838 M-356.614,87.527
	c-0.833,0.334-1.585,0.605-2.305,0.945c-0.168,0.08-0.323,0.396-0.316,0.598c0.024,0.728,0.085,1.459,0.197,2.18
	c0.153,0.986,0.364,1.968,0.581,3.113c0.891-1.314,1.673-2.454,2.431-3.608c0.093-0.142,0.118-0.378,0.08-0.55
	C-356.139,89.355-356.364,88.513-356.614,87.527 M-382.504,88.288c-1.216,0.009-1.994,0.807-1.98,2.032
	c0.013,1.164,0.819,1.979,1.974,1.996c1.129,0.016,2.068-0.918,2.042-2.029C-380.496,89.066-381.296,88.279-382.504,88.288
	 M114.238-383.266c-8.396-0.06-13.959,5.427-13.969,13.776c-0.01,8.119,5.457,13.815,13.377,13.939
	c8.277,0.13,14.176-5.466,14.356-13.625C128.188-377.347,122.46-383.207,114.238-383.266 M-363.221,118.914
	c0.025-0.038,0.074-0.077,0.072-0.112c-0.103-1.413-0.204-2.824-0.33-4.234c-0.015-0.158-0.155-0.396-0.29-0.44
	c-1.347-0.46-2.706-0.888-4.097-1.336C-367.347,114.582-364.663,118.098-363.221,118.914 M-333.371,112.581
	c-0.242,0.529-0.422,0.92-0.615,1.339c0.09,0.063,0.142,0.119,0.205,0.147c2.188,1.03,0.359,5.113,2.573,6.084
	c0.654,0.285,1.427,0.305,2.146,0.444c0.043-0.12,0.085-0.239,0.128-0.356C-331.295,117.968-330.547,114.267-333.371,112.581
	 M-341.795,122.091c1.25,1.973,2.419,3.893,3.672,5.752c0.389,0.578,1.008,1.004,1.521,1.498c0.087-0.066,0.173-0.135,0.26-0.203
	c-0.571-3.021-2.837-5.156-4.147-7.874C-340.978,121.573-341.343,121.805-341.795,122.091 M-365.062,93.268
	c-0.063-0.022-0.126-0.047-0.19-0.068c-0.562,0.769-1.123,1.539-1.742,2.388c0.852,0.397,1.567,0.733,2.407,1.127
	C-364.758,95.467-364.91,94.367-365.062,93.268 M-355.027,89.455c0.788-0.898,1.469-1.678,2.15-2.456l-0.115-0.165
	c-0.826,0.141-1.65,0.279-2.542,0.431C-355.356,88.031-355.21,88.66-355.027,89.455"/>
<g>
	<defs>
		<rect id="SVGID_5_" x="-212.759" y="17.984" width="52.012" height="52.005"/>
	</defs>
	<clipPath id="SVGID_6_">
		<use xlink:href="#SVGID_5_"  overflow="visible"/>
	</clipPath>
	<linearGradient id="SVGID_7_" gradientUnits="userSpaceOnUse" x1="-186.7534" y1="53.7158" x2="-186.7534" y2="52.7158">
		<stop  offset="0" style="stop-color:#F05351"/>
		<stop  offset="1" style="stop-color:#E74C6D"/>
	</linearGradient>
	<path clip-path="url(#SVGID_6_)" fill="url(#SVGID_7_)" d="M-168.017,19.781c-0.125,0.279-0.264,0.895-0.62,1.333
		c-1.019,1.255-2.107,2.455-3.206,3.645c-0.599,0.649-0.632,1.03,0.026,1.624c0.804,0.724,1.622,1.433,2.423,2.162
		c0.238,0.216,0.453,0.463,0.647,0.72c0.473,0.631,1.017,0.637,1.574,0.091c1.093-1.07,2.204-2.123,3.349-3.134
		c0.323-0.285,0.775-0.468,1.2-0.588c1.196-0.337,2.238,0.686,1.755,1.825c-0.422,0.992-1.083,1.9-1.75,2.76
		c-0.582,0.75-1.312,1.386-1.99,2.061c-0.579,0.575-0.6,0.958-0.024,1.56c0.759,0.796,1.525,1.585,2.298,2.369
		c1.08,1.097,1.085,2.692-0.028,3.759c-0.742,0.71-1.525,1.379-2.285,2.07c-0.666,0.605-0.664,1.103,0.013,1.719
		c0.722,0.657,1.449,1.304,2.172,1.957c1.239,1.122,1.258,2.802,0.03,3.94c-0.755,0.7-1.53,1.376-2.289,2.067
		c-0.562,0.512-0.566,1.057,0.005,1.57c0.749,0.676,1.518,1.331,2.279,1.995c1.307,1.136,1.335,2.825,0.06,4.01
		c-0.861,0.798-1.734,1.58-2.599,2.372c-0.535,0.492-0.54,0.979-0.005,1.463c1.219,1.105,2.407,2.245,3.263,3.663
		c0.298,0.493,0.543,1.079,0.601,1.643c0.101,0.969-0.798,1.714-1.739,1.41c-0.752-0.242-1.499-0.642-2.112-1.14
		c-1.017-0.828-1.933-1.782-2.874-2.7c-0.525-0.512-0.968-0.54-1.475,0.004c-0.799,0.857-1.578,1.733-2.37,2.598
		c-1.148,1.258-2.822,1.256-3.979-0.008c-0.682-0.745-1.349-1.505-2.027-2.252c-0.507-0.557-1.057-0.56-1.573,0
		c-0.695,0.757-1.374,1.529-2.064,2.292c-1.073,1.186-2.769,1.214-3.867,0.045c-0.717-0.762-1.4-1.554-2.104-2.33
		c-0.507-0.559-1.065-0.571-1.57-0.012c-0.699,0.779-1.374,1.579-2.066,2.362c-1.047,1.187-2.715,1.249-3.821,0.11
		c-0.854-0.88-1.658-1.809-2.489-2.709c-0.525-0.571-0.942-0.528-1.509,0.003c-1.166,1.097-2.355,2.169-3.569,3.211
		c-0.317,0.271-0.746,0.443-1.151,0.575c-0.583,0.19-1.154,0.105-1.595-0.366c-0.432-0.462-0.601-1.06-0.298-1.6
		c0.516-0.92,1.09-1.819,1.749-2.64c0.606-0.755,1.354-1.397,2.043-2.085c0.467-0.466,0.484-0.926,0.026-1.41
		c-1.002-1.062-2.006-2.12-3.012-3.177c-0.458-0.48-0.924-0.474-1.385,0.034c-1.115,1.233-2.255,2.441-3.688,3.316
		c-0.364,0.223-0.765,0.413-1.175,0.526c-1.226,0.339-2.313-0.729-1.824-1.892c0.403-0.958,1.05-1.838,1.702-2.662
		c0.601-0.758,1.346-1.402,2.041-2.085c0.578-0.567,0.596-0.968,0.014-1.556c-0.849-0.859-1.705-1.713-2.564-2.563
		c-1.165-1.152-1.156-2.747,0.043-3.868c0.751-0.701,1.53-1.375,2.289-2.068c0.56-0.51,0.565-1.062,0.009-1.576
		c-0.756-0.696-1.528-1.375-2.291-2.064c-1.194-1.079-1.227-2.75-0.053-3.864c0.759-0.721,1.555-1.4,2.327-2.106
		c0.584-0.534,0.579-1.073-0.02-1.608c-0.753-0.672-1.523-1.327-2.281-1.994c-1.275-1.121-1.298-2.809-0.046-3.975
		c0.858-0.799,1.733-1.581,2.599-2.372c0.56-0.51,0.521-0.951,0-1.507c-1.104-1.183-2.202-2.374-3.232-3.62
		c-0.326-0.395-0.537-0.958-0.611-1.472c-0.159-1.095,0.788-1.923,1.841-1.575c0.736,0.244,1.471,0.624,2.074,1.109
		c1.05,0.844,2.011,1.802,2.985,2.738c0.628,0.601,1.027,0.614,1.628-0.04c0.756-0.825,1.508-1.653,2.261-2.479
		c1.172-1.286,2.836-1.287,4.014,0.002c0.669,0.733,1.326,1.476,1.992,2.211c0.524,0.578,1.085,0.582,1.609,0.008
		c0.68-0.748,1.349-1.504,2.029-2.25c1.129-1.241,2.792-1.253,3.938-0.019c0.688,0.74,1.352,1.502,2.03,2.25
		c0.546,0.601,1.092,0.599,1.647-0.008c0.681-0.746,1.349-1.504,2.032-2.248c1.159-1.265,2.78-1.295,3.996-0.083
		c0.881,0.879,1.757,1.762,2.641,2.639c0.578,0.574,1.021,0.566,1.552-0.037c1.037-1.181,2.077-2.369,3.433-3.192
		c0.488-0.297,1.084-0.507,1.65-0.559C-168.568,18.036-168.03,18.665-168.017,19.781 M-211.031,60.846
		c0.045,0.038,0.09,0.077,0.135,0.115c0.155-0.087,0.332-0.151,0.461-0.268c1.125-1.012,2.331-1.951,3.333-3.072
		c1.113-1.246,2.887-0.935,3.757-0.085c0.902,0.882,1.855,1.713,2.786,2.566c0.645,0.592,1.102,0.563,1.687-0.107
		c0.676-0.775,1.334-1.566,2.032-2.32c1.053-1.138,2.024-1.228,3.294-0.341c0.221,0.154,0.445,0.315,0.629,0.51
		c0.667,0.709,1.321,1.431,1.975,2.151c0.537,0.591,1.067,0.603,1.605,0.012c0.669-0.732,1.325-1.477,1.993-2.211
		c1.195-1.313,2.851-1.305,4.05,0.018c0.642,0.708,1.279,1.422,1.92,2.131c0.605,0.674,1.101,0.672,1.718-0.003
		c0.778-0.854,1.562-1.701,2.331-2.562c0.986-1.1,2.808-1.13,3.787-0.039c0.948,1.055,2.055,1.968,3.105,2.926
		c0.213,0.194,0.492,0.314,0.741,0.471c0.032-0.032,0.064-0.065,0.097-0.097c-0.157-0.254-0.279-0.539-0.477-0.754
		c-0.998-1.087-2.031-2.143-3.019-3.238c-0.279-0.31-0.54-0.69-0.655-1.083c-0.293-0.992,0.04-1.849,0.782-2.541
		c0.858-0.8,1.732-1.581,2.598-2.372c0.63-0.575,0.623-1.111-0.025-1.683c-0.73-0.644-1.471-1.276-2.199-1.921
		c-1.33-1.175-1.35-2.843-0.044-4.048c0.689-0.637,1.395-1.255,2.09-1.884c0.757-0.686,0.757-1.156,0.012-1.828
		c-0.697-0.627-1.396-1.256-2.092-1.882c-1.29-1.159-1.303-2.839-0.021-4.016c0.717-0.659,1.448-1.302,2.169-1.957
		c0.667-0.604,0.665-1.103-0.007-1.719c-0.838-0.768-1.664-1.549-2.522-2.293c-1.048-0.91-1.229-2.833-0.061-3.834
		c0.886-0.758,1.645-1.666,2.433-2.533c0.327-0.363,0.579-0.794,0.867-1.194c-0.033-0.032-0.066-0.063-0.099-0.095
		c-0.222,0.142-0.475,0.251-0.658,0.429c-0.972,0.937-1.914,1.905-2.896,2.831c-0.303,0.288-0.666,0.573-1.054,0.698
		c-1.025,0.329-1.964,0.078-2.737-0.678c-0.941-0.92-1.859-1.865-2.798-2.788c-0.528-0.518-1.047-0.502-1.542,0.037
		c-0.707,0.77-1.399,1.555-2.105,2.327c-1.178,1.284-2.834,1.277-4.015-0.015c-0.669-0.733-1.324-1.476-1.992-2.21
		c-0.53-0.582-1.074-0.583-1.606,0c-0.669,0.733-1.325,1.477-1.993,2.21c-1.191,1.307-2.856,1.294-4.048-0.027
		c-0.629-0.695-1.257-1.392-1.883-2.09c-0.635-0.708-1.136-0.706-1.79,0.009c-0.766,0.841-1.542,1.67-2.295,2.521
		c-0.984,1.111-2.856,1.09-3.791,0.033c-0.938-1.061-2.054-1.966-3.105-2.925c-0.213-0.193-0.492-0.318-0.74-0.474
		c-0.03,0.034-0.06,0.068-0.091,0.103c0.163,0.272,0.292,0.572,0.493,0.81c0.928,1.104,1.848,2.215,2.823,3.274
		c1.166,1.267,1.142,2.704-0.139,3.883c-0.795,0.733-1.6,1.457-2.398,2.188c-0.771,0.705-0.759,1.155,0.046,1.859
		c0.706,0.616,1.416,1.229,2.12,1.851c1.299,1.146,1.309,2.832,0.021,4.01c-0.719,0.657-1.447,1.305-2.171,1.955
		c-0.658,0.593-0.656,1.119,0.011,1.723c0.708,0.643,1.42,1.279,2.131,1.918c1.302,1.173,1.321,2.827,0.036,4.012
		c-0.716,0.66-1.447,1.304-2.169,1.957c-0.668,0.604-0.671,1.111-0.006,1.723c0.864,0.792,1.736,1.574,2.598,2.37
		c1.132,1.043,1.141,2.607,0.05,3.678c-0.734,0.719-1.461,1.447-2.151,2.208C-210.184,59.699-210.592,60.286-211.031,60.846
		 M-168.396,31.638c0.03,0.034,0.061,0.067,0.092,0.102c-0.422,0.476-0.816,0.982-1.273,1.421c-0.625,0.599-1.304,1.14-1.945,1.72
		c-0.617,0.559-0.621,1.091-0.014,1.648c0.73,0.672,1.475,1.327,2.209,1.993c1.269,1.15,1.282,2.812,0.023,3.976
		c-0.742,0.686-1.504,1.351-2.25,2.03c-0.578,0.525-0.579,1.082,0.011,1.61c0.726,0.649,1.464,1.285,2.201,1.922
		c1.385,1.197,1.409,2.875,0.054,4.123c-0.85,0.781-1.709,1.551-2.557,2.335c-0.525,0.483-0.512,0.933-0.005,1.424
		c0.697,0.68,1.417,1.341,2.065,2.064c0.759,0.843,1.507,1.716,1.802,2.854c0.284,1.097-0.475,1.998-1.59,1.832
		c-0.497-0.073-1.042-0.271-1.424-0.586c-1.25-1.027-2.45-2.116-3.636-3.218c-0.62-0.574-1.009-0.612-1.587,0.013
		c-0.771,0.835-1.531,1.681-2.301,2.518c-1.179,1.283-2.839,1.277-4.015-0.015c-0.666-0.734-1.325-1.478-1.992-2.212
		c-0.531-0.586-1.066-0.586-1.606,0.006c-0.657,0.718-1.302,1.449-1.958,2.169c-1.227,1.349-2.867,1.35-4.085,0.005
		c-0.666-0.735-1.324-1.478-1.993-2.21c-0.49-0.538-1.031-0.55-1.537-0.018c-0.51,0.534-1.003,1.086-1.491,1.642
		c-0.57,0.649-1.093,1.353-2.019,1.561c0.129,1.057-0.357,1.753-1.084,2.424c-0.911,0.841-1.707,1.806-2.533,2.735
		c-0.231,0.259-0.394,0.58-0.587,0.873c0.295-0.024,0.537-0.11,0.71-0.269c1.118-1.019,2.218-2.055,3.33-3.079
		c0.222-0.204,0.449-0.426,0.715-0.556c1.007-0.492,2.129-0.245,2.95,0.636c0.799,0.858,1.581,1.731,2.373,2.597
		c0.577,0.631,1.126,0.629,1.68-0.006c0.641-0.733,1.276-1.472,1.92-2.202c1.195-1.355,2.856-1.366,4.085-0.023
		c0.658,0.718,1.301,1.451,1.957,2.171c0.56,0.612,1.078,0.61,1.645-0.01c0.657-0.719,1.305-1.446,1.957-2.172
		c1.181-1.312,2.853-1.315,4.05,0c0.657,0.722,1.302,1.451,1.957,2.172c0.565,0.622,1.082,0.625,1.642,0.012
		c0.816-0.892,1.621-1.793,2.444-2.679c1.002-1.077,2.557-1.088,3.606-0.059c0.875,0.858,1.755,1.714,2.664,2.536
		c0.384,0.345,0.849,0.601,1.275,0.896c0.041-0.044,0.081-0.087,0.119-0.131c-0.159-0.253-0.284-0.537-0.481-0.757
		c-0.933-1.025-1.787-2.154-2.853-3.019c-1.305-1.058-1.03-3.034,0.001-3.887c0.874-0.724,1.687-1.522,2.526-2.288
		c0.681-0.622,0.672-1.137-0.036-1.754c-0.719-0.63-1.442-1.254-2.159-1.886c-1.328-1.172-1.344-2.843-0.032-4.05
		c0.716-0.66,1.449-1.301,2.171-1.956c0.64-0.583,0.64-1.098-0.003-1.683c-0.719-0.655-1.447-1.303-2.171-1.954
		c-1.285-1.162-1.292-2.839-0.008-4.018c0.68-0.621,1.368-1.231,2.052-1.847c0.83-0.75,0.822-1.169-0.023-1.938
		c-0.813-0.74-1.637-1.473-2.438-2.226c-1.112-1.046-1.119-2.318-0.063-3.39c0.86-0.872,1.717-1.75,2.544-2.654
		c0.337-0.369,0.592-0.812,0.886-1.223c-0.039-0.033-0.079-0.066-0.118-0.099c-0.233,0.162-0.494,0.293-0.695,0.488
		c-0.956,0.928-1.913,1.857-2.838,2.818c-0.425,0.443-0.912,0.689-1.509,0.74C-167.856,31.657-168.127,31.638-168.396,31.638"/>
	<linearGradient id="SVGID_8_" gradientUnits="userSpaceOnUse" x1="-191.8809" y1="53.7158" x2="-191.8809" y2="52.7158">
		<stop  offset="0" style="stop-color:#F05351"/>
		<stop  offset="1" style="stop-color:#E74C6D"/>
	</linearGradient>
	<path clip-path="url(#SVGID_6_)" fill="url(#SVGID_8_)" d="M-196.041,46.858c-0.11,0.404-0.186,0.719-0.281,1.025
		c-0.172,0.559-0.657,0.86-1.153,0.73c-0.421-0.111-0.616-0.588-0.469-1.162c0.232-0.906,0.466-1.812,0.707-2.717
		c0.168-0.634,0.542-0.861,1.164-0.704c0.942,0.237,1.882,0.481,2.821,0.735c0.549,0.147,0.827,0.572,0.701,1.03
		c-0.119,0.431-0.557,0.644-1.096,0.523c-0.312-0.069-0.62-0.159-1.068-0.276c0.885,1.495,2.042,2.407,3.6,2.783
		c1.306,0.315,2.575,0.168,3.786-0.425c0.098-0.049,0.19-0.104,0.289-0.146c0.487-0.207,0.981-0.072,1.179,0.319
		c0.218,0.432,0.039,0.908-0.44,1.179c-3.177,1.799-7.313,0.801-9.314-2.25C-195.734,47.325-195.852,47.146-196.041,46.858"/>
	<linearGradient id="SVGID_9_" gradientUnits="userSpaceOnUse" x1="-195.832" y1="53.7139" x2="-195.832" y2="52.714">
		<stop  offset="0" style="stop-color:#F05351"/>
		<stop  offset="1" style="stop-color:#E74C6D"/>
	</linearGradient>
	<path clip-path="url(#SVGID_6_)" fill="url(#SVGID_9_)" d="M-193.423,32.156c-0.345-0.303-0.632-0.522-0.881-0.78
		c-0.354-0.368-0.351-0.828-0.026-1.154c0.326-0.329,0.796-0.34,1.153,0.02c0.738,0.74,1.464,1.495,2.177,2.258
		c0.36,0.386,0.354,0.773-0.014,1.153c-0.728,0.751-1.469,1.49-2.218,2.22c-0.398,0.387-0.852,0.385-1.193,0.031
		c-0.323-0.337-0.315-0.77,0.046-1.155c0.242-0.258,0.509-0.494,0.845-0.817c-0.893-0.111-1.625,0.039-2.314,0.335
		c-2.156,0.928-3.308,2.584-3.455,4.928c-0.043,0.683-0.385,1.045-0.946,0.957c-0.452-0.07-0.703-0.387-0.679-0.945
		c0.106-2.524,1.237-4.482,3.36-5.834c0.583-0.372,1.251-0.648,1.916-0.845C-194.991,32.332-194.283,32.292-193.423,32.156"/>
	<linearGradient id="SVGID_10_" gradientUnits="userSpaceOnUse" x1="-182.9248" y1="53.7148" x2="-182.9248" y2="52.7149">
		<stop  offset="0" style="stop-color:#F05351"/>
		<stop  offset="1" style="stop-color:#E74C6D"/>
	</linearGradient>
	<path clip-path="url(#SVGID_6_)" fill="url(#SVGID_10_)" d="M-183.569,40.973c0.849-1.368,1.12-2.729,0.781-4.205
		c-0.348-1.516-1.17-2.688-2.506-3.499c-0.579-0.353-0.717-0.729-0.453-1.138c0.296-0.458,0.753-0.513,1.314-0.154
		c3.261,2.078,4.291,5.967,2.492,9.402c-0.05,0.093-0.097,0.188-0.192,0.375c0.391-0.1,0.696-0.178,1.001-0.255
		c0.598-0.149,0.997,0.032,1.127,0.513c0.126,0.472-0.139,0.885-0.69,1.036c-0.955,0.259-1.912,0.509-2.872,0.75
		c-0.537,0.135-0.939-0.087-1.085-0.61c-0.271-0.969-0.526-1.944-0.771-2.92c-0.138-0.551,0.116-0.988,0.596-1.094
		c0.457-0.102,0.805,0.15,0.966,0.709C-183.77,40.208-183.687,40.536-183.569,40.973"/>
	<linearGradient id="SVGID_11_" gradientUnits="userSpaceOnUse" x1="-201.2578" y1="53.7158" x2="-201.2578" y2="52.7158">
		<stop  offset="0" style="stop-color:#F05351"/>
		<stop  offset="1" style="stop-color:#E74C6D"/>
	</linearGradient>
	<path clip-path="url(#SVGID_6_)" fill="url(#SVGID_11_)" d="M-201.253,30.77c-0.42,0.454-0.734,0.823-1.078,1.161
		c-0.43,0.422-0.875,0.429-1.228,0.051c-0.322-0.343-0.297-0.796,0.101-1.195c0.342-0.343,0.713-0.659,1.167-1.075
		c-0.389-0.341-0.712-0.599-1.008-0.886c-0.553-0.539-0.622-1.008-0.229-1.386c0.405-0.392,0.809-0.322,1.381,0.265
		c0.275,0.282,0.521,0.592,0.881,1.003c0.407-0.454,0.715-0.826,1.054-1.167c0.435-0.435,0.867-0.455,1.229-0.091
		c0.348,0.349,0.32,0.81-0.1,1.233c-0.329,0.332-0.682,0.64-1.154,1.081c0.298,0.238,0.55,0.408,0.763,0.616
		c0.788,0.773,0.931,1.216,0.493,1.61c-0.461,0.417-0.808,0.458-1.646-0.487C-200.806,31.3-200.979,31.091-201.253,30.77"/>
	<linearGradient id="SVGID_12_" gradientUnits="userSpaceOnUse" x1="-179.5815" y1="53.7158" x2="-179.5815" y2="52.7158">
		<stop  offset="0" style="stop-color:#F05351"/>
		<stop  offset="1" style="stop-color:#E74C6D"/>
	</linearGradient>
	<path clip-path="url(#SVGID_6_)" fill="url(#SVGID_12_)" d="M-179.623,28.706c0.425-0.456,0.732-0.805,1.062-1.134
		c0.462-0.463,0.896-0.495,1.266-0.114c0.36,0.372,0.316,0.807-0.15,1.272c-0.318,0.317-0.654,0.618-1.045,0.984
		c0.38,0.365,0.717,0.68,1.042,1.007c0.467,0.468,0.514,0.9,0.154,1.272c-0.379,0.393-0.805,0.344-1.307-0.147
		c-0.295-0.291-0.587-0.583-0.885-0.874c-0.022-0.023-0.059-0.033-0.204-0.11c-0.31,0.347-0.629,0.738-0.986,1.092
		c-0.403,0.399-0.844,0.399-1.19,0.046c-0.337-0.342-0.323-0.791,0.072-1.19c0.34-0.346,0.71-0.662,1.218-1.127
		c-0.321-0.244-0.58-0.406-0.795-0.615c-0.799-0.778-0.916-1.183-0.499-1.612c0.44-0.453,0.827-0.343,1.651,0.497
		C-180.019,28.156-179.861,28.401-179.623,28.706"/>
	<linearGradient id="SVGID_13_" gradientUnits="userSpaceOnUse" x1="-201.2603" y1="53.7148" x2="-201.2603" y2="52.715">
		<stop  offset="0" style="stop-color:#F05351"/>
		<stop  offset="1" style="stop-color:#E74C6D"/>
	</linearGradient>
	<path clip-path="url(#SVGID_6_)" fill="url(#SVGID_13_)" d="M-202.34,51.336c-0.41-0.389-0.729-0.682-1.034-0.986
		c-0.477-0.476-0.528-0.951-0.156-1.312c0.367-0.356,0.833-0.296,1.311,0.191c0.303,0.307,0.584,0.633,0.949,1.031
		c0.392-0.416,0.713-0.775,1.054-1.114c0.419-0.417,0.886-0.446,1.233-0.1c0.347,0.348,0.318,0.815-0.098,1.232
		c-0.33,0.332-0.681,0.642-1.149,1.079c0.381,0.329,0.718,0.593,1.025,0.889c0.526,0.508,0.596,0.972,0.232,1.348
		c-0.372,0.382-0.841,0.319-1.349-0.193c-0.292-0.295-0.568-0.603-0.899-0.955c-0.381,0.374-0.72,0.71-1.063,1.041
		c-0.444,0.432-0.926,0.467-1.273,0.098c-0.33-0.352-0.288-0.81,0.137-1.233C-203.092,52.022-202.744,51.713-202.34,51.336"/>
	<path clip-path="url(#SVGID_6_)" d="M-179.604,52.393c-0.398,0.433-0.715,0.801-1.059,1.142c-0.395,0.393-0.852,0.407-1.192,0.072
		c-0.348-0.342-0.343-0.792,0.044-1.193c0.337-0.349,0.702-0.67,1.233-1.171c-0.316-0.229-0.604-0.39-0.831-0.61
		c-0.771-0.743-0.876-1.142-0.463-1.572c0.421-0.438,0.848-0.32,1.616,0.455c0.213,0.216,0.408,0.449,0.666,0.732
		c0.4-0.422,0.721-0.784,1.067-1.124c0.412-0.404,0.9-0.417,1.235-0.06c0.331,0.353,0.305,0.786-0.097,1.195
		c-0.339,0.344-0.698,0.669-1.113,1.065c0.415,0.396,0.786,0.732,1.134,1.089c0.392,0.402,0.402,0.852,0.055,1.193
		c-0.332,0.33-0.809,0.314-1.197-0.063C-178.854,53.203-179.179,52.842-179.604,52.393"/>
</g>
</svg>
