<?xml version="1.0" encoding="utf-8"?>
<!-- Generator: Adobe Illustrator 16.0.0, SVG Export Plug-In . SVG Version: 6.00 Build 0)  -->
<!DOCTYPE svg PUBLIC "-//W3C//DTD SVG 1.1//EN" "http://www.w3.org/Graphics/SVG/1.1/DTD/svg11.dtd">
<svg version="1.1" id="Layer_1" xmlns="http://www.w3.org/2000/svg" xmlns:xlink="http://www.w3.org/1999/xlink" x="0px" y="0px"
	 width="69px" height="68px" viewBox="0 0 69 68" enable-background="new 0 0 69 68" xml:space="preserve">
<g>
	<g>
		<defs>
			<rect id="SVGID_1_" x="-166.931" y="67.826" width="59.829" height="58.004"/>
		</defs>
		<clipPath id="SVGID_2_">
			<use xlink:href="#SVGID_1_"  overflow="visible"/>
		</clipPath>
		
			<linearGradient id="SVGID_3_" gradientUnits="userSpaceOnUse" x1="-10.9331" y1="-273.8271" x2="48.8955" y2="-273.8271" gradientTransform="matrix(1 0 0 -1 -156 -177)">
			<stop  offset="0.2063" style="stop-color:#F26B59"/>
			<stop  offset="1" style="stop-color:#E74C6D"/>
		</linearGradient>
		<path clip-path="url(#SVGID_2_)" fill="url(#SVGID_3_)" d="M-157.778,103.891c-0.832,3.687-1.641,7.287-2.455,10.888
			c-0.692,3.07-1.377,6.143-2.083,9.21c-0.379,1.65-0.972,2.062-2.4,1.739c-1.554-0.351-1.915-0.969-1.527-2.698
			c1.344-5.993,2.698-11.983,4.045-17.976c0.11-0.49,0.19-0.987,0.315-1.639c-1.701-0.258-3.322-0.503-5.05-0.766
			c0.144-1.101,0.274-2.085,0.426-3.239c1.219,0.132,2.354,0.253,3.751,0.401c-1.383-3.322-2.697-6.478-4.08-9.802
			c0.979-0.429,1.881-0.826,2.876-1.263c0.288,0.388,0.542,0.733,0.849,1.147c0.332-0.203,0.682-0.393,1.005-0.621
			c8.44-5.933,16.903-11.836,25.313-17.812c11.067-7.867,25.975-2.375,29.19,10.796c2.371,9.716-3.962,19.945-13.739,22.192
			c-0.594,0.136-1.19,0.256-1.805,0.387c-0.152,1.127-0.306,2.261-0.473,3.49c-1.411-0.161-2.703-0.308-4.205-0.479
			c0.757,3.418,1.484,6.706,2.216,9.994c0.407,1.834,0.832,3.663,1.229,5.499c0.312,1.438-0.104,2.043-1.563,2.388
			c-1.264,0.299-2.061-0.088-2.357-1.425c-1.165-5.253-2.378-10.495-3.515-15.755c-0.198-0.917-0.519-1.339-1.52-1.464
			C-141.438,106.063-149.538,104.976-157.778,103.891 M-118.282,94.026c-1.872-1.915-3.744-3.833-5.597-5.728
			c-0.634,0.303-1.078,0.518-1.465,0.7v13.693c4.174-0.095,7.677-1.571,10.681-4.289c0.145-0.131,0.121-0.447,0.176-0.676
			c0.39-0.084,0.935-0.032,1.146-0.272c2.552-2.927,3.911-6.32,3.943-10.385c-4.469,0-8.828-0.01-13.189,0.021
			c-0.263,0.002-0.677,0.283-0.743,0.516c-0.089,0.307,0.016,0.738,0.184,1.033c0.193,0.342,0.559,0.583,0.831,0.885
			C-120.969,91.022-119.625,92.525-118.282,94.026 M-135.244,96.094c-0.682,0.578-1.365,1.154-2.133,1.807
			c3.409,3.121,6.969,4.709,11.336,4.79c0-4.476,0.027-8.774-0.016-13.073c-0.015-1.197-0.876-1.265-1.811-1.033
			c-0.138-0.509-0.275-1.017-0.38-1.4h-13.77c0.053,4.23,1.604,7.679,4.358,10.626C-136.78,97.187-136.01,96.64-135.244,96.094
			 M-161.874,90.493c7.971,3.327,15.64,6.526,23.308,9.727c-6.509-7.29-7.517-15.156-2.819-24.138
			C-148.418,81.029-155.01,85.665-161.874,90.493 M-162.138,91.564c-0.102,0.08-0.203,0.159-0.304,0.238
			c1.133,2.686,2.245,5.384,3.433,8.047c0.138,0.31,0.684,0.565,1.071,0.619c7.643,1.033,15.29,2.033,22.938,3.031
			c0.285,0.038,0.581,0.005,0.873,0.005c0.008-0.077,0.017-0.153,0.025-0.229C-143.447,99.372-152.792,95.469-162.138,91.564
			 M-109.395,86.403c-0.196-4.317-1.692-7.91-4.868-11.294c-2.888,3.002-5.661,5.961-8.536,8.818
			c-0.848,0.84-0.987,1.527-0.28,2.476H-109.395z M-137.172,75.086c-3.138,3.456-4.708,7.009-4.825,11.287h14.049
			c-0.075-0.697,0.094-1.533-0.245-1.898C-131.085,81.349-134.065,78.309-137.172,75.086 M-136.962,74.533
			c3.162,3.179,6.176,6.248,9.258,9.246c0.318,0.309,1.041,0.201,1.552,0.283V70.057C-130.317,70.245-133.846,71.641-136.962,74.533
			 M-125.428,70.061c0,4.342-0.019,8.502,0.026,12.663c0.005,0.44,0.296,1.13,0.62,1.245c0.354,0.129,1.02-0.151,1.344-0.465
			c2.586-2.518,5.124-5.085,7.675-7.639c0.415-0.415,0.809-0.852,1.271-1.341C-117.635,71.653-121.159,70.224-125.428,70.061"/>
	</g>
</g>
<linearGradient id="SVGID_4_" gradientUnits="userSpaceOnUse" x1="331.0674" y1="-12.5142" x2="331.5727" y2="-12.5142" gradientTransform="matrix(1 0 0 -1 -156 -177)">
	<stop  offset="0" style="stop-color:#F05351"/>
	<stop  offset="1" style="stop-color:#E74C6D"/>
</linearGradient>
<path fill="url(#SVGID_4_)" d="M158.137,21.297c-0.207-0.108-0.412-0.225-0.624-0.327c-3.344-1.578-6.685-3.163-10.038-4.72
	c-0.287-0.133-0.697-0.179-0.997-0.086c-1.624,0.489-3.271-0.284-3.867-1.871c-0.548-1.452,0.239-3.149,1.755-3.788
	c1.441-0.607,3.187,0.086,3.832,1.604c0.222,0.526,0.553,0.787,1.025,1.008c3.24,1.517,6.473,3.048,9.708,4.573
	c0.258,0.12,0.52,0.231,0.624,0.277c1.622-1.822,3.179-3.57,4.811-5.401c-0.684-1.106-1.463-2.371-2.245-3.633
	c-1.419-2.287-2.829-4.58-4.275-6.85c-0.185-0.288-0.534-0.541-0.86-0.654c-1.373-0.478-2.382-1.786-2.299-3.077
	c0.088-1.39,1.26-2.648,2.702-2.896c1.776-0.308,3.705,1.634,3.329,3.415c-0.127,0.596-0.016,1.034,0.295,1.529
	c2.045,3.254,4.074,6.52,6.076,9.804c0.322,0.527,0.574,0.59,1.131,0.335c7.4-3.378,16.115-1.807,21.651,4.156
	c4.929,5.307,6.447,11.6,4.485,18.63c-0.211,0.754-0.131,1.074,0.608,1.392c1.762,0.757-0.451,4.588,1.289,5.401
	c1.319,0.618,2.386,1.517,3.125,2.783c0.387,0.666,0.266,0.929-0.502,1.08c-1.449,0.283-2.816-0.003-4.129-0.621
	c-1.998-0.938-0.062-4.85-2.063-5.794c-0.714,0.941-1.357,1.901-2.116,2.754c-0.779,0.878-1.649,1.679-2.533,2.453
	c-0.373,0.327-0.408,0.539-0.147,0.942c0.969,1.52,1.901,3.061,2.857,4.59c0.747,1.193,1.122,2.488,1.097,3.895
	c-0.015,0.832-0.346,1.043-1.085,0.707c-1.261-0.571-2.253-1.455-2.986-2.629c-0.94-1.509-1.895-3.01-2.801-4.539
	c-0.309-0.521-0.55-0.651-1.169-0.393c-6.461,2.696-12.661,2.15-18.489-1.736c-2.855-1.903-4.979-4.498-6.449-7.611
	c-0.133-0.279-0.264-0.559-0.434-0.92c-0.516,0.248-1.006,0.477-1.489,0.717c-0.858,0.428-1.728,0.844-2.571,1.299
	c-2.83,1.532-4.211,4.936-3.269,8.019c0.935,3.054,4.038,5.192,7.195,4.82c1.472-0.174,2.922-0.556,4.363-0.916
	c4.603-1.15,8.948,1.537,9.905,6.184c0.281,1.365,0.219,2.727-0.241,4.053c-0.129,0.375-0.225,0.896-0.79,0.704
	c-0.543-0.186-0.348-0.639-0.217-1.036c1.546-4.676-1.917-9.396-6.777-9.099c-1.564,0.098-3.117,0.542-4.648,0.933
	c-5.25,1.341-10.268-2.55-10.088-7.952c0.101-3.04,1.555-5.342,4.291-6.766c1.149-0.598,2.311-1.175,3.475-1.746
	c0.317-0.157,0.488-0.294,0.359-0.71c-1.242-4.002-1.17-7.992,0.168-11.959C158.121,21.537,158.119,21.438,158.137,21.297
	 M172.19,45.484c-1.372-13.296,2.78-24.352,12.557-33.407c-0.862-0.382-1.648-0.716-2.42-1.075
	c-0.493-0.231-0.854-0.156-1.274,0.229c-3.849,3.517-6.836,7.647-8.926,12.429c-2.855,6.528-3.683,13.319-2.602,20.35
	c0.038,0.248,0.125,0.62,0.29,0.688C170.552,44.997,171.324,45.208,172.19,45.484 M168.422,44.21
	c-1.651-13.36,2.26-24.552,11.979-33.886c-1.311-0.143-2.444-0.298-3.584-0.367c-0.306-0.018-0.71,0.155-0.933,0.376
	c-3.218,3.203-5.749,6.879-7.591,11.034c-1.849,4.173-2.945,8.54-3.062,13.095c-0.063,2.481,0.251,4.978,0.425,7.465
	c0.02,0.282,0.146,0.663,0.355,0.808C166.729,43.238,167.506,43.661,168.422,44.21 M192.853,20.919
	c-0.369,0.233-0.553,0.343-0.727,0.463c-2.552,1.776-5.278,3.223-8.19,4.314c-2.568,0.962-5.194,1.681-7.917,2.042
	c-0.31,0.042-0.797,0.144-0.87,0.34c-0.461,1.241-0.825,2.515-1.253,3.871c0.42,0,0.657,0.008,0.892-0.001
	c2.958-0.132,5.856-0.611,8.694-1.458c3.614-1.079,6.981-2.675,10.085-4.817c0.155-0.105,0.353-0.357,0.321-0.495
	C193.576,23.785,193.221,22.407,192.853,20.919 M175.668,26.582c0.051,0.072,0.103,0.147,0.152,0.223
	c1.875-0.455,3.771-0.839,5.621-1.38c3.715-1.089,7.134-2.812,10.275-5.075c0.197-0.14,0.433-0.54,0.366-0.684
	c-0.659-1.386-1.509-2.65-2.594-3.781c-0.231,0.157-0.411,0.272-0.586,0.397c-2.598,1.845-5.343,3.471-8.377,4.406
	c-1.913,0.591-3.074,1.646-3.74,3.446C176.477,24.973,176.045,25.768,175.668,26.582 M187.107,42.294
	c-0.035-0.092-0.067-0.184-0.102-0.274c-0.163-0.098-0.322-0.2-0.488-0.294c-3.63-2-6.891-4.485-9.624-7.601
	c-0.769-0.878-1.515-1.26-2.642-1.105c-0.411,0.057-0.604,0.174-0.658,0.568c-0.154,1.092-0.346,2.182-0.459,3.278
	c-0.028,0.265,0.11,0.621,0.296,0.821c2.506,2.694,5.37,4.94,8.584,6.737c0.225,0.125,0.595,0.228,0.793,0.129
	C184.257,43.832,185.677,43.056,187.107,42.294 M177.297,32.867c0.051,0.129,0.059,0.205,0.102,0.254
	c2.94,3.334,6.397,6.001,10.343,8.041c0.122,0.062,0.361,0.08,0.444,0.005c1.331-1.183,2.479-2.517,3.342-4.104
	c-0.128-0.091-0.201-0.156-0.283-0.199c-2.727-1.34-5.257-2.981-7.605-4.91c-0.2-0.163-0.582-0.21-0.852-0.161
	c-0.848,0.151-1.678,0.394-2.521,0.562C179.291,32.547,178.306,32.695,177.297,32.867 M194.06,26.924
	c-3.102,1.51-6.188,3.014-9.312,4.533c2.191,1.804,4.65,3.371,7.382,4.632C193.643,33.111,194.286,30.052,194.06,26.924
	 M165.656,25.056c0.101-0.141,0.154-0.19,0.181-0.253c0.766-1.86,1.538-3.716,2.276-5.589c0.08-0.199,0.036-0.519-0.074-0.715
	c-0.438-0.77-0.924-1.515-1.395-2.269c-0.516-0.827-1.033-1.654-1.548-2.474c-1.362,0.77-1.517,1.043-1.401,2.455
	c0.043,0.526,0.094,1.051,0.168,1.575C164.211,20.237,164.779,22.631,165.656,25.056 M173.001,39.114
	c-0.011,0.152-0.052,0.385-0.041,0.612c0.086,1.702,0.209,3.404,0.259,5.107c0.021,0.692,0.333,0.948,0.957,0.95
	c1.297,0.005,2.599,0.067,3.889-0.021c0.967-0.065,1.921-0.333,2.806-0.496C178.204,43.181,175.607,41.15,173.001,39.114
	 M188.796,15.043c-0.936-0.736-1.766-1.38-2.583-2.037c-0.349-0.28-0.622-0.234-0.923,0.083c-1.403,1.476-2.846,2.919-4.219,4.424
	c-0.668,0.733-1.212,1.58-1.812,2.376C182.712,18.869,185.796,17.235,188.796,15.043 M147.842,15.237
	c5.299,2.495,10.549,4.97,15.876,7.479c-0.099-1.114-0.378-1.831-1.45-2.313c-4.372-1.971-8.686-4.065-13.023-6.111
	c-0.248-0.117-0.508-0.212-0.771-0.32C148.26,14.402,148.08,14.764,147.842,15.237 M158.699,1.414
	c2.932,4.721,5.854,9.426,8.775,14.131c0.02-0.924-0.087-1.78-0.227-2.63c-0.049-0.296-0.124-0.615-0.279-0.867
	c-2.21-3.6-4.436-7.189-6.66-10.783c-0.123-0.199-0.262-0.388-0.412-0.61C159.494,0.91,159.135,1.136,158.699,1.414 M165.018,27.789
	c-2.277-0.568-4.51-1.125-6.908-1.722c0,0.841-0.033,1.649,0.024,2.45c0.013,0.179,0.31,0.411,0.524,0.49
	c1.475,0.556,2.959,1.092,4.449,1.607c0.416,0.146,0.859,0.212,1.327,0.319C164.637,29.846,164.824,28.838,165.018,27.789
	 M164.104,35.785c0.036-0.775,0.064-1.32,0.085-1.868c0.021-0.615,0.271-1.407-0.017-1.798c-0.294-0.399-1.124-0.397-1.713-0.596
	c-1.382-0.463-2.759-0.94-4.343-1.481c0.341,1.304,0.646,2.497,0.971,3.686c0.031,0.114,0.178,0.235,0.298,0.282
	C160.9,34.589,162.42,35.154,164.104,35.785 M165.029,26.63c-0.393-1.492-0.73-2.785-2.383-3.281
	c-1.191-0.356-2.291-1.023-3.522-1.593c-0.249,0.97-0.505,1.84-0.679,2.728c-0.031,0.159,0.229,0.499,0.42,0.562
	c1.111,0.364,2.237,0.699,3.371,0.993C163.13,26.269,164.043,26.424,165.029,26.63 M170.889,10.6
	c-0.818,0.328-1.559,0.595-2.266,0.929c-0.165,0.079-0.317,0.39-0.311,0.587c0.023,0.715,0.084,1.434,0.193,2.142
	c0.15,0.969,0.357,1.934,0.571,3.06c0.876-1.292,1.644-2.412,2.39-3.546c0.091-0.139,0.115-0.371,0.078-0.54
	C171.355,12.396,171.135,11.568,170.889,10.6 M145.443,11.347c-1.195,0.009-1.959,0.793-1.945,1.998
	c0.013,1.144,0.805,1.945,1.939,1.961c1.109,0.016,2.033-0.902,2.008-1.994C147.418,12.112,146.631,11.339,145.443,11.347
	 M251.238-388.971c-8.396-0.06-13.959,5.427-13.969,13.776c-0.01,8.119,5.457,13.815,13.377,13.939
	c8.277,0.13,14.176-5.466,14.356-13.625C265.188-383.052,259.46-388.912,251.238-388.971 M164.395,41.446
	c0.025-0.037,0.073-0.075,0.071-0.11c-0.102-1.389-0.2-2.775-0.325-4.161c-0.014-0.155-0.151-0.39-0.284-0.433
	c-1.323-0.452-2.659-0.873-4.026-1.313C160.34,37.189,162.979,40.645,164.395,41.446 M193.731,35.223
	c-0.238,0.521-0.415,0.904-0.604,1.315c0.088,0.062,0.139,0.117,0.201,0.146c2.15,1.013,0.354,5.025,2.529,5.979
	c0.643,0.28,1.402,0.299,2.108,0.437c0.042-0.118,0.084-0.235,0.126-0.351C195.771,40.517,196.507,36.879,193.731,35.223
	 M185.452,44.568c1.229,1.939,2.378,3.826,3.609,5.653c0.382,0.568,0.99,0.987,1.494,1.473c0.085-0.065,0.17-0.133,0.255-0.2
	c-0.562-2.969-2.788-5.067-4.076-7.738C186.256,44.061,185.896,44.287,185.452,44.568 M162.586,16.241
	c-0.062-0.022-0.125-0.046-0.188-0.067c-0.553,0.755-1.104,1.513-1.711,2.347c0.837,0.391,1.539,0.721,2.365,1.108
	C162.885,18.402,162.735,17.322,162.586,16.241 M172.447,12.494c0.775-0.883,1.444-1.649,2.113-2.414l-0.113-0.162
	c-0.812,0.138-1.621,0.274-2.497,0.423C172.125,11.095,172.269,11.713,172.447,12.494"/>
<g>
	<defs>
		<rect id="SVGID_5_" x="-212.759" y="17.984" width="52.012" height="52.005"/>
	</defs>
	<clipPath id="SVGID_6_">
		<use xlink:href="#SVGID_5_"  overflow="visible"/>
	</clipPath>
	<linearGradient id="SVGID_7_" gradientUnits="userSpaceOnUse" x1="-186.7534" y1="53.7158" x2="-186.7534" y2="52.7158">
		<stop  offset="0" style="stop-color:#F05351"/>
		<stop  offset="1" style="stop-color:#E74C6D"/>
	</linearGradient>
	<path clip-path="url(#SVGID_6_)" fill="url(#SVGID_7_)" d="M-168.017,19.781c-0.125,0.279-0.264,0.895-0.62,1.333
		c-1.019,1.255-2.107,2.455-3.206,3.645c-0.599,0.649-0.632,1.03,0.026,1.624c0.804,0.724,1.622,1.433,2.423,2.162
		c0.238,0.216,0.453,0.463,0.647,0.72c0.473,0.631,1.017,0.637,1.574,0.091c1.093-1.07,2.204-2.123,3.349-3.134
		c0.323-0.285,0.775-0.468,1.2-0.588c1.196-0.337,2.238,0.686,1.755,1.825c-0.422,0.992-1.083,1.9-1.75,2.76
		c-0.582,0.75-1.312,1.386-1.99,2.061c-0.579,0.575-0.6,0.958-0.024,1.56c0.759,0.796,1.525,1.585,2.298,2.369
		c1.08,1.097,1.085,2.692-0.028,3.759c-0.742,0.71-1.525,1.379-2.285,2.07c-0.666,0.605-0.664,1.103,0.013,1.719
		c0.722,0.657,1.449,1.304,2.172,1.957c1.239,1.122,1.258,2.802,0.03,3.94c-0.755,0.7-1.53,1.376-2.289,2.067
		c-0.562,0.512-0.566,1.057,0.005,1.57c0.749,0.676,1.518,1.331,2.279,1.995c1.307,1.136,1.335,2.825,0.06,4.01
		c-0.861,0.798-1.734,1.58-2.599,2.372c-0.535,0.492-0.54,0.979-0.005,1.463c1.219,1.105,2.407,2.245,3.263,3.663
		c0.298,0.493,0.543,1.079,0.601,1.643c0.101,0.969-0.798,1.714-1.739,1.41c-0.752-0.242-1.499-0.642-2.112-1.14
		c-1.017-0.828-1.933-1.782-2.874-2.7c-0.525-0.512-0.968-0.54-1.475,0.004c-0.799,0.857-1.578,1.733-2.37,2.598
		c-1.148,1.258-2.822,1.256-3.979-0.008c-0.682-0.745-1.349-1.505-2.027-2.252c-0.507-0.557-1.057-0.56-1.573,0
		c-0.695,0.757-1.374,1.529-2.064,2.292c-1.073,1.186-2.769,1.214-3.867,0.045c-0.717-0.762-1.4-1.554-2.104-2.33
		c-0.507-0.559-1.065-0.571-1.57-0.012c-0.699,0.779-1.374,1.579-2.066,2.362c-1.047,1.187-2.715,1.249-3.821,0.11
		c-0.854-0.88-1.658-1.809-2.489-2.709c-0.525-0.571-0.942-0.528-1.509,0.003c-1.166,1.097-2.355,2.169-3.569,3.211
		c-0.317,0.271-0.746,0.443-1.151,0.575c-0.583,0.19-1.154,0.105-1.595-0.366c-0.432-0.462-0.601-1.06-0.298-1.6
		c0.516-0.92,1.09-1.819,1.749-2.64c0.606-0.755,1.354-1.397,2.043-2.085c0.467-0.466,0.484-0.926,0.026-1.41
		c-1.002-1.062-2.006-2.12-3.012-3.177c-0.458-0.48-0.924-0.474-1.385,0.034c-1.115,1.233-2.255,2.441-3.688,3.316
		c-0.364,0.223-0.765,0.413-1.175,0.526c-1.226,0.339-2.313-0.729-1.824-1.892c0.403-0.958,1.05-1.838,1.702-2.662
		c0.601-0.758,1.346-1.402,2.041-2.085c0.578-0.567,0.596-0.968,0.014-1.556c-0.849-0.859-1.705-1.713-2.564-2.563
		c-1.165-1.152-1.156-2.747,0.043-3.868c0.751-0.701,1.53-1.375,2.289-2.068c0.56-0.51,0.565-1.062,0.009-1.576
		c-0.756-0.696-1.528-1.375-2.291-2.064c-1.194-1.079-1.227-2.75-0.053-3.864c0.759-0.721,1.555-1.4,2.327-2.106
		c0.584-0.534,0.579-1.073-0.02-1.608c-0.753-0.672-1.523-1.327-2.281-1.994c-1.275-1.121-1.298-2.809-0.046-3.975
		c0.858-0.799,1.733-1.581,2.599-2.372c0.56-0.51,0.521-0.951,0-1.507c-1.104-1.183-2.202-2.374-3.232-3.62
		c-0.326-0.395-0.537-0.958-0.611-1.472c-0.159-1.095,0.788-1.923,1.841-1.575c0.736,0.244,1.471,0.624,2.074,1.109
		c1.05,0.844,2.011,1.802,2.985,2.738c0.628,0.601,1.027,0.614,1.628-0.04c0.756-0.825,1.508-1.653,2.261-2.479
		c1.172-1.286,2.836-1.287,4.014,0.002c0.669,0.733,1.326,1.476,1.992,2.211c0.524,0.578,1.085,0.582,1.609,0.008
		c0.68-0.748,1.349-1.504,2.029-2.25c1.129-1.241,2.792-1.253,3.938-0.019c0.688,0.74,1.352,1.502,2.03,2.25
		c0.546,0.601,1.092,0.599,1.647-0.008c0.681-0.746,1.349-1.504,2.032-2.248c1.159-1.265,2.78-1.295,3.996-0.083
		c0.881,0.879,1.757,1.762,2.641,2.639c0.578,0.574,1.021,0.566,1.552-0.037c1.037-1.181,2.077-2.369,3.433-3.192
		c0.488-0.297,1.084-0.507,1.65-0.559C-168.568,18.036-168.03,18.665-168.017,19.781 M-211.031,60.846
		c0.045,0.038,0.09,0.077,0.135,0.115c0.155-0.087,0.332-0.151,0.461-0.268c1.125-1.012,2.331-1.951,3.333-3.072
		c1.113-1.246,2.887-0.935,3.757-0.085c0.902,0.882,1.855,1.713,2.786,2.566c0.645,0.592,1.102,0.563,1.687-0.107
		c0.676-0.775,1.334-1.566,2.032-2.32c1.053-1.138,2.024-1.228,3.294-0.341c0.221,0.154,0.445,0.315,0.629,0.51
		c0.667,0.709,1.321,1.431,1.975,2.151c0.537,0.591,1.067,0.603,1.605,0.012c0.669-0.732,1.325-1.477,1.993-2.211
		c1.195-1.313,2.851-1.305,4.05,0.018c0.642,0.708,1.279,1.422,1.92,2.131c0.605,0.674,1.101,0.672,1.718-0.003
		c0.778-0.854,1.562-1.701,2.331-2.562c0.986-1.1,2.808-1.13,3.787-0.039c0.948,1.055,2.055,1.968,3.105,2.926
		c0.213,0.194,0.492,0.314,0.741,0.471c0.032-0.032,0.064-0.065,0.097-0.097c-0.157-0.254-0.279-0.539-0.477-0.754
		c-0.998-1.087-2.031-2.143-3.019-3.238c-0.279-0.31-0.54-0.69-0.655-1.083c-0.293-0.992,0.04-1.849,0.782-2.541
		c0.858-0.8,1.732-1.581,2.598-2.372c0.63-0.575,0.623-1.111-0.025-1.683c-0.73-0.644-1.471-1.276-2.199-1.921
		c-1.33-1.175-1.35-2.843-0.044-4.048c0.689-0.637,1.395-1.255,2.09-1.884c0.757-0.686,0.757-1.156,0.012-1.828
		c-0.697-0.627-1.396-1.256-2.092-1.882c-1.29-1.159-1.303-2.839-0.021-4.016c0.717-0.659,1.448-1.302,2.169-1.957
		c0.667-0.604,0.665-1.103-0.007-1.719c-0.838-0.768-1.664-1.549-2.522-2.293c-1.048-0.91-1.229-2.833-0.061-3.834
		c0.886-0.758,1.645-1.666,2.433-2.533c0.327-0.363,0.579-0.794,0.867-1.194c-0.033-0.032-0.066-0.063-0.099-0.095
		c-0.222,0.142-0.475,0.251-0.658,0.429c-0.972,0.937-1.914,1.905-2.896,2.831c-0.303,0.288-0.666,0.573-1.054,0.698
		c-1.025,0.329-1.964,0.078-2.737-0.678c-0.941-0.92-1.859-1.865-2.798-2.788c-0.528-0.518-1.047-0.502-1.542,0.037
		c-0.707,0.77-1.399,1.555-2.105,2.327c-1.178,1.284-2.834,1.277-4.015-0.015c-0.669-0.733-1.324-1.476-1.992-2.21
		c-0.53-0.582-1.074-0.583-1.606,0c-0.669,0.733-1.325,1.477-1.993,2.21c-1.191,1.307-2.856,1.294-4.048-0.027
		c-0.629-0.695-1.257-1.392-1.883-2.09c-0.635-0.708-1.136-0.706-1.79,0.009c-0.766,0.841-1.542,1.67-2.295,2.521
		c-0.984,1.111-2.856,1.09-3.791,0.033c-0.938-1.061-2.054-1.966-3.105-2.925c-0.213-0.193-0.492-0.318-0.74-0.474
		c-0.03,0.034-0.06,0.068-0.091,0.103c0.163,0.272,0.292,0.572,0.493,0.81c0.928,1.104,1.848,2.215,2.823,3.274
		c1.166,1.267,1.142,2.704-0.139,3.883c-0.795,0.733-1.6,1.457-2.398,2.188c-0.771,0.705-0.759,1.155,0.046,1.859
		c0.706,0.616,1.416,1.229,2.12,1.851c1.299,1.146,1.309,2.832,0.021,4.01c-0.719,0.657-1.447,1.305-2.171,1.955
		c-0.658,0.593-0.656,1.119,0.011,1.723c0.708,0.643,1.42,1.279,2.131,1.918c1.302,1.173,1.321,2.827,0.036,4.012
		c-0.716,0.66-1.447,1.304-2.169,1.957c-0.668,0.604-0.671,1.111-0.006,1.723c0.864,0.792,1.736,1.574,2.598,2.37
		c1.132,1.043,1.141,2.607,0.05,3.678c-0.734,0.719-1.461,1.447-2.151,2.208C-210.184,59.699-210.592,60.286-211.031,60.846
		 M-168.396,31.638c0.03,0.034,0.061,0.067,0.092,0.102c-0.422,0.476-0.816,0.982-1.273,1.421c-0.625,0.599-1.304,1.14-1.945,1.72
		c-0.617,0.559-0.621,1.091-0.014,1.648c0.73,0.672,1.475,1.327,2.209,1.993c1.269,1.15,1.282,2.812,0.023,3.976
		c-0.742,0.686-1.504,1.351-2.25,2.03c-0.578,0.525-0.579,1.082,0.011,1.61c0.726,0.649,1.464,1.285,2.201,1.922
		c1.385,1.197,1.409,2.875,0.054,4.123c-0.85,0.781-1.709,1.551-2.557,2.335c-0.525,0.483-0.512,0.933-0.005,1.424
		c0.697,0.68,1.417,1.341,2.065,2.064c0.759,0.843,1.507,1.716,1.802,2.854c0.284,1.097-0.475,1.998-1.59,1.832
		c-0.497-0.073-1.042-0.271-1.424-0.586c-1.25-1.027-2.45-2.116-3.636-3.218c-0.62-0.574-1.009-0.612-1.587,0.013
		c-0.771,0.835-1.531,1.681-2.301,2.518c-1.179,1.283-2.839,1.277-4.015-0.015c-0.666-0.734-1.325-1.478-1.992-2.212
		c-0.531-0.586-1.066-0.586-1.606,0.006c-0.657,0.718-1.302,1.449-1.958,2.169c-1.227,1.349-2.867,1.35-4.085,0.005
		c-0.666-0.735-1.324-1.478-1.993-2.21c-0.49-0.538-1.031-0.55-1.537-0.018c-0.51,0.534-1.003,1.086-1.491,1.642
		c-0.57,0.649-1.093,1.353-2.019,1.561c0.129,1.057-0.357,1.753-1.084,2.424c-0.911,0.841-1.707,1.806-2.533,2.735
		c-0.231,0.259-0.394,0.58-0.587,0.873c0.295-0.024,0.537-0.11,0.71-0.269c1.118-1.019,2.218-2.055,3.33-3.079
		c0.222-0.204,0.449-0.426,0.715-0.556c1.007-0.492,2.129-0.245,2.95,0.636c0.799,0.858,1.581,1.731,2.373,2.597
		c0.577,0.631,1.126,0.629,1.68-0.006c0.641-0.733,1.276-1.472,1.92-2.202c1.195-1.355,2.856-1.366,4.085-0.023
		c0.658,0.718,1.301,1.451,1.957,2.171c0.56,0.612,1.078,0.61,1.645-0.01c0.657-0.719,1.305-1.446,1.957-2.172
		c1.181-1.312,2.853-1.315,4.05,0c0.657,0.722,1.302,1.451,1.957,2.172c0.565,0.622,1.082,0.625,1.642,0.012
		c0.816-0.892,1.621-1.793,2.444-2.679c1.002-1.077,2.557-1.088,3.606-0.059c0.875,0.858,1.755,1.714,2.664,2.536
		c0.384,0.345,0.849,0.601,1.275,0.896c0.041-0.044,0.081-0.087,0.119-0.131c-0.159-0.253-0.284-0.537-0.481-0.757
		c-0.933-1.025-1.787-2.154-2.853-3.019c-1.305-1.058-1.03-3.034,0.001-3.887c0.874-0.724,1.687-1.522,2.526-2.288
		c0.681-0.622,0.672-1.137-0.036-1.754c-0.719-0.63-1.442-1.254-2.159-1.886c-1.328-1.172-1.344-2.843-0.032-4.05
		c0.716-0.66,1.449-1.301,2.171-1.956c0.64-0.583,0.64-1.098-0.003-1.683c-0.719-0.655-1.447-1.303-2.171-1.954
		c-1.285-1.162-1.292-2.839-0.008-4.018c0.68-0.621,1.368-1.231,2.052-1.847c0.83-0.75,0.822-1.169-0.023-1.938
		c-0.813-0.74-1.637-1.473-2.438-2.226c-1.112-1.046-1.119-2.318-0.063-3.39c0.86-0.872,1.717-1.75,2.544-2.654
		c0.337-0.369,0.592-0.812,0.886-1.223c-0.039-0.033-0.079-0.066-0.118-0.099c-0.233,0.162-0.494,0.293-0.695,0.488
		c-0.956,0.928-1.913,1.857-2.838,2.818c-0.425,0.443-0.912,0.689-1.509,0.74C-167.856,31.657-168.127,31.638-168.396,31.638"/>
	<linearGradient id="SVGID_8_" gradientUnits="userSpaceOnUse" x1="-191.8809" y1="53.7158" x2="-191.8809" y2="52.7158">
		<stop  offset="0" style="stop-color:#F05351"/>
		<stop  offset="1" style="stop-color:#E74C6D"/>
	</linearGradient>
	<path clip-path="url(#SVGID_6_)" fill="url(#SVGID_8_)" d="M-196.041,46.858c-0.11,0.404-0.186,0.719-0.281,1.025
		c-0.172,0.559-0.657,0.86-1.153,0.73c-0.421-0.111-0.616-0.588-0.469-1.162c0.232-0.906,0.466-1.812,0.707-2.717
		c0.168-0.634,0.542-0.861,1.164-0.704c0.942,0.237,1.882,0.481,2.821,0.735c0.549,0.147,0.827,0.572,0.701,1.03
		c-0.119,0.431-0.557,0.644-1.096,0.523c-0.312-0.069-0.62-0.159-1.068-0.276c0.885,1.495,2.042,2.407,3.6,2.783
		c1.306,0.315,2.575,0.168,3.786-0.425c0.098-0.049,0.19-0.104,0.289-0.146c0.487-0.207,0.981-0.072,1.179,0.319
		c0.218,0.432,0.039,0.908-0.44,1.179c-3.177,1.799-7.313,0.801-9.314-2.25C-195.734,47.325-195.852,47.146-196.041,46.858"/>
	<linearGradient id="SVGID_9_" gradientUnits="userSpaceOnUse" x1="-195.832" y1="53.7139" x2="-195.832" y2="52.714">
		<stop  offset="0" style="stop-color:#F05351"/>
		<stop  offset="1" style="stop-color:#E74C6D"/>
	</linearGradient>
	<path clip-path="url(#SVGID_6_)" fill="url(#SVGID_9_)" d="M-193.423,32.156c-0.345-0.303-0.632-0.522-0.881-0.78
		c-0.354-0.368-0.351-0.828-0.026-1.154c0.326-0.329,0.796-0.34,1.153,0.02c0.738,0.74,1.464,1.495,2.177,2.258
		c0.36,0.386,0.354,0.773-0.014,1.153c-0.728,0.751-1.469,1.49-2.218,2.22c-0.398,0.387-0.852,0.385-1.193,0.031
		c-0.323-0.337-0.315-0.77,0.046-1.155c0.242-0.258,0.509-0.494,0.845-0.817c-0.893-0.111-1.625,0.039-2.314,0.335
		c-2.156,0.928-3.308,2.584-3.455,4.928c-0.043,0.683-0.385,1.045-0.946,0.957c-0.452-0.07-0.703-0.387-0.679-0.945
		c0.106-2.524,1.237-4.482,3.36-5.834c0.583-0.372,1.251-0.648,1.916-0.845C-194.991,32.332-194.283,32.292-193.423,32.156"/>
	<linearGradient id="SVGID_10_" gradientUnits="userSpaceOnUse" x1="-182.9248" y1="53.7148" x2="-182.9248" y2="52.7149">
		<stop  offset="0" style="stop-color:#F05351"/>
		<stop  offset="1" style="stop-color:#E74C6D"/>
	</linearGradient>
	<path clip-path="url(#SVGID_6_)" fill="url(#SVGID_10_)" d="M-183.569,40.973c0.849-1.368,1.12-2.729,0.781-4.205
		c-0.348-1.516-1.17-2.688-2.506-3.499c-0.579-0.353-0.717-0.729-0.453-1.138c0.296-0.458,0.753-0.513,1.314-0.154
		c3.261,2.078,4.291,5.967,2.492,9.402c-0.05,0.093-0.097,0.188-0.192,0.375c0.391-0.1,0.696-0.178,1.001-0.255
		c0.598-0.149,0.997,0.032,1.127,0.513c0.126,0.472-0.139,0.885-0.69,1.036c-0.955,0.259-1.912,0.509-2.872,0.75
		c-0.537,0.135-0.939-0.087-1.085-0.61c-0.271-0.969-0.526-1.944-0.771-2.92c-0.138-0.551,0.116-0.988,0.596-1.094
		c0.457-0.102,0.805,0.15,0.966,0.709C-183.77,40.208-183.687,40.536-183.569,40.973"/>
	<linearGradient id="SVGID_11_" gradientUnits="userSpaceOnUse" x1="-201.2578" y1="53.7158" x2="-201.2578" y2="52.7158">
		<stop  offset="0" style="stop-color:#F05351"/>
		<stop  offset="1" style="stop-color:#E74C6D"/>
	</linearGradient>
	<path clip-path="url(#SVGID_6_)" fill="url(#SVGID_11_)" d="M-201.253,30.77c-0.42,0.454-0.734,0.823-1.078,1.161
		c-0.43,0.422-0.875,0.429-1.228,0.051c-0.322-0.343-0.297-0.796,0.101-1.195c0.342-0.343,0.713-0.659,1.167-1.075
		c-0.389-0.341-0.712-0.599-1.008-0.886c-0.553-0.539-0.622-1.008-0.229-1.386c0.405-0.392,0.809-0.322,1.381,0.265
		c0.275,0.282,0.521,0.592,0.881,1.003c0.407-0.454,0.715-0.826,1.054-1.167c0.435-0.435,0.867-0.455,1.229-0.091
		c0.348,0.349,0.32,0.81-0.1,1.233c-0.329,0.332-0.682,0.64-1.154,1.081c0.298,0.238,0.55,0.408,0.763,0.616
		c0.788,0.773,0.931,1.216,0.493,1.61c-0.461,0.417-0.808,0.458-1.646-0.487C-200.806,31.3-200.979,31.091-201.253,30.77"/>
	<linearGradient id="SVGID_12_" gradientUnits="userSpaceOnUse" x1="-179.5815" y1="53.7158" x2="-179.5815" y2="52.7158">
		<stop  offset="0" style="stop-color:#F05351"/>
		<stop  offset="1" style="stop-color:#E74C6D"/>
	</linearGradient>
	<path clip-path="url(#SVGID_6_)" fill="url(#SVGID_12_)" d="M-179.623,28.706c0.425-0.456,0.732-0.805,1.062-1.134
		c0.462-0.463,0.896-0.495,1.266-0.114c0.36,0.372,0.316,0.807-0.15,1.272c-0.318,0.317-0.654,0.618-1.045,0.984
		c0.38,0.365,0.717,0.68,1.042,1.007c0.467,0.468,0.514,0.9,0.154,1.272c-0.379,0.393-0.805,0.344-1.307-0.147
		c-0.295-0.291-0.587-0.583-0.885-0.874c-0.022-0.023-0.059-0.033-0.204-0.11c-0.31,0.347-0.629,0.738-0.986,1.092
		c-0.403,0.399-0.844,0.399-1.19,0.046c-0.337-0.342-0.323-0.791,0.072-1.19c0.34-0.346,0.71-0.662,1.218-1.127
		c-0.321-0.244-0.58-0.406-0.795-0.615c-0.799-0.778-0.916-1.183-0.499-1.612c0.44-0.453,0.827-0.343,1.651,0.497
		C-180.019,28.156-179.861,28.401-179.623,28.706"/>
	<linearGradient id="SVGID_13_" gradientUnits="userSpaceOnUse" x1="-201.2603" y1="53.7148" x2="-201.2603" y2="52.715">
		<stop  offset="0" style="stop-color:#F05351"/>
		<stop  offset="1" style="stop-color:#E74C6D"/>
	</linearGradient>
	<path clip-path="url(#SVGID_6_)" fill="url(#SVGID_13_)" d="M-202.34,51.336c-0.41-0.389-0.729-0.682-1.034-0.986
		c-0.477-0.476-0.528-0.951-0.156-1.312c0.367-0.356,0.833-0.296,1.311,0.191c0.303,0.307,0.584,0.633,0.949,1.031
		c0.392-0.416,0.713-0.775,1.054-1.114c0.419-0.417,0.886-0.446,1.233-0.1c0.347,0.348,0.318,0.815-0.098,1.232
		c-0.33,0.332-0.681,0.642-1.149,1.079c0.381,0.329,0.718,0.593,1.025,0.889c0.526,0.508,0.596,0.972,0.232,1.348
		c-0.372,0.382-0.841,0.319-1.349-0.193c-0.292-0.295-0.568-0.603-0.899-0.955c-0.381,0.374-0.72,0.71-1.063,1.041
		c-0.444,0.432-0.926,0.467-1.273,0.098c-0.33-0.352-0.288-0.81,0.137-1.233C-203.092,52.022-202.744,51.713-202.34,51.336"/>
	<path clip-path="url(#SVGID_6_)" d="M-179.604,52.393c-0.398,0.433-0.715,0.801-1.059,1.142c-0.395,0.393-0.852,0.407-1.192,0.072
		c-0.348-0.342-0.343-0.792,0.044-1.193c0.337-0.349,0.702-0.67,1.233-1.171c-0.316-0.229-0.604-0.39-0.831-0.61
		c-0.771-0.743-0.876-1.142-0.463-1.572c0.421-0.438,0.848-0.32,1.616,0.455c0.213,0.216,0.408,0.449,0.666,0.732
		c0.4-0.422,0.721-0.784,1.067-1.124c0.412-0.404,0.9-0.417,1.235-0.06c0.331,0.353,0.305,0.786-0.097,1.195
		c-0.339,0.344-0.698,0.669-1.113,1.065c0.415,0.396,0.786,0.732,1.134,1.089c0.392,0.402,0.402,0.852,0.055,1.193
		c-0.332,0.33-0.809,0.314-1.197-0.063C-178.854,53.203-179.179,52.842-179.604,52.393"/>
</g>
<g>
	<defs>
		<rect id="SVGID_14_" x="6.854" y="9.962" width="54.451" height="51.156"/>
	</defs>
	<clipPath id="SVGID_15_">
		<use xlink:href="#SVGID_14_"  overflow="visible"/>
	</clipPath>
	<linearGradient id="SVGID_16_" gradientUnits="userSpaceOnUse" x1="-480.7261" y1="35.54" x2="-480.1468" y2="35.54">
		<stop  offset="0" style="stop-color:#F05351"/>
		<stop  offset="1" style="stop-color:#E74C6D"/>
	</linearGradient>
	<path clip-path="url(#SVGID_15_)" fill="url(#SVGID_16_)" d="M34.203,9.975h22.234c1.521,0,1.521,0,1.521,1.539
		c0,0.451,0.042,0.908-0.006,1.356c-0.07,0.66,0.229,0.865,0.842,0.781c0.053-0.007,0.108-0.001,0.163-0.001
		c2.713,0.01,2.174-0.243,2.303,2.151c0.263,4.91-0.623,9.637-2.889,14.075c-0.254,0.498-0.395,1.107-0.396,1.665
		c-0.023,9.452-0.017,18.903-0.017,28.354c0,1.223-0.003,1.224-1.194,1.225c-15.038,0-30.076,0-45.114,0
		c-1.327,0-1.322-0.003-1.322-1.27c0-9.479,0.004-18.956-0.017-28.435c-0.001-0.454-0.143-0.948-0.355-1.354
		c-2.583-4.947-3.444-10.203-2.984-15.708c0.042-0.499,0.265-0.714,0.768-0.705c0.648,0.012,1.299-0.024,1.946,0.009
		c0.506,0.026,0.668-0.178,0.65-0.652c-0.025-0.691,0.027-1.386-0.013-2.076c-0.042-0.731,0.259-0.972,0.997-0.967
		c3.732,0.025,7.465,0.009,11.198,0.008c3.895-0.001,7.79,0,11.684,0V9.975z M56.825,32.483c-3.69,4.179-5.709,5.79-9.446,7.227
		c-7.283,2.805-14.771,2.925-22.315,1.307c-5.43-1.164-9.991-3.81-13.379-8.244c-0.036-0.047-0.124-0.059-0.224-0.103V59.98h45.364
		V32.483z M36.17,23.113c-0.183,0.028-0.264,0.026-0.333,0.053c-2.802,1.152-5.018-0.295-5.023-3.288
		c-0.006-2.609-0.002-5.219-0.002-7.829v-0.941H11.462c-0.023,0.266-0.058,0.474-0.059,0.682
		c-0.003,6.019-0.008,12.038,0.015,18.057c0.001,0.368,0.166,0.778,0.368,1.1c2.302,3.658,5.534,6.279,9.591,7.785
		c7.918,2.941,15.974,2.981,24.018,0.55c4.648-1.404,8.382-4.141,10.995-8.235c0.281-0.442,0.464-1.031,0.466-1.552
		c0.033-5.805,0.021-11.61,0.021-17.416v-0.976h-3.312c0,0.339,0,0.625,0,0.913c-0.002,1.385,0.024,2.77-0.012,4.153
		c-0.06,2.294-2.355,3.791-4.539,2.983c-0.242-0.09-0.475-0.198-0.81-0.338c0,1.847,0.018,3.576-0.006,5.304
		c-0.021,1.534-0.986,2.831-2.521,3.1c-0.876,0.154-1.819-0.073-2.826-0.134c0,1.198,0.007,2.572-0.003,3.944
		c-0.011,1.955-1.421,3.406-3.302,3.417c-1.943,0.013-3.36-1.415-3.372-3.423c-0.013-2.343-0.003-4.688-0.003-7.03
		C36.17,23.711,36.17,23.43,36.17,23.113 M31.941,11.087c0,3.26-0.029,6.448,0.02,9.635c0.013,0.843,0.814,1.572,1.668,1.744
		c1.076,0.217,1.887-0.169,2.506-1.058c0.139-0.199,0.494-0.418,0.682-0.372c0.188,0.048,0.332,0.405,0.419,0.653
		c0.067,0.19,0.016,0.422,0.016,0.634c0.001,2.822-0.014,5.644,0.019,8.465c0.007,0.512,0.11,1.074,0.343,1.524
		c0.438,0.854,1.46,1.22,2.438,1.003c0.931-0.205,1.661-1.009,1.684-2.002c0.041-1.89,0-3.78,0.046-5.668
		c0.008-0.31,0.28-0.614,0.432-0.922c0.244,0.169,0.553,0.292,0.722,0.516c0.664,0.875,1.573,1.246,2.537,0.971
		c1.016-0.291,1.607-1.069,1.636-2.208c0.022-0.931,0.008-1.865,0.009-2.796c0-1.251-0.021-2.503,0.02-3.754
		c0.008-0.24,0.255-0.475,0.392-0.712c0.235,0.132,0.485,0.245,0.7,0.402c0.123,0.091,0.179,0.267,0.287,0.384
		c0.619,0.66,1.381,0.933,2.271,0.699c0.882-0.233,1.569-0.809,1.617-1.698c0.098-1.795,0.029-3.599,0.029-5.44H31.941z
		 M10.276,27.817V14.722c-0.485,0-0.918,0.043-1.338-0.01c-0.745-0.096-1.03,0.203-0.985,0.918c0.118,1.88,0.132,3.772,0.347,5.641
		C8.561,23.54,9.186,25.734,10.276,27.817 M58.006,27.635c1.857-4.09,2.394-8.388,2.137-12.857h-2.137V27.635z"/>
</g>
</svg>
