<?xml version="1.0" encoding="utf-8"?>
<!-- Generator: Adobe Illustrator 16.0.0, SVG Export Plug-In . SVG Version: 6.00 Build 0)  -->
<!DOCTYPE svg PUBLIC "-//W3C//DTD SVG 1.1//EN" "http://www.w3.org/Graphics/SVG/1.1/DTD/svg11.dtd">
<svg version="1.1" id="Layer_1" xmlns="http://www.w3.org/2000/svg" xmlns:xlink="http://www.w3.org/1999/xlink" x="0px" y="0px"
	 width="69px" height="68px" viewBox="0 0 69 68" enable-background="new 0 0 69 68" xml:space="preserve">
<g>
	<g>
		<g>
			<defs>
				<rect id="SVGID_1_" x="-115.222" y="35.758" width="59.829" height="58.004"/>
			</defs>
			<clipPath id="SVGID_2_">
				<use xlink:href="#SVGID_1_"  overflow="visible"/>
			</clipPath>
			
				<linearGradient id="SVGID_3_" gradientUnits="userSpaceOnUse" x1="21.8281" y1="-234.2461" x2="81.1611" y2="-244.9125" gradientTransform="matrix(1 0 0 -1 -156 -177)">
				<stop  offset="0.2063" style="stop-color:#F26B59"/>
				<stop  offset="1" style="stop-color:#E74C6D"/>
			</linearGradient>
			<path clip-path="url(#SVGID_2_)" fill="url(#SVGID_3_)" d="M-106.069,71.822c-0.832,3.687-1.641,7.287-2.455,10.888
				c-0.692,3.069-1.377,6.144-2.083,9.21c-0.379,1.65-0.972,2.062-2.4,1.739c-1.554-0.351-1.915-0.97-1.527-2.698
				c1.344-5.993,2.698-11.982,4.045-17.977c0.11-0.489,0.19-0.986,0.315-1.639c-1.701-0.258-3.322-0.503-5.05-0.766
				c0.144-1.102,0.274-2.085,0.426-3.239c1.219,0.132,2.354,0.253,3.751,0.401c-1.383-3.322-2.697-6.479-4.08-9.803
				c0.979-0.429,1.881-0.825,2.876-1.263c0.288,0.388,0.542,0.733,0.849,1.147c0.332-0.203,0.682-0.393,1.005-0.621
				c8.44-5.934,16.903-11.836,25.312-17.812c11.068-7.867,25.975-2.375,29.191,10.797c2.371,9.715-3.963,19.944-13.74,22.191
				c-0.594,0.137-1.189,0.256-1.805,0.387c-0.152,1.127-0.305,2.262-0.473,3.49c-1.41-0.16-2.703-0.308-4.205-0.479
				c0.758,3.418,1.484,6.705,2.217,9.994c0.406,1.834,0.832,3.662,1.229,5.498c0.312,1.438-0.104,2.043-1.562,2.389
				c-1.264,0.299-2.061-0.088-2.357-1.426c-1.166-5.252-2.379-10.494-3.516-15.754c-0.197-0.918-0.518-1.34-1.52-1.465
				C-89.729,73.995-97.829,72.907-106.069,71.822 M-66.572,61.958c-1.873-1.915-3.744-3.833-5.598-5.728
				c-0.633,0.303-1.078,0.518-1.465,0.699v13.693c4.174-0.096,7.678-1.571,10.682-4.289c0.145-0.131,0.121-0.447,0.176-0.676
				c0.389-0.084,0.934-0.032,1.145-0.272c2.553-2.927,3.912-6.319,3.943-10.385c-4.469,0-8.828-0.01-13.189,0.021
				c-0.262,0.002-0.676,0.283-0.742,0.517c-0.09,0.308,0.016,0.737,0.184,1.032c0.193,0.343,0.559,0.584,0.83,0.886
				C-69.26,58.954-67.916,60.457-66.572,61.958 M-83.535,64.025c-0.682,0.578-1.365,1.154-2.132,1.807
				c3.41,3.121,6.968,4.709,11.335,4.79c0-4.476,0.027-8.774-0.016-13.073c-0.014-1.197-0.875-1.265-1.811-1.033
				c-0.137-0.509-0.275-1.017-0.379-1.399h-13.771c0.053,4.229,1.604,7.679,4.358,10.626C-85.07,65.118-84.301,64.57-83.535,64.025
				 M-110.164,58.425c7.971,3.327,15.64,6.526,23.308,9.728c-6.509-7.291-7.517-15.156-2.819-24.139
				C-96.709,48.961-103.3,53.598-110.164,58.425 M-110.428,59.496c-0.102,0.08-0.203,0.158-0.304,0.238
				c1.133,2.686,2.245,5.384,3.433,8.047c0.138,0.31,0.684,0.564,1.071,0.619c7.643,1.033,15.29,2.033,22.937,3.031
				c0.285,0.037,0.582,0.004,0.873,0.004c0.008-0.076,0.018-0.152,0.025-0.229C-91.737,67.305-101.083,63.4-110.428,59.496
				 M-57.686,54.335c-0.195-4.317-1.691-7.91-4.867-11.294c-2.889,3.002-5.662,5.961-8.537,8.818
				c-0.848,0.84-0.986,1.526-0.279,2.476H-57.686z M-85.463,43.018c-3.138,3.457-4.708,7.01-4.825,11.287h14.049
				c-0.076-0.697,0.094-1.533-0.246-1.897C-79.375,49.279-82.355,46.24-85.463,43.018 M-85.252,42.465
				c3.162,3.18,6.176,6.248,9.258,9.246c0.318,0.309,1.041,0.201,1.551,0.283V37.988C-78.607,38.177-82.137,39.572-85.252,42.465
				 M-73.719,37.992c0,4.342-0.018,8.502,0.027,12.662c0.004,0.441,0.295,1.131,0.619,1.246c0.355,0.129,1.02-0.151,1.344-0.465
				c2.586-2.519,5.125-5.086,7.676-7.64c0.414-0.415,0.809-0.853,1.271-1.341C-65.926,39.585-69.449,38.154-73.719,37.992"/>
		</g>
	</g>
</g>
<linearGradient id="SVGID_4_" gradientUnits="userSpaceOnUse" x1="487.0674" y1="558.5137" x2="487.5727" y2="558.5137" gradientTransform="matrix(1 0 0 1 -312 -723)">
	<stop  offset="0" style="stop-color:#F05351"/>
	<stop  offset="1" style="stop-color:#E74C6D"/>
</linearGradient>
<path fill="url(#SVGID_4_)" d="M158.137,21.297c-0.207-0.108-0.412-0.225-0.623-0.327c-3.345-1.578-6.686-3.163-10.039-4.72
	c-0.287-0.133-0.697-0.179-0.996-0.086c-1.625,0.489-3.271-0.284-3.867-1.871c-0.549-1.452,0.238-3.149,1.755-3.788
	c1.44-0.607,3.187,0.086,3.832,1.604c0.222,0.526,0.553,0.787,1.024,1.008c3.24,1.517,6.473,3.048,9.709,4.573
	c0.258,0.12,0.52,0.231,0.623,0.277c1.622-1.822,3.18-3.57,4.812-5.401c-0.685-1.106-1.464-2.371-2.245-3.633
	c-1.419-2.287-2.829-4.58-4.275-6.85c-0.185-0.288-0.533-0.541-0.859-0.654c-1.373-0.478-2.383-1.786-2.299-3.077
	c0.088-1.39,1.26-2.648,2.701-2.896c1.776-0.308,3.705,1.634,3.329,3.415c-0.127,0.596-0.016,1.034,0.296,1.529
	c2.045,3.254,4.073,6.52,6.075,9.804c0.322,0.527,0.574,0.59,1.132,0.335c7.399-3.378,16.114-1.807,21.65,4.156
	c4.929,5.307,6.447,11.6,4.484,18.63c-0.211,0.754-0.131,1.074,0.608,1.392c1.763,0.758-0.45,4.588,1.289,5.401
	c1.319,0.618,2.386,1.517,3.125,2.782c0.388,0.666,0.267,0.93-0.502,1.08c-1.449,0.283-2.815-0.002-4.129-0.621
	c-1.998-0.938-0.062-4.85-2.063-5.793c-0.713,0.94-1.356,1.9-2.115,2.754c-0.779,0.878-1.649,1.679-2.533,2.453
	c-0.373,0.326-0.408,0.539-0.146,0.941c0.969,1.52,1.9,3.061,2.856,4.59c0.747,1.193,1.122,2.488,1.097,3.896
	c-0.015,0.832-0.346,1.043-1.085,0.707c-1.261-0.571-2.253-1.455-2.985-2.63c-0.94-1.508-1.896-3.01-2.801-4.538
	c-0.31-0.521-0.551-0.651-1.17-0.394c-6.461,2.696-12.66,2.15-18.488-1.736c-2.855-1.902-4.979-4.498-6.449-7.61
	c-0.133-0.278-0.264-0.56-0.434-0.92c-0.517,0.248-1.007,0.478-1.49,0.717c-0.857,0.429-1.728,0.845-2.57,1.3
	c-2.83,1.531-4.211,4.936-3.27,8.019c0.936,3.054,4.039,5.192,7.195,4.819c1.473-0.174,2.922-0.556,4.363-0.916
	c4.604-1.149,8.947,1.537,9.904,6.185c0.281,1.364,0.22,2.728-0.24,4.053c-0.129,0.375-0.225,0.896-0.79,0.704
	c-0.543-0.186-0.349-0.639-0.218-1.036c1.547-4.676-1.916-9.396-6.776-9.099c-1.563,0.098-3.117,0.542-4.647,0.933
	c-5.25,1.341-10.269-2.55-10.088-7.952c0.1-3.039,1.555-5.342,4.291-6.766c1.148-0.598,2.311-1.175,3.475-1.746
	c0.316-0.157,0.488-0.294,0.359-0.71c-1.242-4.002-1.171-7.992,0.168-11.959C158.121,21.537,158.119,21.438,158.137,21.297
	 M172.189,45.484c-1.371-13.296,2.781-24.353,12.558-33.407c-0.862-0.382-1.647-0.716-2.42-1.075
	c-0.493-0.231-0.854-0.156-1.274,0.229c-3.849,3.517-6.836,7.647-8.926,12.429c-2.855,6.528-3.684,13.318-2.602,20.35
	c0.037,0.248,0.125,0.62,0.289,0.688C170.552,44.997,171.324,45.208,172.189,45.484 M168.422,44.21
	c-1.65-13.36,2.26-24.552,11.979-33.886c-1.311-0.143-2.443-0.298-3.584-0.367c-0.305-0.018-0.709,0.155-0.933,0.376
	c-3.218,3.203-5.749,6.879-7.591,11.034c-1.85,4.173-2.945,8.54-3.062,13.095c-0.062,2.481,0.252,4.978,0.426,7.465
	c0.02,0.282,0.146,0.663,0.355,0.808C166.729,43.238,167.506,43.661,168.422,44.21 M192.854,20.919
	c-0.369,0.233-0.554,0.343-0.728,0.463c-2.552,1.776-5.278,3.223-8.19,4.314c-2.567,0.962-5.193,1.681-7.916,2.042
	c-0.311,0.042-0.797,0.144-0.871,0.34c-0.461,1.241-0.824,2.515-1.252,3.871c0.42,0,0.656,0.008,0.892-0.001
	c2.958-0.132,5.856-0.611,8.694-1.458c3.613-1.079,6.98-2.675,10.084-4.817c0.156-0.105,0.354-0.357,0.322-0.495
	C193.576,23.785,193.221,22.407,192.854,20.919 M175.668,26.582c0.051,0.072,0.104,0.147,0.152,0.223
	c1.875-0.455,3.771-0.839,5.621-1.38c3.715-1.089,7.134-2.812,10.274-5.075c0.197-0.14,0.433-0.54,0.366-0.684
	c-0.659-1.386-1.51-2.65-2.594-3.781c-0.231,0.157-0.411,0.272-0.586,0.397c-2.598,1.845-5.344,3.471-8.377,4.406
	c-1.914,0.591-3.074,1.646-3.74,3.446C176.477,24.973,176.045,25.768,175.668,26.582 M187.107,42.294
	c-0.035-0.092-0.067-0.185-0.103-0.274c-0.163-0.098-0.321-0.199-0.487-0.293c-3.631-2-6.892-4.485-9.625-7.602
	c-0.769-0.878-1.515-1.26-2.642-1.105c-0.411,0.057-0.604,0.174-0.658,0.568c-0.153,1.092-0.346,2.182-0.459,3.278
	c-0.028,0.265,0.11,0.62,0.296,0.821c2.506,2.693,5.37,4.939,8.584,6.736c0.225,0.125,0.596,0.229,0.793,0.129
	C184.257,43.832,185.677,43.057,187.107,42.294 M177.297,32.867c0.051,0.129,0.059,0.205,0.102,0.254
	c2.94,3.334,6.397,6.001,10.344,8.041c0.121,0.062,0.361,0.08,0.443,0.005c1.332-1.183,2.479-2.517,3.342-4.104
	c-0.127-0.09-0.2-0.155-0.282-0.198c-2.728-1.341-5.257-2.981-7.604-4.91c-0.201-0.163-0.582-0.21-0.853-0.161
	c-0.849,0.151-1.679,0.394-2.521,0.562C179.291,32.547,178.307,32.695,177.297,32.867 M194.061,26.924
	c-3.103,1.51-6.188,3.014-9.312,4.533c2.191,1.804,4.65,3.371,7.382,4.632C193.643,33.111,194.286,30.052,194.061,26.924
	 M165.656,25.056c0.101-0.141,0.154-0.19,0.181-0.253c0.767-1.86,1.538-3.716,2.276-5.589c0.08-0.199,0.035-0.519-0.074-0.715
	c-0.438-0.77-0.924-1.515-1.395-2.269c-0.517-0.827-1.033-1.654-1.549-2.474c-1.361,0.77-1.517,1.043-1.4,2.455
	c0.043,0.526,0.094,1.051,0.168,1.575C164.211,20.237,164.779,22.631,165.656,25.056 M173.001,39.114
	c-0.011,0.151-0.052,0.385-0.041,0.612c0.086,1.701,0.209,3.403,0.259,5.106c0.021,0.692,0.333,0.948,0.957,0.95
	c1.297,0.005,2.6,0.066,3.889-0.021c0.968-0.064,1.922-0.332,2.807-0.496C178.204,43.182,175.607,41.15,173.001,39.114
	 M188.796,15.043c-0.937-0.736-1.767-1.38-2.583-2.037c-0.349-0.28-0.622-0.234-0.923,0.083c-1.403,1.476-2.847,2.919-4.22,4.424
	c-0.668,0.733-1.211,1.58-1.812,2.376C182.712,18.869,185.796,17.235,188.796,15.043 M147.842,15.237
	c5.299,2.495,10.549,4.97,15.876,7.479c-0.099-1.114-0.378-1.831-1.45-2.313c-4.371-1.971-8.686-4.065-13.022-6.111
	c-0.248-0.117-0.509-0.212-0.771-0.32C148.26,14.402,148.08,14.764,147.842,15.237 M158.699,1.414
	c2.932,4.721,5.854,9.426,8.775,14.131c0.02-0.924-0.088-1.78-0.228-2.63c-0.049-0.296-0.124-0.615-0.279-0.867
	c-2.21-3.6-4.436-7.189-6.659-10.783c-0.123-0.199-0.263-0.388-0.412-0.61C159.494,0.91,159.135,1.136,158.699,1.414
	 M165.018,27.789c-2.276-0.568-4.51-1.125-6.908-1.722c0,0.841-0.032,1.649,0.024,2.45c0.013,0.179,0.31,0.411,0.524,0.49
	c1.475,0.556,2.959,1.092,4.449,1.607c0.416,0.146,0.858,0.212,1.326,0.319C164.637,29.846,164.824,28.838,165.018,27.789
	 M164.104,35.785c0.037-0.775,0.064-1.32,0.086-1.868c0.021-0.615,0.271-1.407-0.018-1.798c-0.294-0.399-1.124-0.397-1.713-0.596
	c-1.382-0.463-2.759-0.94-4.343-1.481c0.341,1.304,0.646,2.497,0.971,3.686c0.031,0.114,0.179,0.235,0.298,0.282
	C160.9,34.589,162.42,35.154,164.104,35.785 M165.029,26.63c-0.393-1.492-0.73-2.785-2.383-3.281
	c-1.191-0.356-2.291-1.023-3.522-1.593c-0.249,0.97-0.505,1.84-0.679,2.728c-0.031,0.159,0.229,0.499,0.42,0.562
	c1.111,0.364,2.236,0.699,3.371,0.993C163.13,26.269,164.043,26.424,165.029,26.63 M170.889,10.6
	c-0.818,0.328-1.559,0.595-2.266,0.929c-0.165,0.079-0.316,0.39-0.311,0.587c0.022,0.715,0.084,1.434,0.192,2.142
	c0.149,0.969,0.356,1.934,0.571,3.06c0.876-1.292,1.645-2.412,2.39-3.546c0.091-0.139,0.115-0.371,0.078-0.54
	C171.355,12.396,171.135,11.568,170.889,10.6 M145.443,11.347c-1.195,0.009-1.959,0.793-1.945,1.998
	c0.013,1.145,0.805,1.945,1.939,1.961c1.108,0.016,2.033-0.902,2.008-1.994C147.418,12.112,146.631,11.339,145.443,11.347
	 M251.238-388.971c-8.396-0.06-13.959,5.427-13.969,13.776c-0.011,8.119,5.457,13.815,13.377,13.939
	c8.276,0.13,14.176-5.466,14.355-13.625C265.188-383.052,259.46-388.912,251.238-388.971 M164.395,41.445
	c0.025-0.036,0.073-0.074,0.071-0.109c-0.103-1.389-0.2-2.775-0.325-4.161c-0.014-0.155-0.15-0.39-0.283-0.433
	c-1.323-0.452-2.659-0.873-4.026-1.312C160.34,37.189,162.979,40.645,164.395,41.445 M193.73,35.223
	c-0.237,0.521-0.414,0.904-0.604,1.315c0.088,0.062,0.139,0.116,0.201,0.146c2.15,1.014,0.354,5.025,2.529,5.979
	c0.643,0.28,1.401,0.299,2.107,0.437c0.042-0.117,0.084-0.234,0.126-0.351C195.771,40.518,196.507,36.879,193.73,35.223
	 M185.452,44.568c1.229,1.938,2.378,3.826,3.608,5.652c0.383,0.568,0.99,0.987,1.494,1.473c0.086-0.064,0.17-0.133,0.256-0.199
	c-0.562-2.969-2.789-5.067-4.076-7.738C186.256,44.061,185.896,44.287,185.452,44.568 M162.586,16.241
	c-0.062-0.022-0.125-0.046-0.188-0.067c-0.553,0.755-1.104,1.513-1.711,2.347c0.836,0.391,1.539,0.721,2.364,1.108
	C162.885,18.402,162.734,17.322,162.586,16.241 M172.447,12.494c0.775-0.883,1.443-1.649,2.113-2.414l-0.113-0.162
	c-0.812,0.138-1.621,0.274-2.497,0.423C172.125,11.095,172.27,11.713,172.447,12.494"/>
<g>
	<g>
		<defs>
			<rect id="SVGID_5_" x="-212.759" y="17.984" width="52.012" height="52.005"/>
		</defs>
		<clipPath id="SVGID_6_">
			<use xlink:href="#SVGID_5_"  overflow="visible"/>
		</clipPath>
		
			<linearGradient id="SVGID_7_" gradientUnits="userSpaceOnUse" x1="-30.7524" y1="-230.7153" x2="-30.7524" y2="-229.7153" gradientTransform="matrix(1 0 0 -1 -156 -177)">
			<stop  offset="0" style="stop-color:#F05351"/>
			<stop  offset="1" style="stop-color:#E74C6D"/>
		</linearGradient>
		<path clip-path="url(#SVGID_6_)" fill="url(#SVGID_7_)" d="M-168.017,19.781c-0.125,0.279-0.264,0.895-0.62,1.333
			c-1.019,1.255-2.107,2.455-3.206,3.645c-0.599,0.649-0.632,1.03,0.026,1.624c0.804,0.724,1.622,1.433,2.423,2.162
			c0.238,0.216,0.453,0.463,0.647,0.72c0.473,0.631,1.017,0.637,1.574,0.091c1.093-1.07,2.204-2.123,3.349-3.134
			c0.323-0.285,0.775-0.468,1.2-0.588c1.196-0.337,2.238,0.686,1.755,1.825c-0.422,0.992-1.083,1.9-1.75,2.76
			c-0.582,0.75-1.312,1.386-1.99,2.062c-0.579,0.575-0.6,0.958-0.024,1.56c0.759,0.797,1.525,1.585,2.298,2.369
			c1.08,1.098,1.085,2.691-0.028,3.759c-0.742,0.71-1.525,1.38-2.285,2.07c-0.666,0.604-0.664,1.103,0.013,1.719
			c0.722,0.657,1.449,1.304,2.172,1.957c1.239,1.122,1.258,2.802,0.03,3.94c-0.755,0.699-1.53,1.375-2.289,2.066
			c-0.562,0.512-0.566,1.057,0.005,1.57c0.749,0.676,1.518,1.331,2.279,1.995c1.307,1.136,1.335,2.825,0.06,4.01
			c-0.861,0.798-1.734,1.58-2.599,2.372c-0.535,0.492-0.54,0.979-0.005,1.463c1.219,1.105,2.407,2.245,3.263,3.663
			c0.298,0.493,0.543,1.079,0.601,1.644c0.101,0.969-0.798,1.713-1.739,1.41c-0.752-0.242-1.499-0.643-2.112-1.141
			c-1.017-0.828-1.933-1.782-2.874-2.7c-0.525-0.512-0.968-0.54-1.475,0.005c-0.799,0.856-1.578,1.732-2.37,2.598
			c-1.148,1.258-2.822,1.256-3.979-0.008c-0.682-0.746-1.349-1.506-2.027-2.252c-0.507-0.558-1.057-0.561-1.573,0
			c-0.695,0.756-1.374,1.528-2.064,2.291c-1.073,1.187-2.769,1.215-3.867,0.045c-0.717-0.762-1.4-1.554-2.104-2.33
			c-0.507-0.559-1.065-0.57-1.57-0.012c-0.699,0.779-1.374,1.579-2.066,2.362c-1.047,1.187-2.715,1.249-3.821,0.11
			c-0.854-0.881-1.658-1.81-2.489-2.709c-0.525-0.571-0.942-0.528-1.509,0.002c-1.166,1.098-2.355,2.17-3.569,3.211
			c-0.317,0.271-0.746,0.443-1.151,0.576c-0.583,0.189-1.154,0.104-1.595-0.367c-0.432-0.461-0.601-1.059-0.298-1.6
			c0.516-0.92,1.09-1.818,1.749-2.64c0.606-0.755,1.354-1.397,2.043-2.085c0.467-0.466,0.484-0.926,0.026-1.41
			c-1.002-1.062-2.006-2.12-3.012-3.177c-0.458-0.479-0.924-0.474-1.385,0.034c-1.115,1.232-2.255,2.44-3.688,3.315
			c-0.364,0.224-0.765,0.413-1.175,0.526c-1.226,0.339-2.313-0.729-1.824-1.893c0.403-0.957,1.05-1.838,1.702-2.662
			c0.601-0.758,1.346-1.401,2.041-2.084c0.578-0.567,0.596-0.969,0.014-1.557c-0.849-0.859-1.705-1.713-2.564-2.562
			c-1.165-1.152-1.156-2.747,0.043-3.868c0.751-0.701,1.53-1.375,2.289-2.068c0.56-0.51,0.565-1.062,0.009-1.575
			c-0.756-0.697-1.528-1.375-2.291-2.064c-1.194-1.079-1.227-2.75-0.053-3.864c0.759-0.721,1.555-1.399,2.327-2.106
			c0.584-0.533,0.579-1.072-0.02-1.607c-0.753-0.672-1.523-1.327-2.281-1.994c-1.275-1.121-1.298-2.809-0.046-3.975
			c0.858-0.799,1.733-1.581,2.599-2.372c0.56-0.51,0.521-0.951,0-1.507c-1.104-1.183-2.202-2.374-3.232-3.62
			c-0.326-0.396-0.537-0.958-0.611-1.472c-0.159-1.095,0.788-1.923,1.841-1.575c0.736,0.244,1.471,0.624,2.074,1.109
			c1.05,0.844,2.011,1.802,2.985,2.738c0.628,0.601,1.027,0.614,1.628-0.04c0.756-0.825,1.508-1.653,2.261-2.479
			c1.172-1.286,2.836-1.287,4.014,0.002c0.669,0.733,1.326,1.476,1.992,2.211c0.524,0.578,1.085,0.582,1.609,0.008
			c0.68-0.748,1.349-1.504,2.029-2.25c1.129-1.241,2.792-1.253,3.938-0.019c0.688,0.74,1.352,1.502,2.03,2.25
			c0.546,0.601,1.092,0.599,1.647-0.008c0.681-0.746,1.349-1.504,2.032-2.248c1.159-1.265,2.78-1.295,3.996-0.083
			c0.881,0.879,1.757,1.762,2.641,2.639c0.578,0.574,1.021,0.566,1.552-0.037c1.037-1.181,2.077-2.369,3.433-3.192
			c0.488-0.297,1.084-0.507,1.65-0.559C-168.568,18.036-168.03,18.665-168.017,19.781 M-211.031,60.846
			c0.045,0.038,0.09,0.077,0.135,0.115c0.155-0.087,0.332-0.15,0.461-0.268c1.125-1.012,2.331-1.951,3.333-3.072
			c1.113-1.246,2.887-0.936,3.757-0.085c0.902,0.882,1.855,1.713,2.786,2.565c0.645,0.592,1.102,0.563,1.687-0.106
			c0.676-0.774,1.334-1.565,2.032-2.32c1.053-1.138,2.024-1.228,3.294-0.341c0.221,0.154,0.445,0.314,0.629,0.51
			c0.667,0.709,1.321,1.432,1.975,2.151c0.537,0.591,1.067,0.603,1.605,0.012c0.669-0.731,1.325-1.478,1.993-2.211
			c1.195-1.313,2.851-1.305,4.05,0.019c0.642,0.707,1.279,1.422,1.92,2.131c0.605,0.674,1.101,0.672,1.718-0.004
			c0.778-0.854,1.562-1.7,2.331-2.562c0.986-1.1,2.808-1.13,3.787-0.039c0.948,1.056,2.055,1.968,3.105,2.927
			c0.213,0.193,0.492,0.313,0.741,0.471c0.032-0.032,0.064-0.065,0.097-0.098c-0.157-0.254-0.279-0.539-0.477-0.754
			c-0.998-1.087-2.031-2.143-3.019-3.238c-0.279-0.31-0.54-0.689-0.655-1.082c-0.293-0.992,0.04-1.85,0.782-2.541
			c0.858-0.801,1.732-1.582,2.598-2.373c0.63-0.574,0.623-1.11-0.025-1.682c-0.73-0.645-1.471-1.277-2.199-1.922
			c-1.33-1.175-1.35-2.843-0.044-4.048c0.689-0.637,1.395-1.255,2.09-1.884c0.757-0.686,0.757-1.156,0.012-1.828
			c-0.697-0.627-1.396-1.256-2.092-1.882c-1.29-1.159-1.303-2.839-0.021-4.016c0.717-0.659,1.448-1.302,2.169-1.957
			c0.667-0.604,0.665-1.103-0.007-1.719c-0.838-0.768-1.664-1.549-2.522-2.293c-1.048-0.91-1.229-2.833-0.061-3.834
			c0.886-0.758,1.645-1.666,2.433-2.533c0.327-0.363,0.579-0.794,0.867-1.194c-0.033-0.032-0.066-0.063-0.099-0.095
			c-0.222,0.142-0.475,0.251-0.658,0.429c-0.972,0.937-1.914,1.905-2.896,2.831c-0.303,0.288-0.666,0.573-1.054,0.698
			c-1.025,0.329-1.964,0.078-2.737-0.678c-0.941-0.92-1.859-1.865-2.798-2.788c-0.528-0.518-1.047-0.502-1.542,0.037
			c-0.707,0.77-1.399,1.555-2.105,2.327c-1.178,1.284-2.834,1.277-4.015-0.015c-0.669-0.733-1.324-1.476-1.992-2.21
			c-0.53-0.582-1.074-0.583-1.606,0c-0.669,0.733-1.325,1.477-1.993,2.21c-1.191,1.307-2.856,1.294-4.048-0.027
			c-0.629-0.695-1.257-1.392-1.883-2.09c-0.635-0.708-1.136-0.706-1.79,0.009c-0.766,0.841-1.542,1.67-2.295,2.521
			c-0.984,1.111-2.856,1.09-3.791,0.033c-0.938-1.061-2.054-1.966-3.105-2.925c-0.213-0.193-0.492-0.318-0.74-0.474
			c-0.03,0.034-0.06,0.068-0.091,0.103c0.163,0.272,0.292,0.572,0.493,0.81c0.928,1.104,1.848,2.215,2.823,3.274
			c1.166,1.267,1.142,2.704-0.139,3.883c-0.795,0.733-1.6,1.457-2.398,2.188c-0.771,0.705-0.759,1.155,0.046,1.859
			c0.706,0.616,1.416,1.229,2.12,1.851c1.299,1.146,1.309,2.832,0.021,4.01c-0.719,0.657-1.447,1.306-2.171,1.955
			c-0.658,0.593-0.656,1.119,0.011,1.724c0.708,0.643,1.42,1.278,2.131,1.918c1.302,1.172,1.321,2.826,0.036,4.012
			c-0.716,0.66-1.447,1.304-2.169,1.957c-0.668,0.604-0.671,1.111-0.006,1.723c0.864,0.792,1.736,1.574,2.598,2.37
			c1.132,1.043,1.141,2.606,0.05,3.678c-0.734,0.72-1.461,1.447-2.151,2.208C-210.184,59.699-210.592,60.286-211.031,60.846
			 M-168.396,31.638c0.03,0.034,0.061,0.067,0.092,0.102c-0.422,0.476-0.816,0.982-1.273,1.421c-0.625,0.599-1.304,1.14-1.945,1.72
			c-0.617,0.559-0.621,1.092-0.014,1.648c0.73,0.672,1.475,1.326,2.209,1.992c1.269,1.15,1.282,2.812,0.023,3.977
			c-0.742,0.686-1.504,1.352-2.25,2.029c-0.578,0.525-0.579,1.082,0.011,1.611c0.726,0.648,1.464,1.284,2.201,1.922
			c1.385,1.196,1.409,2.875,0.054,4.123c-0.85,0.78-1.709,1.551-2.557,2.334c-0.525,0.483-0.512,0.934-0.005,1.424
			c0.697,0.681,1.417,1.342,2.065,2.064c0.759,0.844,1.507,1.717,1.802,2.854c0.284,1.098-0.475,1.998-1.59,1.832
			c-0.497-0.072-1.042-0.271-1.424-0.586c-1.25-1.026-2.45-2.115-3.636-3.217c-0.62-0.574-1.009-0.613-1.587,0.012
			c-0.771,0.836-1.531,1.682-2.301,2.519c-1.179,1.283-2.839,1.276-4.015-0.015c-0.666-0.734-1.325-1.479-1.992-2.213
			c-0.531-0.586-1.066-0.586-1.606,0.007c-0.657,0.718-1.302,1.448-1.958,2.169c-1.227,1.349-2.867,1.35-4.085,0.005
			c-0.666-0.735-1.324-1.478-1.993-2.21c-0.49-0.538-1.031-0.551-1.537-0.018c-0.51,0.533-1.003,1.086-1.491,1.642
			c-0.57,0.649-1.093,1.353-2.019,1.562c0.129,1.057-0.357,1.752-1.084,2.424c-0.911,0.84-1.707,1.806-2.533,2.734
			c-0.231,0.26-0.394,0.58-0.587,0.873c0.295-0.023,0.537-0.109,0.71-0.27c1.118-1.019,2.218-2.055,3.33-3.078
			c0.222-0.204,0.449-0.426,0.715-0.557c1.007-0.492,2.129-0.244,2.95,0.637c0.799,0.857,1.581,1.73,2.373,2.597
			c0.577,0.631,1.126,0.629,1.68-0.006c0.641-0.733,1.276-1.472,1.92-2.202c1.195-1.355,2.856-1.366,4.085-0.023
			c0.658,0.719,1.301,1.451,1.957,2.172c0.56,0.611,1.078,0.609,1.645-0.01c0.657-0.72,1.305-1.447,1.957-2.173
			c1.181-1.312,2.853-1.315,4.05,0c0.657,0.722,1.302,1.451,1.957,2.173c0.565,0.621,1.082,0.625,1.642,0.012
			c0.816-0.893,1.621-1.793,2.444-2.68c1.002-1.076,2.557-1.088,3.606-0.059c0.875,0.857,1.755,1.714,2.664,2.536
			c0.384,0.345,0.849,0.601,1.275,0.896c0.041-0.044,0.081-0.087,0.119-0.131c-0.159-0.253-0.284-0.537-0.481-0.757
			c-0.933-1.024-1.787-2.154-2.853-3.019c-1.305-1.059-1.03-3.035,0.001-3.888c0.874-0.724,1.687-1.522,2.526-2.288
			c0.681-0.621,0.672-1.137-0.036-1.754c-0.719-0.63-1.442-1.254-2.159-1.886c-1.328-1.172-1.344-2.843-0.032-4.05
			c0.716-0.66,1.449-1.301,2.171-1.956c0.64-0.583,0.64-1.099-0.003-1.683c-0.719-0.656-1.447-1.304-2.171-1.955
			c-1.285-1.162-1.292-2.838-0.008-4.018c0.68-0.621,1.368-1.23,2.052-1.847c0.83-0.75,0.822-1.169-0.023-1.938
			c-0.813-0.74-1.637-1.473-2.438-2.226c-1.112-1.046-1.119-2.318-0.063-3.39c0.86-0.872,1.717-1.75,2.544-2.654
			c0.337-0.369,0.592-0.812,0.886-1.223c-0.039-0.033-0.079-0.066-0.118-0.099c-0.233,0.162-0.494,0.293-0.695,0.488
			c-0.956,0.928-1.913,1.857-2.838,2.818c-0.425,0.443-0.912,0.689-1.509,0.74C-167.856,31.657-168.127,31.638-168.396,31.638"/>
	</g>
	<g>
		<defs>
			<rect id="SVGID_8_" x="-212.759" y="17.984" width="52.012" height="52.005"/>
		</defs>
		<clipPath id="SVGID_9_">
			<use xlink:href="#SVGID_8_"  overflow="visible"/>
		</clipPath>
		
			<linearGradient id="SVGID_10_" gradientUnits="userSpaceOnUse" x1="-35.8813" y1="-230.7148" x2="-35.8813" y2="-229.7148" gradientTransform="matrix(1 0 0 -1 -156 -177)">
			<stop  offset="0" style="stop-color:#F05351"/>
			<stop  offset="1" style="stop-color:#E74C6D"/>
		</linearGradient>
		<path clip-path="url(#SVGID_9_)" fill="url(#SVGID_10_)" d="M-196.041,46.857c-0.11,0.404-0.186,0.72-0.281,1.025
			c-0.172,0.559-0.657,0.86-1.153,0.73c-0.421-0.111-0.616-0.588-0.469-1.162c0.232-0.906,0.466-1.812,0.707-2.717
			c0.168-0.635,0.542-0.861,1.164-0.705c0.942,0.238,1.882,0.482,2.821,0.736c0.549,0.146,0.827,0.571,0.701,1.029
			c-0.119,0.432-0.557,0.645-1.096,0.523c-0.312-0.069-0.62-0.159-1.068-0.276c0.885,1.495,2.042,2.407,3.6,2.783
			c1.306,0.315,2.575,0.168,3.786-0.425c0.098-0.049,0.19-0.104,0.289-0.146c0.487-0.207,0.981-0.072,1.179,0.319
			c0.218,0.432,0.039,0.907-0.44,1.179c-3.177,1.799-7.313,0.801-9.314-2.25C-195.734,47.325-195.852,47.146-196.041,46.857"/>
	</g>
	<g>
		<defs>
			<rect id="SVGID_11_" x="-212.759" y="17.984" width="52.012" height="52.005"/>
		</defs>
		<clipPath id="SVGID_12_">
			<use xlink:href="#SVGID_11_"  overflow="visible"/>
		</clipPath>
		
			<linearGradient id="SVGID_13_" gradientUnits="userSpaceOnUse" x1="-39.832" y1="-230.7139" x2="-39.832" y2="-229.714" gradientTransform="matrix(1 0 0 -1 -156 -177)">
			<stop  offset="0" style="stop-color:#F05351"/>
			<stop  offset="1" style="stop-color:#E74C6D"/>
		</linearGradient>
		<path clip-path="url(#SVGID_12_)" fill="url(#SVGID_13_)" d="M-193.423,32.156c-0.345-0.303-0.632-0.522-0.881-0.78
			c-0.354-0.368-0.351-0.828-0.026-1.154c0.326-0.329,0.796-0.34,1.153,0.02c0.738,0.74,1.464,1.495,2.177,2.258
			c0.36,0.386,0.354,0.773-0.014,1.153c-0.728,0.751-1.469,1.49-2.218,2.22c-0.398,0.387-0.852,0.385-1.193,0.031
			c-0.323-0.338-0.315-0.771,0.046-1.155c0.242-0.258,0.509-0.494,0.845-0.817c-0.893-0.111-1.625,0.039-2.314,0.335
			c-2.156,0.928-3.308,2.584-3.455,4.928c-0.043,0.683-0.385,1.045-0.946,0.957c-0.452-0.07-0.703-0.387-0.679-0.945
			c0.106-2.523,1.237-4.482,3.36-5.834c0.583-0.372,1.251-0.648,1.916-0.845C-194.991,32.332-194.283,32.292-193.423,32.156"/>
	</g>
	<g>
		<defs>
			<rect id="SVGID_14_" x="-212.759" y="17.984" width="52.012" height="52.005"/>
		</defs>
		<clipPath id="SVGID_15_">
			<use xlink:href="#SVGID_14_"  overflow="visible"/>
		</clipPath>
		
			<linearGradient id="SVGID_16_" gradientUnits="userSpaceOnUse" x1="-26.9253" y1="-230.7144" x2="-26.9253" y2="-229.7144" gradientTransform="matrix(1 0 0 -1 -156 -177)">
			<stop  offset="0" style="stop-color:#F05351"/>
			<stop  offset="1" style="stop-color:#E74C6D"/>
		</linearGradient>
		<path clip-path="url(#SVGID_15_)" fill="url(#SVGID_16_)" d="M-183.569,40.973c0.849-1.367,1.12-2.729,0.781-4.205
			c-0.348-1.516-1.17-2.688-2.506-3.499c-0.579-0.353-0.717-0.729-0.453-1.138c0.296-0.458,0.753-0.513,1.314-0.154
			c3.261,2.078,4.291,5.966,2.492,9.402c-0.05,0.094-0.097,0.188-0.192,0.375c0.391-0.1,0.696-0.178,1.001-0.255
			c0.598-0.149,0.997,0.032,1.127,0.513c0.126,0.473-0.139,0.885-0.69,1.036c-0.955,0.259-1.912,0.509-2.872,0.75
			c-0.537,0.136-0.939-0.087-1.085-0.61c-0.271-0.969-0.526-1.943-0.771-2.92c-0.138-0.551,0.116-0.988,0.596-1.094
			c0.457-0.102,0.805,0.15,0.966,0.709C-183.77,40.208-183.687,40.536-183.569,40.973"/>
	</g>
	<g>
		<defs>
			<rect id="SVGID_17_" x="-212.759" y="17.984" width="52.012" height="52.005"/>
		</defs>
		<clipPath id="SVGID_18_">
			<use xlink:href="#SVGID_17_"  overflow="visible"/>
		</clipPath>
		
			<linearGradient id="SVGID_19_" gradientUnits="userSpaceOnUse" x1="-45.2593" y1="-230.7148" x2="-45.2593" y2="-229.7148" gradientTransform="matrix(1 0 0 -1 -156 -177)">
			<stop  offset="0" style="stop-color:#F05351"/>
			<stop  offset="1" style="stop-color:#E74C6D"/>
		</linearGradient>
		<path clip-path="url(#SVGID_18_)" fill="url(#SVGID_19_)" d="M-201.253,30.77c-0.42,0.454-0.734,0.823-1.078,1.161
			c-0.43,0.422-0.875,0.429-1.228,0.051c-0.322-0.343-0.297-0.796,0.101-1.195c0.342-0.343,0.713-0.659,1.167-1.075
			c-0.389-0.341-0.712-0.599-1.008-0.886c-0.553-0.539-0.622-1.008-0.229-1.386c0.405-0.392,0.809-0.322,1.381,0.265
			c0.275,0.282,0.521,0.592,0.881,1.003c0.407-0.454,0.715-0.826,1.054-1.167c0.435-0.435,0.867-0.455,1.229-0.091
			c0.348,0.349,0.32,0.81-0.1,1.233c-0.329,0.332-0.682,0.64-1.154,1.081c0.298,0.238,0.55,0.408,0.763,0.616
			c0.788,0.773,0.931,1.216,0.493,1.61c-0.461,0.417-0.808,0.458-1.646-0.487C-200.806,31.3-200.979,31.091-201.253,30.77"/>
	</g>
	<g>
		<defs>
			<rect id="SVGID_20_" x="-212.759" y="17.984" width="52.012" height="52.005"/>
		</defs>
		<clipPath id="SVGID_21_">
			<use xlink:href="#SVGID_20_"  overflow="visible"/>
		</clipPath>
		
			<linearGradient id="SVGID_22_" gradientUnits="userSpaceOnUse" x1="-23.5815" y1="-230.7173" x2="-23.5815" y2="-229.7172" gradientTransform="matrix(1 0 0 -1 -156 -177)">
			<stop  offset="0" style="stop-color:#F05351"/>
			<stop  offset="1" style="stop-color:#E74C6D"/>
		</linearGradient>
		<path clip-path="url(#SVGID_21_)" fill="url(#SVGID_22_)" d="M-179.623,28.706c0.425-0.456,0.732-0.805,1.062-1.134
			c0.462-0.463,0.896-0.495,1.266-0.114c0.36,0.372,0.316,0.807-0.15,1.272c-0.318,0.317-0.654,0.618-1.045,0.984
			c0.38,0.365,0.717,0.68,1.042,1.007c0.467,0.468,0.514,0.9,0.154,1.272c-0.379,0.393-0.805,0.344-1.307-0.147
			c-0.295-0.291-0.587-0.583-0.885-0.874c-0.022-0.023-0.059-0.033-0.204-0.11c-0.31,0.347-0.629,0.738-0.986,1.092
			c-0.403,0.399-0.844,0.399-1.19,0.046c-0.337-0.342-0.323-0.791,0.072-1.19c0.34-0.346,0.71-0.662,1.218-1.127
			c-0.321-0.244-0.58-0.406-0.795-0.615c-0.799-0.778-0.916-1.183-0.499-1.612c0.44-0.453,0.827-0.343,1.651,0.497
			C-180.019,28.156-179.861,28.401-179.623,28.706"/>
	</g>
	<g>
		<defs>
			<rect id="SVGID_23_" x="-212.759" y="17.984" width="52.012" height="52.005"/>
		</defs>
		<clipPath id="SVGID_24_">
			<use xlink:href="#SVGID_23_"  overflow="visible"/>
		</clipPath>
		
			<linearGradient id="SVGID_25_" gradientUnits="userSpaceOnUse" x1="-45.2603" y1="-230.7144" x2="-45.2603" y2="-229.7145" gradientTransform="matrix(1 0 0 -1 -156 -177)">
			<stop  offset="0" style="stop-color:#F05351"/>
			<stop  offset="1" style="stop-color:#E74C6D"/>
		</linearGradient>
		<path clip-path="url(#SVGID_24_)" fill="url(#SVGID_25_)" d="M-202.34,51.336c-0.41-0.389-0.729-0.682-1.034-0.986
			c-0.477-0.476-0.528-0.951-0.156-1.312c0.367-0.356,0.833-0.296,1.311,0.19c0.303,0.308,0.584,0.633,0.949,1.031
			c0.392-0.416,0.713-0.775,1.054-1.113c0.419-0.418,0.886-0.446,1.233-0.101c0.347,0.349,0.318,0.815-0.098,1.231
			c-0.33,0.332-0.681,0.643-1.149,1.08c0.381,0.328,0.718,0.593,1.025,0.889c0.526,0.508,0.596,0.972,0.232,1.348
			c-0.372,0.383-0.841,0.319-1.349-0.193c-0.292-0.295-0.568-0.603-0.899-0.955c-0.381,0.375-0.72,0.711-1.063,1.041
			c-0.444,0.433-0.926,0.468-1.273,0.099c-0.33-0.353-0.288-0.81,0.137-1.233C-203.092,52.021-202.744,51.713-202.34,51.336"/>
	</g>
	<g>
		<defs>
			<rect id="SVGID_26_" x="-212.759" y="17.984" width="52.012" height="52.005"/>
		</defs>
		<clipPath id="SVGID_27_">
			<use xlink:href="#SVGID_26_"  overflow="visible"/>
		</clipPath>
		<path clip-path="url(#SVGID_27_)" d="M-179.604,52.393c-0.398,0.434-0.715,0.801-1.059,1.143
			c-0.395,0.393-0.852,0.406-1.192,0.072c-0.348-0.342-0.343-0.793,0.044-1.193c0.337-0.35,0.702-0.67,1.233-1.171
			c-0.316-0.229-0.604-0.39-0.831-0.61c-0.771-0.742-0.876-1.142-0.463-1.572c0.421-0.438,0.848-0.319,1.616,0.455
			c0.213,0.217,0.408,0.449,0.666,0.732c0.4-0.422,0.721-0.784,1.067-1.124c0.412-0.403,0.9-0.417,1.235-0.06
			c0.331,0.353,0.305,0.785-0.097,1.194c-0.339,0.345-0.698,0.669-1.113,1.065c0.415,0.396,0.786,0.732,1.134,1.089
			c0.392,0.401,0.402,0.853,0.055,1.192c-0.332,0.33-0.809,0.314-1.197-0.062C-178.854,53.203-179.179,52.842-179.604,52.393"/>
	</g>
</g>
<g>
	<g>
		<defs>
			<rect id="SVGID_28_" x="-268.415" y="-62.328" width="54.451" height="51.156"/>
		</defs>
		<clipPath id="SVGID_29_">
			<use xlink:href="#SVGID_28_"  overflow="visible"/>
		</clipPath>
		
			<linearGradient id="SVGID_30_" gradientUnits="userSpaceOnUse" x1="-599.9956" y1="-140.251" x2="-599.4163" y2="-140.251" gradientTransform="matrix(1 0 0 -1 -156 -177)">
			<stop  offset="0" style="stop-color:#F05351"/>
			<stop  offset="1" style="stop-color:#E74C6D"/>
		</linearGradient>
		<path clip-path="url(#SVGID_29_)" fill="url(#SVGID_30_)" d="M-241.066-62.315h22.234c1.521,0,1.521,0,1.521,1.539
			c0,0.451,0.042,0.908-0.006,1.356c-0.07,0.66,0.229,0.865,0.842,0.781c0.053-0.007,0.108-0.001,0.163-0.001
			c2.713,0.01,2.174-0.243,2.303,2.151c0.263,4.91-0.623,9.637-2.889,14.075c-0.254,0.498-0.395,1.107-0.396,1.665
			c-0.023,9.452-0.017,18.903-0.017,28.354c0,1.223-0.003,1.224-1.194,1.225c-15.038,0-30.076,0-45.114,0
			c-1.327,0-1.322-0.003-1.322-1.27c0-9.479,0.004-18.956-0.017-28.435c-0.001-0.454-0.143-0.948-0.355-1.354
			c-2.583-4.947-3.444-10.203-2.984-15.708c0.042-0.499,0.265-0.714,0.768-0.705c0.648,0.012,1.299-0.024,1.946,0.009
			c0.506,0.026,0.668-0.178,0.65-0.652c-0.025-0.691,0.027-1.386-0.013-2.076c-0.042-0.731,0.259-0.972,0.997-0.967
			c3.732,0.025,7.465,0.009,11.198,0.008c3.895-0.001,7.79,0,11.684,0L-241.066-62.315L-241.066-62.315z M-218.444-39.807
			c-3.69,4.179-5.709,5.79-9.446,7.227c-7.283,2.805-14.771,2.925-22.315,1.307c-5.43-1.164-9.991-3.81-13.379-8.244
			c-0.036-0.047-0.124-0.059-0.224-0.103v27.311h45.364V-39.807L-218.444-39.807z M-239.1-49.177
			c-0.183,0.028-0.264,0.026-0.333,0.053c-2.802,1.152-5.018-0.295-5.023-3.288c-0.006-2.609-0.002-5.219-0.002-7.829v-0.941
			h-19.349c-0.023,0.266-0.058,0.474-0.059,0.682c-0.003,6.019-0.008,12.038,0.015,18.057c0.001,0.368,0.166,0.778,0.368,1.1
			c2.302,3.658,5.534,6.279,9.591,7.785c7.918,2.941,15.974,2.981,24.018,0.55c4.648-1.404,8.382-4.141,10.995-8.235
			c0.281-0.442,0.464-1.031,0.466-1.552c0.033-5.805,0.021-11.61,0.021-17.416v-0.976h-3.312c0,0.339,0,0.625,0,0.913
			c-0.002,1.385,0.024,2.77-0.012,4.153c-0.06,2.294-2.355,3.791-4.539,2.983c-0.242-0.09-0.475-0.198-0.81-0.338
			c0,1.847,0.018,3.576-0.006,5.304c-0.021,1.534-0.986,2.831-2.521,3.1c-0.876,0.154-1.819-0.073-2.826-0.134
			c0,1.198,0.007,2.572-0.003,3.944c-0.011,1.955-1.421,3.406-3.302,3.417c-1.943,0.013-3.36-1.415-3.372-3.423
			c-0.013-2.343-0.003-4.688-0.003-7.03C-239.1-48.578-239.1-48.86-239.1-49.177 M-243.328-61.202c0,3.26-0.029,6.448,0.02,9.635
			c0.013,0.843,0.814,1.572,1.668,1.744c1.076,0.217,1.887-0.169,2.506-1.058c0.139-0.199,0.494-0.418,0.682-0.372
			c0.188,0.048,0.332,0.405,0.419,0.653c0.067,0.19,0.016,0.422,0.016,0.634c0.001,2.822-0.014,5.644,0.019,8.465
			c0.007,0.512,0.11,1.074,0.343,1.524c0.438,0.854,1.46,1.22,2.438,1.003c0.931-0.205,1.661-1.009,1.684-2.002
			c0.041-1.89,0-3.78,0.046-5.668c0.008-0.31,0.28-0.614,0.432-0.922c0.244,0.169,0.553,0.292,0.722,0.516
			c0.664,0.875,1.573,1.246,2.537,0.971c1.016-0.291,1.607-1.069,1.636-2.208c0.022-0.931,0.008-1.865,0.009-2.796
			c0-1.251-0.021-2.503,0.02-3.754c0.008-0.24,0.255-0.475,0.392-0.712c0.235,0.132,0.485,0.245,0.7,0.402
			c0.123,0.091,0.179,0.267,0.287,0.384c0.619,0.66,1.381,0.933,2.271,0.699c0.882-0.233,1.569-0.809,1.617-1.698
			c0.098-1.795,0.029-3.599,0.029-5.44H-243.328z M-264.994-44.472v-13.096c-0.485,0-0.918,0.043-1.338-0.01
			c-0.745-0.096-1.03,0.203-0.985,0.918c0.118,1.88,0.132,3.772,0.347,5.641C-266.709-48.75-266.084-46.555-264.994-44.472
			 M-217.264-44.654c1.857-4.09,2.394-8.388,2.137-12.857h-2.137V-44.654z"/>
	</g>
</g>
<g>
	<g>
		<defs>
			<rect id="SVGID_31_" x="6.19" y="5.746" width="55.257" height="55.773"/>
		</defs>
		<clipPath id="SVGID_32_">
			<use xlink:href="#SVGID_31_"  overflow="visible"/>
		</clipPath>
		
			<linearGradient id="SVGID_33_" gradientUnits="userSpaceOnUse" x1="162.1904" y1="-210.6328" x2="217.4492" y2="-210.6328" gradientTransform="matrix(1 0 0 -1 -156 -177)">
			<stop  offset="0" style="stop-color:#F05351"/>
			<stop  offset="1" style="stop-color:#E74C6D"/>
		</linearGradient>
		<path clip-path="url(#SVGID_32_)" fill="url(#SVGID_33_)" d="M51.865,28.372c0.406,0.198,0.81,0.404,1.211,0.611
			c0.588,0.302,1.193,0.612,1.802,0.89c0.623,0.284,1.151,0.343,1.575,0.173c0.39-0.157,0.699-0.514,0.917-1.064
			c1.163-2.923,2.377-6.075,3.933-10.222c0.35-0.927,0.078-1.673-0.854-2.349c-3.198-2.318-6.332-4.613-9.309-6.819
			c-0.293-0.218-0.604-0.43-0.904-0.636c-1.222-0.832-2.479-1.691-3.106-3.21h-4.126c-1.378,3.244-4.449,3.443-7.164,3.62
			l-0.062,0.003c-2.003,0.131-3.986-0.043-6.187-0.267c-2.57-0.262-4.208-1.36-4.999-3.356h-4.121
			c-0.647,1.536-1.926,2.406-3.165,3.25c-0.319,0.218-0.65,0.442-0.96,0.673c-3.351,2.492-6.178,4.578-9.083,6.658
			c-1.068,0.765-1.319,1.609-0.838,2.824c0.695,1.756,1.381,3.549,2.044,5.282c0.547,1.431,1.095,2.861,1.653,4.287
			c0.286,0.731,0.628,1.167,1.047,1.336c0.416,0.164,0.961,0.086,1.668-0.245c0.537-0.251,1.077-0.524,1.599-0.789
			c0.465-0.235,0.945-0.477,1.424-0.706c0.534-0.254,1.208-0.508,1.686-0.207c0.371,0.233,0.538,0.722,0.542,1.585
			c0.012,2.925,0.01,5.898,0.008,8.776l-0.003,7.527c-0.002,4.53-0.005,9.214,0.023,13.821c0.002,0.408,0.135,0.826,0.275,1.27
			c0.044,0.143,0.091,0.286,0.132,0.432h30.518c0.052-0.44,0.111-0.885,0.17-1.313c0.148-1.101,0.303-2.235,0.309-3.345
			c0.023-6.106,0.012-12.316,0-18.321c-0.007-2.899-0.012-5.801-0.015-8.702c0-0.689,0.065-1.435,0.55-1.737
			C50.538,27.798,51.242,28.067,51.865,28.372 M59.156,16.835l0.113,0.249c0.062,0.134,0.152,0.284,0.248,0.442
			c0.241,0.398,0.492,0.81,0.359,1.177c-0.917,2.554-1.883,5.035-2.904,7.662c-0.294,0.753-0.588,1.51-0.882,2.273l-0.112,0.293
			l-1.764-0.907l4.18-10.874L59.156,16.835z M21.655,7.238c1.256-0.341,2.105-0.103,2.932,0.821
			c1.392,1.555,3.421,2.039,5.381,2.401c3.701,0.683,7.144,0.438,10.229-0.731c0.675-0.256,1.293-0.652,1.947-1.071
			c0.295-0.19,0.602-0.386,0.909-0.565l2.375-1.381l0.815,0.791L46.14,7.691c-0.108,0.197-0.202,0.417-0.3,0.649
			c-0.229,0.539-0.466,1.098-0.922,1.405l-0.422,0.288c-1.412,0.963-2.873,1.958-4.485,2.414c-2.095,0.593-4.202,0.889-6.31,0.889
			c-2.434,0-4.867-0.396-7.281-1.185c-1.727-0.564-4.121-1.653-4.962-4.562l-0.08-0.274L21.655,7.238z M11.617,28.931l-0.113-0.292
			c-0.298-0.771-0.596-1.536-0.891-2.297c-1.017-2.614-1.978-5.085-2.895-7.627c-0.132-0.366,0.09-0.774,0.306-1.171
			c0.086-0.158,0.167-0.306,0.221-0.442l0.083-0.209l0.814,0.126l4.24,11L11.617,28.931z M48.096,60.082H19.479v-2.174h28.617
			V60.082z M49.25,27.085c-0.676,0.466-1.057,1.259-1.071,2.233c-0.034,2.042-0.026,4.121-0.021,6.13
			c0.004,0.864,0.007,1.729,0.007,2.596v18.333H19.434V30.398c0-1.723-0.35-2.804-1.07-3.305c-0.731-0.509-1.896-0.458-3.562,0.158
			l-0.262,0.097l-4.412-11.469l10.034-7.368l0.163,0.248c3.341,5.052,8.661,5.743,13.424,5.751h0.072
			c8.46,0,11.544-2.905,13.447-5.75l0.163-0.244l10.032,7.356l-4.416,11.493l-0.643-0.251c-0.226-0.089-0.42-0.167-0.617-0.237
			C50.859,26.54,49.933,26.616,49.25,27.085"/>
	</g>
	<g>
		<defs>
			<rect id="SVGID_34_" x="6.19" y="5.746" width="55.257" height="55.773"/>
		</defs>
		<clipPath id="SVGID_35_">
			<use xlink:href="#SVGID_34_"  overflow="visible"/>
		</clipPath>
		
			<linearGradient id="SVGID_36_" gradientUnits="userSpaceOnUse" x1="177.8838" y1="-208.7393" x2="201.7207" y2="-208.7393" gradientTransform="matrix(1 0 0 -1 -156 -177)">
			<stop  offset="0" style="stop-color:#F05351"/>
			<stop  offset="1" style="stop-color:#E74C6D"/>
		</linearGradient>
		<path clip-path="url(#SVGID_35_)" fill="url(#SVGID_36_)" d="M45.693,26.336c-0.049-2.714-1.896-4.563-4.598-4.6
			c-1.691-0.023-3.415-0.018-5.08-0.012c-0.742,0.003-1.485,0.006-2.229,0.006c-0.75,0.003-1.51-0.003-2.265-0.006
			c-0.731-0.002-1.475-0.005-2.221-0.005c-0.939,0-1.885,0.004-2.821,0.02c-2.695,0.042-4.535,1.896-4.579,4.618
			c-0.026,1.604-0.016,3.237-0.007,4.817l0.005,0.942c0,0.065-0.002,0.136-0.004,0.21c-0.004,0.159-0.013,0.455,0.033,0.529
			c1.024,0.768,0.955,1.803,0.895,2.716c-0.019,0.281-0.037,0.548-0.025,0.804c0.038,0.865,0.029,1.742,0.022,2.591
			c-0.005,0.499-0.01,0.998-0.005,1.498c0.005,0.692,0.081,1.048,0.25,1.188c0.165,0.138,0.519,0.145,1.181,0.021
			c1.653-0.302,3.305-0.607,4.958-0.913c4.624-0.853,9.401-1.735,14.116-2.536c1.229-0.209,1.576-0.636,1.483-1.832
			c-0.012-0.148-0.026-0.312-0.045-0.479c-0.096-0.938-0.194-1.906,0.294-2.328c0.684-0.588,0.662-1.202,0.639-1.915
			c-0.006-0.183-0.014-0.373-0.006-0.565C45.736,29.599,45.727,28.109,45.693,26.336 M40.806,37.311l-0.054,0.01
			c-3.007,0.543-6.01,1.095-9.013,1.646c-1.875,0.347-3.749,0.689-5.623,1.031c-0.31,0.058-0.62,0.096-0.979,0.14
			c-0.183,0.023-0.379,0.047-0.596,0.077l-0.319,0.043V33.43h18.904l0.083,0.12c0.025,0.035,0.046,0.06,0.062,0.082
			c0.043,0.054,0.099,0.123,0.109,0.229C43.682,36.682,43.586,36.811,40.806,37.311 M44.423,29.804
			c-0.007,0.588-0.015,1.19-0.015,1.806v0.282H23.221V31.61c0-0.609-0.009-1.212-0.018-1.812c-0.021-1.42-0.04-2.763,0.049-4.131
			c0.105-1.609,1.233-2.619,2.943-2.637c5.206-0.056,10.322-0.056,15.208,0c1.779,0.021,2.896,1.113,2.986,2.922
			C44.451,27.217,44.438,28.473,44.423,29.804"/>
	</g>
	<g>
		<defs>
			<rect id="SVGID_37_" x="6.19" y="5.746" width="55.257" height="55.773"/>
		</defs>
		<clipPath id="SVGID_38_">
			<use xlink:href="#SVGID_37_"  overflow="visible"/>
		</clipPath>
		
			<linearGradient id="SVGID_39_" gradientUnits="userSpaceOnUse" x1="198.207" y1="-219.5801" x2="200.2002" y2="-219.5801" gradientTransform="matrix(1 0 0 -1 -156 -177)">
			<stop  offset="0" style="stop-color:#F05351"/>
			<stop  offset="0.4442" style="stop-color:#EC505F"/>
			<stop  offset="1" style="stop-color:#E74C6D"/>
		</linearGradient>
		<path clip-path="url(#SVGID_38_)" fill="url(#SVGID_39_)" d="M42.253,42.337c0.172-0.694-0.488-2.092,0.985-2.054
			c1.283,0.033,0.824,1.326,0.902,2.145c0.041,0.42,0.124,0.895-0.027,1.252c-0.188,0.449-0.598,0.803-0.914,1.198
			c-0.314-0.385-0.729-0.729-0.916-1.169C42.131,43.352,42.253,42.878,42.253,42.337"/>
	</g>
	<g>
		<defs>
			<rect id="SVGID_40_" x="6.19" y="5.746" width="55.257" height="55.773"/>
		</defs>
		<clipPath id="SVGID_41_">
			<use xlink:href="#SVGID_40_"  overflow="visible"/>
		</clipPath>
		
			<linearGradient id="SVGID_42_" gradientUnits="userSpaceOnUse" x1="197.9248" y1="-219.6655" x2="200.4824" y2="-219.6655" gradientTransform="matrix(1 0 0 -1 -156 -177)">
			<stop  offset="0" style="stop-color:#F05351"/>
			<stop  offset="1" style="stop-color:#E74C6D"/>
		</linearGradient>
		<path clip-path="url(#SVGID_41_)" fill="url(#SVGID_42_)" d="M43.205,45.328l-0.223-0.27c-0.093-0.113-0.191-0.222-0.293-0.33
			c-0.254-0.272-0.517-0.557-0.666-0.91c-0.129-0.303-0.104-0.643-0.078-1c0.013-0.155,0.024-0.316,0.024-0.48l0.009-0.066
			c0.037-0.151,0.022-0.375,0.006-0.61c-0.029-0.463-0.064-0.986,0.271-1.338c0.218-0.226,0.543-0.331,0.99-0.319
			c0.388,0.01,0.687,0.124,0.888,0.342c0.349,0.375,0.317,0.955,0.292,1.467c-0.011,0.215-0.021,0.418-0.004,0.592l0.02,0.176
			c0.041,0.393,0.09,0.837-0.066,1.213c-0.15,0.355-0.411,0.646-0.663,0.927c-0.101,0.111-0.199,0.224-0.292,0.339L43.205,45.328z
			 M42.533,42.37c-0.002,0.174-0.014,0.335-0.024,0.489c-0.022,0.302-0.043,0.561,0.033,0.738c0.11,0.264,0.33,0.498,0.562,0.748
			c0.031,0.033,0.063,0.067,0.094,0.103c0.031-0.035,0.064-0.071,0.097-0.106c0.229-0.258,0.446-0.501,0.562-0.77
			c0.102-0.241,0.062-0.594,0.025-0.934l-0.02-0.184c-0.021-0.213-0.01-0.447,0.004-0.674c0.021-0.42,0.043-0.854-0.146-1.055
			c-0.094-0.104-0.255-0.155-0.487-0.162c-0.274-0.008-0.469,0.043-0.568,0.147c-0.165,0.172-0.141,0.545-0.116,0.908
			C42.564,41.877,42.582,42.141,42.533,42.37"/>
	</g>
	<g>
		<defs>
			<rect id="SVGID_43_" x="6.19" y="5.746" width="55.257" height="55.773"/>
		</defs>
		<clipPath id="SVGID_44_">
			<use xlink:href="#SVGID_43_"  overflow="visible"/>
		</clipPath>
		
			<linearGradient id="SVGID_45_" gradientUnits="userSpaceOnUse" x1="190.6533" y1="-221.4292" x2="192.6611" y2="-221.4292" gradientTransform="matrix(1 0 0 -1 -156 -177)">
			<stop  offset="0" style="stop-color:#F05351"/>
			<stop  offset="0.4442" style="stop-color:#EC505F"/>
			<stop  offset="1" style="stop-color:#E74C6D"/>
		</linearGradient>
		<path clip-path="url(#SVGID_44_)" fill="url(#SVGID_45_)" d="M36.609,44.473c0,0.422,0.121,0.896-0.031,1.25
			c-0.176,0.4-0.6,0.693-0.915,1.034c-0.312-0.348-0.824-0.655-0.897-1.049c-0.145-0.771-0.15-1.604-0.01-2.375
			c0.083-0.448,0.561-0.824,0.857-1.231c0.334,0.416,0.746,0.793,0.974,1.26c0.147,0.303,0.028,0.734,0.028,1.111H36.609z"/>
	</g>
	<g>
		<defs>
			<rect id="SVGID_46_" x="6.19" y="5.746" width="55.257" height="55.773"/>
		</defs>
		<clipPath id="SVGID_47_">
			<use xlink:href="#SVGID_46_"  overflow="visible"/>
		</clipPath>
		
			<linearGradient id="SVGID_48_" gradientUnits="userSpaceOnUse" x1="190.373" y1="-221.4067" x2="192.9414" y2="-221.4067" gradientTransform="matrix(1 0 0 -1 -156 -177)">
			<stop  offset="0" style="stop-color:#F05351"/>
			<stop  offset="0.4442" style="stop-color:#EC505F"/>
			<stop  offset="1" style="stop-color:#E74C6D"/>
		</linearGradient>
		<path clip-path="url(#SVGID_47_)" fill="url(#SVGID_48_)" d="M35.66,47.175l-0.206-0.229c-0.087-0.096-0.195-0.192-0.31-0.295
			c-0.289-0.26-0.588-0.525-0.657-0.89c-0.15-0.805-0.154-1.684-0.009-2.479c0.07-0.388,0.346-0.695,0.612-0.994
			c0.108-0.122,0.211-0.237,0.296-0.354l0.217-0.295l0.229,0.286c0.096,0.121,0.2,0.237,0.305,0.355
			c0.259,0.292,0.525,0.595,0.702,0.956c0.137,0.279,0.105,0.597,0.078,0.902c-0.012,0.112-0.021,0.226-0.021,0.332v0.148
			c0.004,0.074,0.01,0.148,0.018,0.227c0.029,0.332,0.058,0.678-0.077,0.989c-0.146,0.332-0.414,0.583-0.674,0.825
			c-0.101,0.095-0.202,0.188-0.294,0.288L35.66,47.175z M35.617,42.541c-0.033,0.042-0.069,0.082-0.105,0.121
			c-0.225,0.252-0.436,0.49-0.479,0.722c-0.133,0.729-0.128,1.534,0.01,2.272c0.033,0.175,0.26,0.378,0.479,0.572
			c0.047,0.043,0.096,0.088,0.143,0.131c0.039-0.037,0.076-0.073,0.115-0.108c0.229-0.214,0.442-0.414,0.543-0.642
			c0.078-0.18,0.057-0.44,0.031-0.717c-0.013-0.143-0.022-0.285-0.022-0.422v-0.281h0.021c0.002-0.035,0.006-0.068,0.008-0.104
			c0.021-0.228,0.043-0.463-0.022-0.603c-0.144-0.293-0.373-0.553-0.618-0.83L35.617,42.541z"/>
	</g>
	<g>
		<defs>
			<rect id="SVGID_49_" x="6.19" y="5.746" width="55.257" height="55.773"/>
		</defs>
		<clipPath id="SVGID_50_">
			<use xlink:href="#SVGID_49_"  overflow="visible"/>
		</clipPath>
		
			<linearGradient id="SVGID_51_" gradientUnits="userSpaceOnUse" x1="186.9424" y1="-222.3662" x2="188.9258" y2="-222.3662" gradientTransform="matrix(1 0 0 -1 -156 -177)">
			<stop  offset="0" style="stop-color:#F05351"/>
			<stop  offset="0.4442" style="stop-color:#EC505F"/>
			<stop  offset="1" style="stop-color:#E74C6D"/>
		</linearGradient>
		<path clip-path="url(#SVGID_50_)" fill="url(#SVGID_51_)" d="M30.986,45.387c-0.001-0.422-0.114-0.889,0.028-1.254
			c0.163-0.412,0.556-0.732,0.849-1.094c0.333,0.322,0.895,0.607,0.955,0.977c0.143,0.867,0.142,1.787,0.005,2.655
			c-0.061,0.379-0.598,0.685-0.918,1.022c-0.306-0.348-0.717-0.65-0.886-1.055C30.87,46.28,30.988,45.809,30.986,45.387"/>
	</g>
	<g>
		<defs>
			<rect id="SVGID_52_" x="6.19" y="5.746" width="55.257" height="55.773"/>
		</defs>
		<clipPath id="SVGID_53_">
			<use xlink:href="#SVGID_52_"  overflow="visible"/>
		</clipPath>
		
			<linearGradient id="SVGID_54_" gradientUnits="userSpaceOnUse" x1="186.6621" y1="-222.3682" x2="189.208" y2="-222.3682" gradientTransform="matrix(1 0 0 -1 -156 -177)">
			<stop  offset="0" style="stop-color:#F05351"/>
			<stop  offset="1" style="stop-color:#E74C6D"/>
		</linearGradient>
		<path clip-path="url(#SVGID_53_)" fill="url(#SVGID_54_)" d="M31.898,48.111l-0.203-0.231c-0.089-0.103-0.187-0.196-0.285-0.294
			c-0.25-0.248-0.51-0.504-0.649-0.839c-0.13-0.312-0.102-0.651-0.075-0.981c0.011-0.127,0.021-0.255,0.021-0.377l0,0
			c0-0.121-0.011-0.246-0.021-0.371c-0.027-0.33-0.054-0.672,0.069-0.985c0.133-0.339,0.381-0.604,0.619-0.861
			c0.094-0.103,0.188-0.203,0.272-0.307l0.193-0.239l0.222,0.215c0.092,0.09,0.209,0.18,0.332,0.274
			c0.317,0.243,0.645,0.493,0.704,0.856c0.147,0.891,0.148,1.84,0.005,2.745c-0.058,0.364-0.37,0.628-0.671,0.884
			c-0.118,0.101-0.229,0.193-0.319,0.289L31.898,48.111z M31.269,45.385c0,0.139-0.011,0.282-0.022,0.426
			c-0.022,0.274-0.044,0.535,0.034,0.72c0.096,0.229,0.305,0.437,0.525,0.655c0.037,0.035,0.074,0.072,0.111,0.109
			c0.05-0.042,0.1-0.086,0.148-0.127c0.213-0.18,0.454-0.384,0.479-0.542c0.135-0.847,0.133-1.733-0.004-2.565
			c-0.023-0.143-0.282-0.342-0.491-0.502c-0.052-0.039-0.105-0.08-0.157-0.121c-0.035,0.037-0.071,0.076-0.106,0.113
			c-0.214,0.23-0.414,0.447-0.508,0.686c-0.076,0.193-0.054,0.457-0.032,0.734C31.257,45.111,31.268,45.251,31.269,45.385"/>
	</g>
	<g>
		<defs>
			<rect id="SVGID_55_" x="6.19" y="5.746" width="55.257" height="55.773"/>
		</defs>
		<clipPath id="SVGID_56_">
			<use xlink:href="#SVGID_55_"  overflow="visible"/>
		</clipPath>
		
			<linearGradient id="SVGID_57_" gradientUnits="userSpaceOnUse" x1="179.3789" y1="-224.2427" x2="181.3896" y2="-224.2427" gradientTransform="matrix(1 0 0 -1 -156 -177)">
			<stop  offset="0" style="stop-color:#F05351"/>
			<stop  offset="0.4442" style="stop-color:#EC505F"/>
			<stop  offset="1" style="stop-color:#E74C6D"/>
		</linearGradient>
		<path clip-path="url(#SVGID_56_)" fill="url(#SVGID_57_)" d="M25.348,47.236c0,0.375,0.111,0.799-0.027,1.113
			c-0.195,0.446-0.573,0.814-0.873,1.219c-0.333-0.375-0.866-0.709-0.952-1.133c-0.156-0.766-0.155-1.605-0.001-2.371
			c0.086-0.43,0.612-0.769,0.94-1.147c0.304,0.397,0.687,0.763,0.886,1.207C25.46,46.436,25.347,46.861,25.348,47.236"/>
	</g>
	<g>
		<defs>
			<rect id="SVGID_58_" x="6.19" y="5.746" width="55.257" height="55.773"/>
		</defs>
		<clipPath id="SVGID_59_">
			<use xlink:href="#SVGID_58_"  overflow="visible"/>
		</clipPath>
		
			<linearGradient id="SVGID_60_" gradientUnits="userSpaceOnUse" x1="179.0967" y1="-224.2432" x2="181.6719" y2="-224.2432" gradientTransform="matrix(1 0 0 -1 -156 -177)">
			<stop  offset="0" style="stop-color:#F05351"/>
			<stop  offset="1" style="stop-color:#E74C6D"/>
		</linearGradient>
		<path clip-path="url(#SVGID_59_)" fill="url(#SVGID_60_)" d="M24.467,50.014l-0.23-0.26c-0.094-0.104-0.208-0.209-0.328-0.32
			c-0.301-0.273-0.612-0.56-0.69-0.941c-0.163-0.797-0.163-1.68-0.001-2.483c0.077-0.384,0.383-0.671,0.68-0.95
			c0.119-0.111,0.231-0.218,0.324-0.324l0.227-0.262l0.209,0.274c0.088,0.114,0.184,0.229,0.28,0.341
			c0.238,0.282,0.484,0.573,0.639,0.922c0.126,0.282,0.099,0.594,0.072,0.896c-0.01,0.112-0.02,0.225-0.02,0.333l0,0
			c0,0.105,0.01,0.219,0.02,0.33c0.027,0.302,0.054,0.611-0.07,0.896c-0.152,0.351-0.395,0.644-0.63,0.929
			c-0.094,0.113-0.188,0.229-0.275,0.346L24.467,50.014z M24.417,45.342c-0.044,0.043-0.089,0.084-0.132,0.126
			c-0.232,0.22-0.472,0.444-0.513,0.651c-0.147,0.73-0.147,1.533,0,2.26c0.042,0.203,0.284,0.426,0.518,0.641
			c0.045,0.039,0.09,0.082,0.134,0.123c0.03-0.037,0.06-0.074,0.09-0.109c0.219-0.268,0.427-0.52,0.548-0.797
			c0.066-0.151,0.046-0.379,0.025-0.619c-0.011-0.128-0.022-0.258-0.022-0.381s0.011-0.254,0.023-0.383
			c0.021-0.239,0.041-0.467-0.026-0.615c-0.123-0.274-0.332-0.523-0.555-0.786C24.478,45.415,24.446,45.379,24.417,45.342"/>
	</g>
	<g>
		<defs>
			<rect id="SVGID_61_" x="6.19" y="5.746" width="55.257" height="55.773"/>
		</defs>
		<clipPath id="SVGID_62_">
			<use xlink:href="#SVGID_61_"  overflow="visible"/>
		</clipPath>
		
			<linearGradient id="SVGID_63_" gradientUnits="userSpaceOnUse" x1="194.4863" y1="-220.4565" x2="196.3809" y2="-220.4565" gradientTransform="matrix(1 0 0 -1 -156 -177)">
			<stop  offset="0" style="stop-color:#F05351"/>
			<stop  offset="0.4442" style="stop-color:#EC505F"/>
			<stop  offset="1" style="stop-color:#E74C6D"/>
		</linearGradient>
		<path clip-path="url(#SVGID_62_)" fill="url(#SVGID_63_)" d="M40.329,43.521c0,0.465,0.114,0.973-0.035,1.381
			c-0.131,0.352-0.563,0.813-0.862,0.813c-0.299,0.001-0.814-0.483-0.855-0.805c-0.119-0.914-0.118-1.861-0.008-2.776
			c0.039-0.34,0.516-0.626,0.793-0.938c0.322,0.311,0.78,0.566,0.936,0.945c0.164,0.397,0.037,0.914,0.037,1.379H40.329
			L40.329,43.521z"/>
	</g>
	<g>
		<defs>
			<rect id="SVGID_64_" x="6.19" y="5.746" width="55.257" height="55.773"/>
		</defs>
		<clipPath id="SVGID_65_">
			<use xlink:href="#SVGID_64_"  overflow="visible"/>
		</clipPath>
		
			<linearGradient id="SVGID_66_" gradientUnits="userSpaceOnUse" x1="194.2021" y1="-220.395" x2="196.6611" y2="-220.395" gradientTransform="matrix(1 0 0 -1 -156 -177)">
			<stop  offset="0" style="stop-color:#F05351"/>
			<stop  offset="1" style="stop-color:#E74C6D"/>
		</linearGradient>
		<path clip-path="url(#SVGID_65_)" fill="url(#SVGID_66_)" d="M39.432,45.998c-0.439,0-1.076-0.589-1.136-1.053
			c-0.122-0.928-0.124-1.885-0.009-2.844c0.042-0.338,0.318-0.586,0.586-0.826c0.104-0.094,0.201-0.18,0.277-0.266l0.192-0.218
			l0.212,0.202c0.094,0.09,0.198,0.174,0.303,0.259c0.277,0.224,0.563,0.453,0.699,0.784c0.139,0.34,0.109,0.714,0.081,1.074
			c-0.013,0.138-0.024,0.275-0.024,0.41v0.164c0.004,0.08,0.012,0.162,0.019,0.244c0.024,0.357,0.052,0.728-0.074,1.068
			C40.406,45.406,39.896,45.998,39.432,45.998L39.432,45.998z M39.372,41.583c-0.041,0.038-0.082,0.075-0.123,0.11
			c-0.173,0.154-0.388,0.347-0.401,0.475c-0.109,0.898-0.107,1.835,0.006,2.706c0.025,0.19,0.432,0.56,0.578,0.56
			c0.126,0,0.488-0.332,0.598-0.629c0.084-0.229,0.062-0.521,0.041-0.834c-0.013-0.15-0.022-0.302-0.022-0.449v-0.279h0.017
			c0.004-0.061,0.008-0.117,0.014-0.176c0.023-0.31,0.048-0.602-0.04-0.814c-0.08-0.197-0.3-0.373-0.531-0.561
			C39.462,41.657,39.416,41.621,39.372,41.583"/>
	</g>
	<g>
		<defs>
			<rect id="SVGID_67_" x="6.19" y="5.746" width="55.257" height="55.773"/>
		</defs>
		<clipPath id="SVGID_68_">
			<use xlink:href="#SVGID_67_"  overflow="visible"/>
		</clipPath>
		
			<linearGradient id="SVGID_69_" gradientUnits="userSpaceOnUse" x1="183.1846" y1="-223.3066" x2="185.1182" y2="-223.3066" gradientTransform="matrix(1 0 0 -1 -156 -177)">
			<stop  offset="0" style="stop-color:#F05351"/>
			<stop  offset="0.4442" style="stop-color:#EC505F"/>
			<stop  offset="1" style="stop-color:#E74C6D"/>
		</linearGradient>
		<path clip-path="url(#SVGID_68_)" fill="url(#SVGID_69_)" d="M29.077,46.311c0,0.371,0.109,0.791-0.027,1.104
			c-0.189,0.436-0.562,0.793-0.857,1.184c-0.314-0.371-0.819-0.705-0.899-1.121c-0.146-0.762-0.147-1.592,0.001-2.353
			c0.08-0.413,0.591-0.742,0.908-1.108c0.29,0.348,0.681,0.654,0.839,1.055c0.143,0.361,0.03,0.824,0.03,1.242h0.005V46.311z"/>
	</g>
	<g>
		<defs>
			<rect id="SVGID_70_" x="6.19" y="5.746" width="55.257" height="55.773"/>
		</defs>
		<clipPath id="SVGID_71_">
			<use xlink:href="#SVGID_70_"  overflow="visible"/>
		</clipPath>
		
			<linearGradient id="SVGID_72_" gradientUnits="userSpaceOnUse" x1="182.9023" y1="-223.3125" x2="185.4004" y2="-223.3125" gradientTransform="matrix(1 0 0 -1 -156 -177)">
			<stop  offset="0" style="stop-color:#F05351"/>
			<stop  offset="1" style="stop-color:#E74C6D"/>
		</linearGradient>
		<path clip-path="url(#SVGID_71_)" fill="url(#SVGID_72_)" d="M28.206,49.047l-0.228-0.27c-0.088-0.104-0.196-0.209-0.31-0.317
			c-0.285-0.272-0.579-0.558-0.651-0.933c-0.153-0.795-0.152-1.668,0.001-2.459c0.072-0.373,0.37-0.653,0.659-0.926
			c0.115-0.107,0.224-0.211,0.313-0.312l0.217-0.252l0.212,0.255c0.084,0.103,0.177,0.197,0.27,0.295
			c0.238,0.249,0.485,0.507,0.615,0.837c0.123,0.312,0.096,0.649,0.07,0.977c-0.006,0.084-0.014,0.168-0.018,0.25l0.002,0.119
			c0,0.105,0.01,0.217,0.02,0.328c0.026,0.297,0.053,0.605-0.07,0.887c-0.148,0.344-0.388,0.629-0.62,0.906
			c-0.093,0.109-0.185,0.221-0.271,0.334L28.206,49.047z M28.196,44.427c-0.044,0.044-0.088,0.087-0.133,0.128
			c-0.223,0.209-0.454,0.428-0.492,0.623c-0.14,0.721-0.141,1.518-0.001,2.244c0.039,0.199,0.267,0.419,0.488,0.633
			c0.039,0.037,0.078,0.075,0.117,0.112c0.027-0.032,0.054-0.063,0.081-0.099c0.216-0.258,0.419-0.5,0.536-0.77
			c0.066-0.15,0.045-0.374,0.025-0.611c-0.003-0.031-0.005-0.064-0.008-0.097H28.79v-0.28c0-0.137,0.011-0.275,0.022-0.416
			c0.022-0.273,0.042-0.533-0.033-0.724c-0.089-0.228-0.288-0.437-0.498-0.653C28.254,44.489,28.225,44.458,28.196,44.427"/>
	</g>
	<g>
		<defs>
			<rect id="SVGID_73_" x="6.19" y="5.746" width="55.257" height="55.773"/>
		</defs>
		<clipPath id="SVGID_74_">
			<use xlink:href="#SVGID_73_"  overflow="visible"/>
		</clipPath>
		
			<linearGradient id="SVGID_75_" gradientUnits="userSpaceOnUse" x1="198.2256" y1="-225.1714" x2="200.5703" y2="-225.1714" gradientTransform="matrix(1 0 0 -1 -156 -177)">
			<stop  offset="0" style="stop-color:#F05351"/>
			<stop  offset="0.4442" style="stop-color:#EC505F"/>
			<stop  offset="1" style="stop-color:#E74C6D"/>
		</linearGradient>
		<path clip-path="url(#SVGID_74_)" fill="url(#SVGID_75_)" d="M44.57,48.209c-0.598,0.607-0.94,1.27-1.344,1.305
			c-0.941,0.084-1.119-0.74-0.938-1.441c0.118-0.465,0.599-0.836,0.917-1.249C43.597,47.221,43.988,47.62,44.57,48.209"/>
	</g>
	<g>
		<defs>
			<rect id="SVGID_76_" x="6.19" y="5.746" width="55.257" height="55.773"/>
		</defs>
		<clipPath id="SVGID_77_">
			<use xlink:href="#SVGID_76_"  overflow="visible"/>
		</clipPath>
		
			<linearGradient id="SVGID_78_" gradientUnits="userSpaceOnUse" x1="197.9443" y1="-225.0977" x2="200.9668" y2="-225.0977" gradientTransform="matrix(1 0 0 -1 -156 -177)">
			<stop  offset="0" style="stop-color:#F05351"/>
			<stop  offset="1" style="stop-color:#E74C6D"/>
		</linearGradient>
		<path clip-path="url(#SVGID_77_)" fill="url(#SVGID_78_)" d="M43.097,49.801c-0.454,0-0.72-0.193-0.866-0.365
			c-0.279-0.33-0.36-0.865-0.216-1.435c0.101-0.39,0.384-0.696,0.657-0.993c0.111-0.123,0.219-0.24,0.311-0.357l0.196-0.256
			l1.788,1.814l-0.193,0.198c-0.197,0.198-0.369,0.411-0.522,0.597c-0.345,0.422-0.616,0.756-0.997,0.789
			C43.197,49.799,43.146,49.801,43.097,49.801 M43.222,47.242c-0.045,0.05-0.091,0.099-0.135,0.146
			c-0.237,0.258-0.461,0.502-0.524,0.754c-0.101,0.385-0.062,0.74,0.098,0.928c0.109,0.131,0.293,0.187,0.543,0.162
			c0.146-0.014,0.384-0.303,0.611-0.584c0.111-0.137,0.231-0.282,0.366-0.434L43.222,47.242z"/>
	</g>
	<g>
		<defs>
			<rect id="SVGID_79_" x="6.19" y="5.746" width="55.257" height="55.773"/>
		</defs>
		<clipPath id="SVGID_80_">
			<use xlink:href="#SVGID_79_"  overflow="visible"/>
		</clipPath>
		
			<linearGradient id="SVGID_81_" gradientUnits="userSpaceOnUse" x1="190.2197" y1="-227.0449" x2="192.5498" y2="-227.0449" gradientTransform="matrix(1 0 0 -1 -156 -177)">
			<stop  offset="0" style="stop-color:#F05351"/>
			<stop  offset="0.4442" style="stop-color:#EC505F"/>
			<stop  offset="1" style="stop-color:#E74C6D"/>
		</linearGradient>
		<path clip-path="url(#SVGID_80_)" fill="url(#SVGID_81_)" d="M34.22,50.038c0.68-0.619,1.093-0.992,1.501-1.366
			c0.299,0.488,0.811,0.969,0.829,1.469c0.017,0.414-0.547,0.852-0.853,1.277C35.293,51.04,34.889,50.663,34.22,50.038"/>
	</g>
	<g>
		<defs>
			<rect id="SVGID_82_" x="6.19" y="5.746" width="55.257" height="55.773"/>
		</defs>
		<clipPath id="SVGID_83_">
			<use xlink:href="#SVGID_82_"  overflow="visible"/>
		</clipPath>
		
			<linearGradient id="SVGID_84_" gradientUnits="userSpaceOnUse" x1="189.8027" y1="-227.0371" x2="192.832" y2="-227.0371" gradientTransform="matrix(1 0 0 -1 -156 -177)">
			<stop  offset="0" style="stop-color:#F05351"/>
			<stop  offset="1" style="stop-color:#E74C6D"/>
		</linearGradient>
		<path clip-path="url(#SVGID_83_)" fill="url(#SVGID_84_)" d="M35.738,51.842l-1.936-1.807l1.98-1.803l0.178,0.291
			c0.084,0.137,0.188,0.274,0.294,0.42c0.274,0.367,0.56,0.748,0.576,1.185c0.016,0.399-0.294,0.747-0.595,1.081
			c-0.115,0.131-0.228,0.254-0.312,0.373L35.738,51.842z M34.635,50.041l1.033,0.964c0.049-0.058,0.1-0.114,0.15-0.171
			c0.213-0.238,0.455-0.511,0.449-0.684c-0.01-0.262-0.24-0.568-0.464-0.868c-0.045-0.062-0.09-0.121-0.135-0.183L34.635,50.041z"/>
	</g>
	<g>
		<defs>
			<rect id="SVGID_85_" x="6.19" y="5.746" width="55.257" height="55.773"/>
		</defs>
		<clipPath id="SVGID_86_">
			<use xlink:href="#SVGID_85_"  overflow="visible"/>
		</clipPath>
		
			<linearGradient id="SVGID_87_" gradientUnits="userSpaceOnUse" x1="187.0488" y1="-228.0176" x2="189.3779" y2="-228.0176" gradientTransform="matrix(1 0 0 -1 -156 -177)">
			<stop  offset="0" style="stop-color:#F05351"/>
			<stop  offset="0.4442" style="stop-color:#EC505F"/>
			<stop  offset="1" style="stop-color:#E74C6D"/>
		</linearGradient>
		<path clip-path="url(#SVGID_86_)" fill="url(#SVGID_87_)" d="M33.378,50.973c-0.673,0.644-1.076,1.029-1.479,1.416
			c-0.305-0.435-0.858-0.873-0.85-1.3c0.012-0.485,0.523-0.963,0.818-1.442C32.28,50.009,32.693,50.371,33.378,50.973"/>
	</g>
	<g>
		<defs>
			<rect id="SVGID_88_" x="6.19" y="5.746" width="55.257" height="55.773"/>
		</defs>
		<clipPath id="SVGID_89_">
			<use xlink:href="#SVGID_88_"  overflow="visible"/>
		</clipPath>
		
			<linearGradient id="SVGID_90_" gradientUnits="userSpaceOnUse" x1="186.7676" y1="-228.0161" x2="189.7939" y2="-228.0161" gradientTransform="matrix(1 0 0 -1 -156 -177)">
			<stop  offset="0" style="stop-color:#F05351"/>
			<stop  offset="1" style="stop-color:#E74C6D"/>
		</linearGradient>
		<path clip-path="url(#SVGID_89_)" fill="url(#SVGID_90_)" d="M31.857,52.818l-0.188-0.269c-0.085-0.12-0.193-0.243-0.309-0.375
			c-0.296-0.337-0.602-0.687-0.593-1.092c0.01-0.431,0.293-0.808,0.566-1.171c0.108-0.143,0.211-0.279,0.293-0.413l0.175-0.285
			l1.993,1.748L31.857,52.818z M31.921,50.068c-0.045,0.062-0.091,0.123-0.136,0.184c-0.221,0.293-0.448,0.596-0.454,0.846
			c-0.005,0.187,0.238,0.463,0.452,0.707c0.049,0.055,0.097,0.11,0.145,0.166l1.033-0.988L31.921,50.068z"/>
	</g>
	<g>
		<defs>
			<rect id="SVGID_91_" x="6.19" y="5.746" width="55.257" height="55.773"/>
		</defs>
		<clipPath id="SVGID_92_">
			<use xlink:href="#SVGID_91_"  overflow="visible"/>
		</clipPath>
		
			<linearGradient id="SVGID_93_" gradientUnits="userSpaceOnUse" x1="179.5156" y1="-229.8594" x2="181.8574" y2="-229.8594" gradientTransform="matrix(1 0 0 -1 -156 -177)">
			<stop  offset="0" style="stop-color:#F05351"/>
			<stop  offset="0.4442" style="stop-color:#EC505F"/>
			<stop  offset="1" style="stop-color:#E74C6D"/>
		</linearGradient>
		<path clip-path="url(#SVGID_92_)" fill="url(#SVGID_93_)" d="M25.857,52.887c-0.676,0.614-1.081,0.981-1.486,1.35
			c-0.308-0.479-0.838-0.951-0.855-1.441c-0.014-0.427,0.551-0.873,0.859-1.312C24.777,51.863,25.179,52.245,25.857,52.887"/>
	</g>
	<g>
		<defs>
			<rect id="SVGID_94_" x="6.19" y="5.746" width="55.257" height="55.773"/>
		</defs>
		<clipPath id="SVGID_95_">
			<use xlink:href="#SVGID_94_"  overflow="visible"/>
		</clipPath>
		
			<linearGradient id="SVGID_96_" gradientUnits="userSpaceOnUse" x1="179.2344" y1="-229.8613" x2="182.2715" y2="-229.8613" gradientTransform="matrix(1 0 0 -1 -156 -177)">
			<stop  offset="0" style="stop-color:#F05351"/>
			<stop  offset="1" style="stop-color:#E74C6D"/>
		</linearGradient>
		<path clip-path="url(#SVGID_95_)" fill="url(#SVGID_96_)" d="M24.314,54.668l-0.18-0.279c-0.086-0.135-0.192-0.269-0.304-0.412
			c-0.286-0.362-0.581-0.737-0.596-1.172c-0.014-0.408,0.296-0.762,0.597-1.104c0.117-0.133,0.228-0.258,0.313-0.381l0.188-0.266
			l1.939,1.836L24.314,54.668z M24.405,51.898c-0.05,0.062-0.101,0.117-0.151,0.176c-0.217,0.246-0.464,0.527-0.458,0.712
			c0.009,0.249,0.247,0.552,0.476,0.843c0.048,0.062,0.097,0.123,0.144,0.186l1.026-0.931L24.405,51.898z"/>
	</g>
	<g>
		<defs>
			<rect id="SVGID_97_" x="6.19" y="5.746" width="55.257" height="55.773"/>
		</defs>
		<clipPath id="SVGID_98_">
			<use xlink:href="#SVGID_97_"  overflow="visible"/>
		</clipPath>
		
			<linearGradient id="SVGID_99_" gradientUnits="userSpaceOnUse" x1="194.4951" y1="-226.0967" x2="196.7715" y2="-226.0967" gradientTransform="matrix(1 0 0 -1 -156 -177)">
			<stop  offset="0" style="stop-color:#F05351"/>
			<stop  offset="0.4442" style="stop-color:#EC505F"/>
			<stop  offset="1" style="stop-color:#E74C6D"/>
		</linearGradient>
		<path clip-path="url(#SVGID_98_)" fill="url(#SVGID_99_)" d="M40.771,49.152c-0.582,0.604-0.914,1.264-1.308,1.3
			c-0.989,0.092-1.06-0.79-0.906-1.455c0.105-0.466,0.589-0.845,0.903-1.263C39.838,48.143,40.216,48.55,40.771,49.152"/>
	</g>
	<g>
		<defs>
			<rect id="SVGID_100_" x="6.19" y="5.746" width="55.257" height="55.773"/>
		</defs>
		<clipPath id="SVGID_101_">
			<use xlink:href="#SVGID_100_"  overflow="visible"/>
		</clipPath>
		
			<linearGradient id="SVGID_102_" gradientUnits="userSpaceOnUse" x1="194.2158" y1="-226.0176" x2="197.1602" y2="-226.0176" gradientTransform="matrix(1 0 0 -1 -156 -177)">
			<stop  offset="0" style="stop-color:#F05351"/>
			<stop  offset="1" style="stop-color:#E74C6D"/>
		</linearGradient>
		<path clip-path="url(#SVGID_101_)" fill="url(#SVGID_102_)" d="M39.329,50.739c-0.438,0-0.69-0.177-0.83-0.337
			c-0.396-0.45-0.283-1.178-0.216-1.469c0.089-0.395,0.371-0.705,0.645-1.009c0.113-0.124,0.219-0.241,0.309-0.358l0.201-0.271
			l1.723,1.858l-0.187,0.191c-0.188,0.199-0.356,0.409-0.505,0.598c-0.338,0.421-0.602,0.754-0.979,0.789
			C39.434,50.738,39.38,50.739,39.329,50.739 M39.473,48.163c-0.043,0.047-0.085,0.094-0.126,0.14
			c-0.235,0.262-0.458,0.508-0.515,0.756c-0.098,0.426-0.062,0.799,0.09,0.974c0.104,0.116,0.271,0.163,0.516,0.141
			c0.139-0.013,0.377-0.313,0.59-0.579c0.107-0.138,0.229-0.287,0.361-0.438L39.473,48.163z"/>
	</g>
	<g>
		<defs>
			<rect id="SVGID_103_" x="6.19" y="5.746" width="55.257" height="55.773"/>
		</defs>
		<clipPath id="SVGID_104_">
			<use xlink:href="#SVGID_103_"  overflow="visible"/>
		</clipPath>
		
			<linearGradient id="SVGID_105_" gradientUnits="userSpaceOnUse" x1="183.2285" y1="-228.9126" x2="185.5039" y2="-228.9126" gradientTransform="matrix(1 0 0 -1 -156 -177)">
			<stop  offset="0" style="stop-color:#F05351"/>
			<stop  offset="0.4442" style="stop-color:#EC505F"/>
			<stop  offset="1" style="stop-color:#E74C6D"/>
		</linearGradient>
		<path clip-path="url(#SVGID_104_)" fill="url(#SVGID_105_)" d="M29.504,51.969c-0.582,0.605-0.915,1.264-1.308,1.299
			c-0.989,0.092-1.058-0.789-0.906-1.455c0.106-0.465,0.588-0.844,0.904-1.262C28.571,50.959,28.948,51.368,29.504,51.969"/>
	</g>
	<g>
		<defs>
			<rect id="SVGID_106_" x="6.19" y="5.746" width="55.257" height="55.773"/>
		</defs>
		<clipPath id="SVGID_107_">
			<use xlink:href="#SVGID_106_"  overflow="visible"/>
		</clipPath>
		
			<linearGradient id="SVGID_108_" gradientUnits="userSpaceOnUse" x1="182.9482" y1="-228.835" x2="185.8906" y2="-228.835" gradientTransform="matrix(1 0 0 -1 -156 -177)">
			<stop  offset="0" style="stop-color:#F05351"/>
			<stop  offset="1" style="stop-color:#E74C6D"/>
		</linearGradient>
		<path clip-path="url(#SVGID_107_)" fill="url(#SVGID_108_)" d="M28.062,53.557c-0.437,0-0.691-0.18-0.831-0.339
			c-0.394-0.45-0.282-1.178-0.216-1.469c0.09-0.394,0.373-0.705,0.646-1.008c0.112-0.123,0.218-0.241,0.307-0.36l0.203-0.268
			l1.72,1.857l-0.184,0.191c-0.191,0.197-0.358,0.41-0.507,0.597c-0.335,0.421-0.601,0.753-0.978,0.789
			C28.167,53.555,28.113,53.557,28.062,53.557 M28.205,50.979c-0.042,0.049-0.084,0.096-0.125,0.143
			c-0.236,0.259-0.458,0.505-0.515,0.755c-0.097,0.425-0.062,0.797,0.09,0.972c0.103,0.117,0.271,0.166,0.516,0.143
			c0.138-0.014,0.377-0.313,0.589-0.58c0.109-0.137,0.228-0.286,0.361-0.438L28.205,50.979z"/>
	</g>
	<g>
		<defs>
			<rect id="SVGID_109_" x="6.19" y="5.746" width="55.257" height="55.773"/>
		</defs>
		<clipPath id="SVGID_110_">
			<use xlink:href="#SVGID_109_"  overflow="visible"/>
		</clipPath>
		
			<linearGradient id="SVGID_111_" gradientUnits="userSpaceOnUse" x1="181.416" y1="-205.4761" x2="183.7422" y2="-205.4761" gradientTransform="matrix(1 0 0 -1 -156 -177)">
			<stop  offset="0" style="stop-color:#F05351"/>
			<stop  offset="0.4442" style="stop-color:#EC505F"/>
			<stop  offset="1" style="stop-color:#E74C6D"/>
		</linearGradient>
		<path clip-path="url(#SVGID_110_)" fill="url(#SVGID_111_)" d="M27.743,28.539c-0.694,0.592-1.114,0.95-1.534,1.307
			c-0.287-0.496-0.783-0.986-0.793-1.489c-0.009-0.41,0.561-0.833,0.874-1.251C26.686,27.497,27.083,27.887,27.743,28.539"/>
	</g>
	<g>
		<defs>
			<rect id="SVGID_112_" x="6.19" y="5.746" width="55.257" height="55.773"/>
		</defs>
		<clipPath id="SVGID_113_">
			<use xlink:href="#SVGID_112_"  overflow="visible"/>
		</clipPath>
		
			<linearGradient id="SVGID_114_" gradientUnits="userSpaceOnUse" x1="181.1338" y1="-205.4795" x2="184.1582" y2="-205.4795" gradientTransform="matrix(1 0 0 -1 -156 -177)">
			<stop  offset="0" style="stop-color:#F05351"/>
			<stop  offset="1" style="stop-color:#E74C6D"/>
		</linearGradient>
		<path clip-path="url(#SVGID_113_)" fill="url(#SVGID_114_)" d="M26.134,30.279l-0.169-0.292c-0.08-0.139-0.179-0.278-0.284-0.427
			c-0.264-0.374-0.538-0.76-0.547-1.197c-0.009-0.399,0.307-0.737,0.613-1.064c0.119-0.125,0.23-0.246,0.317-0.361l0.193-0.258
			l1.901,1.874L26.134,30.279z M26.309,27.521c-0.05,0.056-0.101,0.11-0.151,0.164c-0.207,0.221-0.464,0.497-0.46,0.666
			c0.006,0.265,0.229,0.581,0.444,0.886c0.043,0.061,0.087,0.123,0.13,0.186l1.054-0.898L26.309,27.521z"/>
	</g>
	<g>
		<defs>
			<rect id="SVGID_115_" x="6.19" y="5.746" width="55.257" height="55.773"/>
		</defs>
		<clipPath id="SVGID_116_">
			<use xlink:href="#SVGID_115_"  overflow="visible"/>
		</clipPath>
		
			<linearGradient id="SVGID_117_" gradientUnits="userSpaceOnUse" x1="184.583" y1="-205.4785" x2="186.915" y2="-205.4785" gradientTransform="matrix(1 0 0 -1 -156 -177)">
			<stop  offset="0" style="stop-color:#F05351"/>
			<stop  offset="0.4442" style="stop-color:#EC505F"/>
			<stop  offset="1" style="stop-color:#E74C6D"/>
		</linearGradient>
		<path clip-path="url(#SVGID_116_)" fill="url(#SVGID_117_)" d="M28.583,28.507c0.667-0.636,1.068-1.017,1.469-1.399
			c0.31,0.423,0.876,0.854,0.863,1.268c-0.015,0.499-0.522,0.983-0.816,1.473C29.685,29.482,29.271,29.116,28.583,28.507"/>
	</g>
	<g>
		<defs>
			<rect id="SVGID_118_" x="6.19" y="5.746" width="55.257" height="55.773"/>
		</defs>
		<clipPath id="SVGID_119_">
			<use xlink:href="#SVGID_118_"  overflow="visible"/>
		</clipPath>
		
			<linearGradient id="SVGID_120_" gradientUnits="userSpaceOnUse" x1="184.167" y1="-205.4834" x2="187.1973" y2="-205.4834" gradientTransform="matrix(1 0 0 -1 -156 -177)">
			<stop  offset="0" style="stop-color:#F05351"/>
			<stop  offset="0.4442" style="stop-color:#EC505F"/>
			<stop  offset="1" style="stop-color:#E74C6D"/>
		</linearGradient>
		<path clip-path="url(#SVGID_119_)" fill="url(#SVGID_120_)" d="M30.167,30.284l-2-1.769l1.924-1.832l0.189,0.259
			c0.086,0.117,0.197,0.238,0.314,0.367c0.303,0.332,0.617,0.674,0.604,1.075c-0.014,0.436-0.294,0.818-0.565,1.188
			c-0.107,0.146-0.209,0.284-0.291,0.421L30.167,30.284z M29,28.5l1.043,0.924c0.044-0.062,0.089-0.125,0.134-0.186
			c0.221-0.3,0.449-0.611,0.458-0.873c0.005-0.171-0.25-0.451-0.456-0.676c-0.05-0.055-0.102-0.111-0.152-0.168L29,28.5z"/>
	</g>
	<g>
		<defs>
			<rect id="SVGID_121_" x="6.19" y="5.746" width="55.257" height="55.773"/>
		</defs>
		<clipPath id="SVGID_122_">
			<use xlink:href="#SVGID_121_"  overflow="visible"/>
		</clipPath>
		
			<linearGradient id="SVGID_123_" gradientUnits="userSpaceOnUse" x1="192.6826" y1="-205.4824" x2="195.0117" y2="-205.4824" gradientTransform="matrix(1 0 0 -1 -156 -177)">
			<stop  offset="0" style="stop-color:#F05351"/>
			<stop  offset="0.4442" style="stop-color:#EC505F"/>
			<stop  offset="1" style="stop-color:#E74C6D"/>
		</linearGradient>
		<path clip-path="url(#SVGID_122_)" fill="url(#SVGID_123_)" d="M39.012,28.437c-0.672,0.644-1.076,1.029-1.479,1.416
			c-0.307-0.434-0.859-0.872-0.851-1.298c0.011-0.487,0.524-0.963,0.818-1.443C37.915,27.474,38.33,27.838,39.012,28.437"/>
	</g>
	<g>
		<defs>
			<rect id="SVGID_124_" x="6.19" y="5.746" width="55.257" height="55.773"/>
		</defs>
		<clipPath id="SVGID_125_">
			<use xlink:href="#SVGID_124_"  overflow="visible"/>
		</clipPath>
		
			<linearGradient id="SVGID_126_" gradientUnits="userSpaceOnUse" x1="192.3984" y1="-205.4824" x2="195.4268" y2="-205.4824" gradientTransform="matrix(1 0 0 -1 -156 -177)">
			<stop  offset="0" style="stop-color:#F05351"/>
			<stop  offset="1" style="stop-color:#E74C6D"/>
		</linearGradient>
		<path clip-path="url(#SVGID_125_)" fill="url(#SVGID_126_)" d="M37.49,30.284l-0.188-0.268c-0.085-0.121-0.194-0.244-0.31-0.375
			c-0.295-0.337-0.603-0.686-0.594-1.092c0.013-0.429,0.295-0.806,0.568-1.17c0.107-0.145,0.21-0.281,0.293-0.414l0.174-0.285
			l1.993,1.75L37.49,30.284z M37.555,27.533c-0.045,0.062-0.091,0.123-0.137,0.183c-0.221,0.293-0.448,0.596-0.453,0.845
			c-0.004,0.186,0.236,0.463,0.453,0.707c0.047,0.054,0.096,0.111,0.145,0.167l1.032-0.989L37.555,27.533z"/>
	</g>
	<g>
		<defs>
			<rect id="SVGID_127_" x="6.19" y="5.746" width="55.257" height="55.773"/>
		</defs>
		<clipPath id="SVGID_128_">
			<use xlink:href="#SVGID_127_"  overflow="visible"/>
		</clipPath>
		
			<linearGradient id="SVGID_129_" gradientUnits="userSpaceOnUse" x1="196.416" y1="-205.4766" x2="198.7627" y2="-205.4766" gradientTransform="matrix(1 0 0 -1 -156 -177)">
			<stop  offset="0" style="stop-color:#F05351"/>
			<stop  offset="0.4442" style="stop-color:#EC505F"/>
			<stop  offset="1" style="stop-color:#E74C6D"/>
		</linearGradient>
		<path clip-path="url(#SVGID_128_)" fill="url(#SVGID_129_)" d="M42.763,28.509c-0.694,0.614-1.106,0.977-1.518,1.339
			c-0.3-0.446-0.851-0.904-0.828-1.333c0.024-0.485,0.567-0.941,0.888-1.41C41.699,27.487,42.095,27.868,42.763,28.509"/>
	</g>
	<g>
		<defs>
			<rect id="SVGID_130_" x="6.19" y="5.746" width="55.257" height="55.773"/>
		</defs>
		<clipPath id="SVGID_131_">
			<use xlink:href="#SVGID_130_"  overflow="visible"/>
		</clipPath>
		
			<linearGradient id="SVGID_132_" gradientUnits="userSpaceOnUse" x1="196.1338" y1="-205.4717" x2="199.1777" y2="-205.4717" gradientTransform="matrix(1 0 0 -1 -156 -177)">
			<stop  offset="0" style="stop-color:#F05351"/>
			<stop  offset="1" style="stop-color:#E74C6D"/>
		</linearGradient>
		<path clip-path="url(#SVGID_131_)" fill="url(#SVGID_132_)" d="M41.191,30.273l-0.181-0.267c-0.083-0.124-0.188-0.252-0.303-0.389
			c-0.292-0.349-0.595-0.708-0.573-1.117c0.023-0.43,0.328-0.796,0.622-1.15c0.116-0.139,0.226-0.271,0.313-0.402l0.188-0.277
			l1.919,1.848L41.191,30.273z M41.338,27.53c-0.048,0.061-0.1,0.121-0.148,0.181c-0.234,0.283-0.479,0.575-0.49,0.819
			c-0.01,0.188,0.229,0.474,0.44,0.726c0.05,0.059,0.099,0.119,0.147,0.181l1.06-0.936L41.338,27.53z"/>
	</g>
	<g>
		<defs>
			<rect id="SVGID_133_" x="6.19" y="5.746" width="55.257" height="55.773"/>
		</defs>
		<clipPath id="SVGID_134_">
			<use xlink:href="#SVGID_133_"  overflow="visible"/>
		</clipPath>
		
			<linearGradient id="SVGID_135_" gradientUnits="userSpaceOnUse" x1="188.8691" y1="-205.498" x2="191.1699" y2="-205.498" gradientTransform="matrix(1 0 0 -1 -156 -177)">
			<stop  offset="0" style="stop-color:#F05351"/>
			<stop  offset="0.4442" style="stop-color:#EC505F"/>
			<stop  offset="1" style="stop-color:#E74C6D"/>
		</linearGradient>
		<path clip-path="url(#SVGID_134_)" fill="url(#SVGID_135_)" d="M35.17,28.486c-0.613,0.591-1.014,0.976-1.414,1.36
			c-0.29-0.45-0.728-0.867-0.837-1.356c-0.145-0.647-0.012-1.464,0.911-1.325C34.237,27.226,34.562,27.86,35.17,28.486"/>
	</g>
	<g>
		<defs>
			<rect id="SVGID_136_" x="6.19" y="5.746" width="55.257" height="55.773"/>
		</defs>
		<clipPath id="SVGID_137_">
			<use xlink:href="#SVGID_136_"  overflow="visible"/>
		</clipPath>
		
			<linearGradient id="SVGID_138_" gradientUnits="userSpaceOnUse" x1="188.5879" y1="-205.5771" x2="191.5684" y2="-205.5771" gradientTransform="matrix(1 0 0 -1 -156 -177)">
			<stop  offset="0" style="stop-color:#F05351"/>
			<stop  offset="0.4442" style="stop-color:#EC505F"/>
			<stop  offset="1" style="stop-color:#E74C6D"/>
		</linearGradient>
		<path clip-path="url(#SVGID_137_)" fill="url(#SVGID_138_)" d="M33.706,30.287L33.52,30c-0.084-0.129-0.182-0.257-0.285-0.392
			c-0.246-0.324-0.501-0.657-0.591-1.057c-0.127-0.569-0.037-1.086,0.241-1.385c0.16-0.171,0.461-0.358,0.985-0.281
			c0.376,0.057,0.64,0.383,0.974,0.795c0.153,0.188,0.326,0.402,0.527,0.609l0.197,0.204L33.706,30.287z M33.634,27.432
			c-0.148,0-0.262,0.039-0.335,0.12c-0.147,0.157-0.188,0.502-0.105,0.878c0.063,0.278,0.271,0.55,0.49,0.836
			c0.037,0.049,0.076,0.101,0.113,0.15l0.979-0.941c-0.135-0.154-0.257-0.303-0.368-0.439c-0.236-0.293-0.461-0.569-0.621-0.593
			C33.732,27.435,33.682,27.432,33.634,27.432"/>
	</g>
</g>
<g>
	<g>
		
			<linearGradient id="SVGID_139_" gradientUnits="userSpaceOnUse" x1="250.999" y1="-276.7705" x2="251.499" y2="-276.7705" gradientTransform="matrix(1 0 0 -1 -156 -177)">
			<stop  offset="0.2063" style="stop-color:#F26B59"/>
			<stop  offset="1" style="stop-color:#E74C6D"/>
		</linearGradient>
		<path fill="url(#SVGID_139_)" d="M78.372,93.838c-1.333,1.667-1.999,3.354-1.999,5.062c0,0.726,0.087,1.348,0.261,1.869
			c0.984-0.781,2.087-1.172,3.304-1.172c1.592,0,2.939,0.514,4.041,1.541c1.101,1.029,1.65,2.412,1.65,4.15
			c0,1.072-0.26,2.042-0.781,2.912c-0.521,0.869-1.217,1.551-2.086,2.043s-1.812,0.738-2.824,0.738
			c-2.289,0-4.043-0.941-5.258-2.824c-1.016-1.565-1.521-3.521-1.521-5.867c0-2.982,0.76-5.656,2.281-8.018s3.816-4.266,6.889-5.715
			l0.826,1.608C81.297,90.949,79.704,92.173,78.372,93.838z M93.496,93.838c-1.334,1.667-2,3.354-2,5.062
			c0,0.726,0.088,1.348,0.262,1.869c1.014-0.781,2.113-1.172,3.303-1.172c1.621,0,2.978,0.514,4.062,1.541
			c1.086,1.029,1.629,2.412,1.629,4.15c0,1.623-0.551,2.977-1.65,4.064c-1.102,1.086-2.449,1.629-4.041,1.629
			c-2.289,0-4.043-0.941-5.26-2.824c-1.014-1.565-1.52-3.521-1.52-5.867c0-2.982,0.76-5.656,2.281-8.018
			c1.52-2.361,3.815-4.266,6.887-5.715l0.826,1.608C96.422,90.949,94.828,92.173,93.496,93.838z"/>
	</g>
	<text transform="matrix(1 0 0 1 68.334 152.832)" font-family="'PlayfairDisplay-Regular'" font-size="89"></text>
</g>
</svg>
