<?xml version="1.0" encoding="utf-8"?>
<!-- Generator: Adobe Illustrator 16.0.0, SVG Export Plug-In . SVG Version: 6.00 Build 0)  -->
<!DOCTYPE svg PUBLIC "-//W3C//DTD SVG 1.1//EN" "http://www.w3.org/Graphics/SVG/1.1/DTD/svg11.dtd">
<svg version="1.1" id="Layer_1" xmlns="http://www.w3.org/2000/svg" xmlns:xlink="http://www.w3.org/1999/xlink" x="0px" y="0px"
	 width="69px" height="68px" viewBox="0 0 69 68" enable-background="new 0 0 69 68" xml:space="preserve">
<g>
	<g>
		<defs>
			<rect id="SVGID_1_" x="-450" y="-36.328" width="63.844" height="61.896"/>
		</defs>
		<clipPath id="SVGID_2_">
			<use xlink:href="#SVGID_1_"  overflow="visible"/>
		</clipPath>
		
			<linearGradient id="SVGID_3_" gradientUnits="userSpaceOnUse" x1="-294" y1="-171.6201" x2="-230.1572" y2="-171.6201" gradientTransform="matrix(1 0 0 -1 -156 -177)">
			<stop  offset="0.2063" style="stop-color:#F26B59"/>
			<stop  offset="1" style="stop-color:#E74C6D"/>
		</linearGradient>
		<path clip-path="url(#SVGID_2_)" fill="url(#SVGID_3_)" d="M-440.233,2.157c-0.887,3.933-1.751,7.774-2.619,11.618
			c-0.739,3.276-1.47,6.555-2.223,9.828c-0.405,1.761-1.037,2.201-2.561,1.855c-1.658-0.374-2.043-1.034-1.629-2.879
			c1.434-6.395,2.879-12.788,4.316-19.184c0.118-0.521,0.203-1.051,0.336-1.748c-1.813-0.273-3.543-0.535-5.387-0.815
			c0.154-1.174,0.292-2.226,0.454-3.456c1.301,0.141,2.513,0.27,4.003,0.428c-1.476-3.546-2.878-6.913-4.354-10.46
			c1.044-0.457,2.007-0.881,3.069-1.347c0.307,0.414,0.579,0.782,0.906,1.224c0.354-0.216,0.728-0.419,1.073-0.662
			c9.007-6.331,18.037-12.631,27.011-19.009c11.811-8.395,27.719-2.533,31.148,11.521c2.53,10.368-4.227,21.283-14.66,23.681
			c-0.633,0.146-1.271,0.272-1.926,0.414c-0.162,1.202-0.326,2.412-0.504,3.724c-1.506-0.173-2.885-0.328-4.488-0.512
			c0.809,3.646,1.584,7.156,2.365,10.665c0.435,1.957,0.887,3.909,1.312,5.868c0.333,1.535-0.111,2.179-1.668,2.548
			c-1.349,0.319-2.199-0.094-2.517-1.521c-1.242-5.605-2.537-11.199-3.75-16.812c-0.211-0.979-0.554-1.428-1.621-1.562
			C-422.797,4.477-431.44,3.314-440.233,2.157 M-398.086-8.37c-1.998-2.044-3.996-4.089-5.973-6.111
			c-0.676,0.323-1.151,0.552-1.562,0.747V0.878c4.453-0.101,8.191-1.677,11.396-4.577c0.154-0.139,0.129-0.477,0.188-0.721
			c0.416-0.09,0.998-0.034,1.223-0.291c2.723-3.123,4.174-6.744,4.207-11.081c-4.768,0-9.42-0.011-14.074,0.023
			c-0.279,0.002-0.723,0.302-0.793,0.549c-0.094,0.328,0.017,0.789,0.195,1.103c0.207,0.365,0.598,0.622,0.887,0.944
			C-400.953-11.575-399.52-9.972-398.086-8.37 M-416.186-6.164c-0.729,0.617-1.458,1.232-2.277,1.93
			c3.639,3.328,7.438,5.024,12.098,5.11c0-4.776,0.028-9.364-0.019-13.951c-0.015-1.278-0.935-1.349-1.931-1.103
			c-0.147-0.542-0.295-1.084-0.406-1.493h-14.693c0.056,4.513,1.711,8.193,4.651,11.339C-417.826-4.998-417.005-5.581-416.186-6.164
			 M-444.603-12.14c8.506,3.55,16.689,6.964,24.872,10.379c-6.946-7.779-8.021-16.173-3.008-25.758
			C-430.245-22.239-437.279-17.292-444.603-12.14 M-444.885-10.997c-0.108,0.085-0.216,0.17-0.324,0.254
			c1.209,2.867,2.395,5.745,3.663,8.587c0.147,0.331,0.73,0.604,1.143,0.661c8.156,1.103,16.316,2.17,24.476,3.235
			c0.305,0.039,0.62,0.005,0.932,0.005c0.009-0.082,0.019-0.163,0.027-0.245C-424.94-2.665-434.912-6.831-444.885-10.997
			 M-388.604-16.504c-0.209-4.607-1.805-8.441-5.193-12.052c-3.083,3.203-6.042,6.361-9.11,9.41
			c-0.903,0.897-1.053,1.63-0.298,2.642H-388.604z M-418.244-28.581c-3.349,3.688-5.025,7.479-5.149,12.045h14.993
			c-0.082-0.744,0.099-1.636-0.263-2.026C-411.748-21.897-414.93-25.142-418.244-28.581 M-418.02-29.17
			c3.374,3.391,6.59,6.666,9.879,9.866c0.339,0.329,1.111,0.215,1.656,0.302v-14.946C-410.93-33.747-414.695-32.258-418.02-29.17
			 M-405.712-33.943c0,4.633-0.021,9.073,0.028,13.513c0.006,0.47,0.316,1.205,0.662,1.329c0.377,0.137,1.088-0.162,1.433-0.497
			c2.76-2.686,5.47-5.425,8.19-8.15c0.442-0.443,0.863-0.909,1.357-1.431C-397.396-32.244-401.156-33.77-405.712-33.943"/>
	</g>
</g>
<linearGradient id="SVGID_4_" gradientUnits="userSpaceOnUse" x1="-232.9082" y1="-173.2456" x2="-232.644" y2="-173.2456" gradientTransform="matrix(1 0 0 -1 -156 -177)">
	<stop  offset="0" style="stop-color:#F05351"/>
	<stop  offset="1" style="stop-color:#E74C6D"/>
</linearGradient>
<path fill="url(#SVGID_4_)" d="M-389.992,150.896c-0.212-0.109-0.42-0.229-0.636-0.332c-3.402-1.605-6.801-3.218-10.213-4.802
	c-0.293-0.136-0.71-0.182-1.015-0.089c-1.652,0.499-3.327-0.288-3.935-1.902c-0.557-1.479,0.243-3.205,1.785-3.854
	c1.467-0.618,3.243,0.087,3.899,1.633c0.226,0.534,0.563,0.802,1.044,1.024c3.297,1.544,6.586,3.102,9.878,4.654
	c0.262,0.123,0.529,0.235,0.635,0.281c1.65-1.854,3.234-3.632,4.895-5.496c-0.696-1.125-1.489-2.412-2.285-3.695
	c-1.444-2.328-2.878-4.66-4.35-6.971c-0.187-0.293-0.543-0.55-0.876-0.666c-1.396-0.486-2.423-1.816-2.339-3.13
	c0.09-1.415,1.283-2.694,2.75-2.946c1.807-0.313,3.77,1.662,3.387,3.475c-0.128,0.605-0.016,1.051,0.3,1.555
	c2.081,3.312,4.146,6.635,6.183,9.977c0.328,0.535,0.584,0.6,1.15,0.341c7.531-3.438,16.398-1.839,22.031,4.229
	c5.015,5.399,6.559,11.802,4.563,18.955c-0.214,0.769-0.133,1.093,0.619,1.416c1.794,0.771-0.458,4.373,1.312,5.202
	c1.343,0.628,2.428,1.543,3.18,2.832c0.394,0.677,0.271,0.943-0.511,1.098c-1.474,0.289-2.865-0.002-4.201-0.632
	c-2.033-0.955-0.062-4.639-2.1-5.6c-0.727,0.958-1.38,1.934-2.153,2.802c-0.793,0.893-1.678,1.709-2.577,2.496
	c-0.38,0.333-0.415,0.548-0.151,0.959c0.987,1.546,1.935,3.113,2.908,4.67c0.76,1.214,1.142,2.532,1.116,3.963
	c-0.015,0.846-0.352,1.061-1.104,0.719c-1.283-0.58-2.293-1.479-3.038-2.675c-0.958-1.534-1.929-3.062-2.851-4.618
	c-0.314-0.529-0.559-0.662-1.189-0.398c-6.574,2.742-12.882,2.188-18.812-1.768c-2.905-1.937-5.065-4.576-6.562-7.744
	c-0.134-0.285-0.268-0.568-0.441-0.937c-0.524,0.253-1.023,0.485-1.515,0.729c-0.874,0.436-1.757,0.858-2.616,1.322
	c-2.88,1.559-4.284,5.021-3.326,8.158c0.951,3.107,4.109,5.283,7.321,4.905c1.497-0.177,2.973-0.566,4.44-0.933
	c4.682-1.17,9.104,1.564,10.079,6.291c0.286,1.39,0.223,2.774-0.246,4.125c-0.132,0.381-0.229,0.911-0.803,0.715
	c-0.554-0.188-0.355-0.648-0.222-1.053c1.574-4.759-1.95-9.562-6.896-9.258c-1.591,0.098-3.171,0.551-4.729,0.948
	c-5.342,1.364-10.448-2.595-10.265-8.091c0.103-3.094,1.583-5.437,4.366-6.885c1.17-0.607,2.351-1.194,3.536-1.776
	c0.323-0.16,0.497-0.3,0.366-0.722c-1.264-4.072-1.191-8.131,0.171-12.17C-390.008,151.141-390.011,151.04-389.992,150.896
	 M-375.694,175.507c-1.395-13.528,2.83-24.778,12.777-33.991c-0.877-0.389-1.676-0.729-2.462-1.095
	c-0.502-0.235-0.869-0.158-1.296,0.233c-3.917,3.578-6.957,7.781-9.083,12.646c-2.905,6.644-3.747,13.554-2.647,20.707
	c0.039,0.251,0.127,0.631,0.295,0.7C-377.361,175.012-376.574,175.227-375.694,175.507 M-379.528,174.209
	c-1.68-13.594,2.3-24.98,12.188-34.479c-1.333-0.145-2.487-0.303-3.646-0.373c-0.312-0.018-0.723,0.158-0.95,0.383
	c-3.273,3.26-5.849,7-7.722,11.228c-1.882,4.246-2.998,8.69-3.116,13.323c-0.065,2.525,0.256,5.066,0.433,7.597
	c0.021,0.287,0.148,0.675,0.361,0.822C-381.25,173.223-380.46,173.65-379.528,174.209 M-354.67,150.512
	c-0.375,0.238-0.562,0.35-0.739,0.471c-2.596,1.809-5.37,3.279-8.334,4.391c-2.612,0.979-5.285,1.71-8.055,2.076
	c-0.315,0.043-0.812,0.146-0.886,0.347c-0.468,1.263-0.84,2.558-1.274,3.938c0.427,0,0.668,0.009,0.908-0.002
	c3.009-0.133,5.958-0.621,8.845-1.482c3.678-1.098,7.104-2.721,10.262-4.902c0.158-0.107,0.358-0.363,0.327-0.504
	C-353.934,153.429-354.295,152.025-354.67,150.512 M-372.155,156.273c0.051,0.074,0.104,0.15,0.155,0.227
	c1.909-0.463,3.838-0.854,5.72-1.405c3.779-1.108,7.259-2.86,10.455-5.163c0.2-0.143,0.441-0.55,0.372-0.695
	c-0.67-1.41-1.535-2.696-2.639-3.848c-0.235,0.159-0.418,0.277-0.596,0.403c-2.643,1.877-5.436,3.532-8.524,4.483
	c-1.946,0.601-3.128,1.674-3.806,3.506C-371.332,154.637-371.771,155.445-372.155,156.273 M-360.515,172.261
	c-0.035-0.094-0.069-0.187-0.103-0.278c-0.166-0.101-0.328-0.205-0.497-0.299c-3.693-2.035-7.012-4.564-9.793-7.734
	c-0.781-0.893-1.541-1.281-2.687-1.125c-0.419,0.058-0.615,0.177-0.671,0.578c-0.157,1.111-0.351,2.221-0.467,3.336
	c-0.028,0.27,0.113,0.633,0.301,0.836c2.55,2.742,5.466,5.027,8.735,6.854c0.229,0.128,0.606,0.232,0.806,0.132
	C-363.416,173.824-361.97,173.035-360.515,172.261 M-370.497,162.669c0.051,0.13,0.06,0.208,0.103,0.257
	c2.992,3.393,6.51,6.107,10.524,8.182c0.124,0.065,0.367,0.082,0.452,0.006c1.354-1.203,2.522-2.561,3.4-4.176
	c-0.131-0.093-0.204-0.16-0.289-0.203c-2.773-1.363-5.348-3.033-7.738-4.996c-0.203-0.166-0.591-0.213-0.866-0.164
	c-0.862,0.154-1.707,0.402-2.565,0.572C-368.469,162.342-369.471,162.494-370.497,162.669 M-353.442,156.622
	c-3.156,1.536-6.296,3.065-9.475,4.612c2.23,1.834,4.732,3.43,7.511,4.713C-353.866,162.917-353.211,159.805-353.442,156.622
	 M-382.341,154.721c0.102-0.143,0.157-0.193,0.183-0.258c0.779-1.893,1.565-3.781,2.316-5.686c0.082-0.203,0.037-0.528-0.076-0.728
	c-0.445-0.784-0.94-1.542-1.418-2.31c-0.525-0.842-1.052-1.682-1.575-2.518c-1.386,0.784-1.543,1.062-1.426,2.499
	c0.043,0.535,0.096,1.069,0.171,1.603C-383.813,149.816-383.234,152.253-382.341,154.721 M-374.868,169.025
	c-0.012,0.155-0.053,0.391-0.042,0.623c0.087,1.73,0.213,3.463,0.263,5.195c0.021,0.705,0.339,0.965,0.974,0.967
	c1.319,0.006,2.644,0.068,3.957-0.021c0.984-0.067,1.954-0.339,2.855-0.505C-369.574,173.163-372.217,171.098-374.868,169.025
	 M-358.797,144.533c-0.952-0.749-1.796-1.404-2.629-2.073c-0.354-0.284-0.632-0.238-0.938,0.084
	c-1.428,1.503-2.896,2.972-4.293,4.503c-0.68,0.746-1.233,1.607-1.844,2.418C-364.987,148.426-361.85,146.766-358.797,144.533
	 M-400.467,144.73c5.391,2.539,10.733,5.058,16.153,7.609c-0.101-1.133-0.385-1.863-1.475-2.354
	c-4.449-2.004-8.839-4.137-13.252-6.217c-0.253-0.119-0.517-0.216-0.784-0.326C-400.043,143.88-400.226,144.249-400.467,144.73
	 M-389.42,130.665c2.983,4.804,5.955,9.59,8.928,14.377c0.021-0.94-0.088-1.812-0.23-2.675c-0.05-0.303-0.126-0.627-0.284-0.883
	c-2.249-3.662-4.514-7.315-6.777-10.971c-0.125-0.203-0.266-0.395-0.419-0.621C-388.612,130.152-388.977,130.384-389.42,130.665
	 M-382.992,157.502c-2.317-0.579-4.588-1.145-7.029-1.752c0,0.855-0.033,1.677,0.025,2.493c0.013,0.182,0.316,0.418,0.533,0.499
	c1.501,0.566,3.012,1.109,4.528,1.636c0.423,0.147,0.875,0.214,1.35,0.324C-383.379,159.595-383.189,158.568-382.992,157.502
	 M-383.921,165.639c0.037-0.789,0.066-1.345,0.086-1.9c0.022-0.627,0.277-1.432-0.016-1.83c-0.299-0.407-1.144-0.404-1.743-0.606
	c-1.406-0.471-2.807-0.956-4.419-1.507c0.347,1.327,0.657,2.541,0.988,3.749c0.032,0.117,0.181,0.24,0.303,0.288
	C-387.18,164.42-385.634,164.996-383.921,165.639 M-382.98,156.322c-0.399-1.519-0.743-2.834-2.424-3.338
	c-1.213-0.362-2.331-1.041-3.584-1.621c-0.254,0.986-0.514,1.871-0.69,2.774c-0.032,0.163,0.233,0.509,0.426,0.572
	c1.132,0.371,2.277,0.712,3.431,1.01C-384.912,155.955-383.983,156.113-382.98,156.322 M-377.017,140.013
	c-0.833,0.334-1.585,0.605-2.305,0.945c-0.168,0.08-0.323,0.396-0.316,0.597c0.024,0.729,0.085,1.461,0.197,2.18
	c0.153,0.987,0.364,1.969,0.581,3.115c0.891-1.315,1.673-2.455,2.431-3.609c0.093-0.141,0.118-0.379,0.08-0.551
	C-376.543,141.84-376.768,140.997-377.017,140.013 M-402.908,140.773c-1.216,0.008-1.994,0.807-1.98,2.031
	c0.013,1.164,0.819,1.98,1.974,1.997c1.129,0.015,2.068-0.919,2.042-2.03C-400.9,141.551-401.7,140.764-402.908,140.773
	 M-355.658-197.785c-8.395-0.06-13.958,5.427-13.969,13.776c-0.009,8.119,5.457,13.815,13.377,13.939
	c8.278,0.13,14.176-5.466,14.357-13.625C-341.709-191.865-347.436-197.726-355.658-197.785 M-383.625,171.398
	c0.025-0.037,0.074-0.076,0.072-0.111c-0.103-1.413-0.204-2.824-0.33-4.235c-0.015-0.157-0.155-0.396-0.29-0.44
	c-1.347-0.459-2.706-0.887-4.097-1.336C-387.751,167.066-385.067,170.582-383.625,171.398 M-353.775,165.066
	c-0.243,0.528-0.422,0.92-0.615,1.338c0.089,0.064,0.141,0.119,0.205,0.147c2.187,1.031,0.359,4.819,2.573,5.789
	c0.654,0.286,1.426,0.306,2.145,0.445c0.043-0.12,0.085-0.239,0.128-0.357C-351.699,170.156-350.951,166.751-353.775,165.066
	 M-362.199,174.574c1.25,1.974,2.419,3.893,3.672,5.753c0.389,0.577,1.007,1.004,1.52,1.497c0.087-0.065,0.173-0.135,0.26-0.202
	c-0.571-3.022-2.837-5.156-4.147-7.874C-361.382,174.059-361.747,174.289-362.199,174.574 M-385.466,145.752
	c-0.063-0.023-0.126-0.047-0.19-0.068c-0.562,0.769-1.123,1.539-1.742,2.387c0.852,0.398,1.567,0.733,2.407,1.127
	C-385.162,147.951-385.314,146.852-385.466,145.752 M-375.431,141.939c0.788-0.897,1.469-1.678,2.15-2.455l-0.115-0.166
	c-0.826,0.141-1.651,0.279-2.542,0.432C-375.76,140.518-375.614,141.145-375.431,141.939"/>
<g>
	<defs>
		<rect id="SVGID_5_" x="8.255" y="8.5" width="52.354" height="52.354"/>
	</defs>
	<clipPath id="SVGID_6_">
		<use xlink:href="#SVGID_5_"  overflow="visible"/>
	</clipPath>
	<linearGradient id="SVGID_7_" gradientUnits="userSpaceOnUse" x1="8.2549" y1="34.6777" x2="60.6094" y2="34.6777">
		<stop  offset="0" style="stop-color:#F05351"/>
		<stop  offset="1" style="stop-color:#E74C6D"/>
	</linearGradient>
	<path clip-path="url(#SVGID_6_)" fill="url(#SVGID_7_)" d="M60.609,54.596v-0.827c-0.42-1.18-1.239-1.706-2.505-1.606
		c-0.096,0.007-0.185,0-0.257-0.006c-0.057-0.005-0.102-0.021-0.142-0.032c-0.014-0.004-0.028-0.01-0.047-0.016l-0.225-0.064V15.597
		l0.345,0.039c1.498,0.17,2.397-0.339,2.83-1.599v-0.83c-0.442-1.262-1.355-1.766-2.873-1.583l-0.389,0.046l0.043-0.389
		c0.166-1.463-0.341-2.348-1.592-2.782h-0.828c-1.249,0.439-1.754,1.307-1.59,2.726l0.04,0.346H15.454l0.039-0.345
		c0.158-1.407-0.366-2.3-1.599-2.727h-0.828c-1.245,0.438-1.75,1.319-1.588,2.769l0.043,0.386l-0.386-0.043
		c-1.534-0.169-2.45,0.337-2.881,1.595v0.828c0.418,1.176,1.24,1.701,2.507,1.607c0.09-0.007,0.17-0.001,0.256,0.005
		c0.036,0.003,0.074,0.006,0.115,0.007l0.296,0.015v36.537l-0.345-0.039c-1.499-0.168-2.4,0.34-2.83,1.599v0.816
		c0.625,1.411,0.859,1.471,2.922,1.654l0.283,0.024l0,0.938c0,0.51,0,1.024,0,1.538c0,0.138,0.002,0.276,0.005,0.416
		c0.005,0.308,0.012,0.629-0.01,0.946c-0.024,0.353,0.068,0.583,0.307,0.756h3.435c0.229-0.167,0.317-0.392,0.309-0.771
		c-0.019-0.835-0.015-1.689-0.012-2.515c0.001-0.341,0.003-0.683,0.003-1.028v-0.31h37.869v1.986c0,0.185,0.002,0.37,0.005,0.555
		c0.004,0.433,0.01,0.879-0.012,1.32c-0.02,0.365,0.07,0.594,0.307,0.763h3.436c0.23-0.167,0.317-0.391,0.31-0.771
		c-0.02-0.831-0.016-1.651-0.013-2.52c0.001-0.352,0.004-0.706,0.004-1.068v-0.349l0.348,0.041
		C59.263,56.369,60.173,55.863,60.609,54.596 M11.438,55.289l-0.337-0.029c-0.115-0.009-0.243,0-0.378,0.011
		c-0.393,0.03-0.929,0.07-1.294-0.456c-0.211-0.303-0.242-0.849-0.066-1.167c0.347-0.629,0.939-0.585,1.374-0.553
		c0.133,0.01,0.259,0.02,0.376,0.014l0.327-0.017V55.289z M11.441,14.699l-0.32-0.01c-0.113-0.003-0.235,0.006-0.363,0.017
		c-0.107,0.009-0.225,0.02-0.346,0.02c-0.349,0-0.732-0.082-1.006-0.498c-0.192-0.291-0.219-0.801-0.059-1.114
		c0.321-0.621,0.888-0.599,1.303-0.583c0.155,0.007,0.302,0.012,0.435-0.007l0.356-0.055V14.699z M14.567,10.781
		c0,0.037-0.001,0.073-0.001,0.109v49.012h-2.172V11.191c0-0.063-0.001-0.126-0.002-0.189c-0.003-0.184-0.007-0.374,0.016-0.568
		c0.067-0.582,0.453-0.953,1.031-0.992c0.57-0.039,1.054,0.391,1.12,1.002C14.571,10.562,14.569,10.673,14.567,10.781
		 M15.531,15.674h5.989v2.112h-5.989V15.674z M15.528,18.768h5.979v2.104h-5.979V18.768z M21.52,52.138h-5.988V21.874h5.988V52.138z
		 M53.335,55.226H15.521V53.13h37.814V55.226z M24.654,18.778v0.791c0,0.401,0,0.8,0,1.2c0,0.056,0,0.11-0.001,0.166
		c-0.002,0.149-0.003,0.291,0.009,0.426c0.027,0.299,0.196,0.478,0.451,0.483c0.271,0.005,0.452-0.186,0.461-0.493
		c0.016-0.508,0.013-1.016,0.009-1.554c-0.001-0.234-0.003-0.473-0.003-0.717v-0.31h2.146v11.418h-2.14l0-0.593
		c0-0.217,0-0.43,0-0.642l0.002-1.273c0.001-0.92,0.002-1.841,0.002-2.76c0-0.51-0.103-0.718-0.188-0.804
		c-0.039-0.04-0.111-0.092-0.278-0.092c-0.003,0-0.007,0-0.01,0c-0.193,0.003-0.459,0.007-0.46,0.917
		c-0.002,1.008-0.001,2.017-0.001,3.024l0,2.228h-2.147V18.778H24.654z M22.527,15.669h5.188v2.112h-5.188V15.669z M28.717,15.674
		h5.215v2.111h-5.215V15.674z M33.923,30.208h-2.083v-11.43h2.083V30.208z M30.819,30.193h-2.088v-11.43h2.088V30.193z
		 M46.344,31.188v13.995l-0.521-0.485c-0.063-0.059-0.12-0.11-0.173-0.158c-0.104-0.096-0.193-0.177-0.28-0.265
		c-1.968-1.972-3.936-3.942-5.903-5.915l-4.364-4.372c-0.615-0.615-0.676-0.615-1.305,0.012c-3.348,3.342-6.81,6.797-10.21,10.198
		c-0.079,0.078-0.148,0.181-0.222,0.29c-0.04,0.058-0.079,0.115-0.121,0.171l-0.17,0.231l-0.559-0.351V31.188H46.344z
		 M34.938,15.674h5.207v2.111h-5.207V15.674z M40.127,30.189h-2.079V18.763h2.079V30.189z M37.044,30.193h-2.12V18.779h2.12V30.193z
		 M22.517,46.928h23.849v2.092H22.517V46.928z M46.352,52.142h-2.095v-2.119h2.095V52.142z M43.249,52.137h-2.106v-2.12h2.106
		V52.137z M40.147,52.128H38.03v-2.102h2.117V52.128z M37.038,52.127h-2.093v-2.105h2.093V52.127z M33.936,52.124h-2.11V50.03h2.11
		V52.124z M30.821,52.133h-2.09V50.02h2.09V52.133z M27.724,52.124h-2.109v-2.098h2.109V52.124z M24.626,52.128H22.51v-2.103h2.117
		V52.128z M23.331,45.92l11.093-11.137L45.616,45.92H23.331z M46.365,17.77h-5.224v-2.089h5.224V17.77z M46.338,30.195h-2.084
		V18.762h2.084V30.195z M43.235,30.208H41.15v-11.43h2.085V30.208z M53.342,52.125h-6.008V21.886h6.008V52.125z M53.342,20.878
		h-5.995v-2.1h5.995V20.878z M47.354,15.667h5.977v2.119h-5.977V15.667z M53.343,14.682H15.54v-2.111h37.803V14.682z M56.468,59.897
		h-2.17V10.921c0-0.67,0.187-1.473,1.069-1.486c0.294-0.006,0.544,0.085,0.731,0.271c0.25,0.245,0.372,0.636,0.372,1.192
		L56.468,59.897z M57.423,12.542l0.322,0.012c0.113,0.003,0.235-0.007,0.364-0.017c0.415-0.034,0.98-0.081,1.352,0.482
		c0.191,0.293,0.218,0.803,0.055,1.115c-0.337,0.64-0.931,0.603-1.365,0.575c-0.14-0.008-0.271-0.016-0.394-0.008l-0.334,0.025
		V12.542z M57.755,55.254l-0.327,0.019v-2.184l0.329,0.019c0.115,0.007,0.243-0.003,0.377-0.012
		c0.432-0.032,1.023-0.073,1.372,0.556c0.17,0.305,0.152,0.815-0.035,1.115c-0.272,0.436-0.667,0.515-1.021,0.515
		c-0.112,0-0.22-0.008-0.317-0.015C57.997,55.258,57.871,55.247,57.755,55.254"/>
</g>
</svg>
